{
copyright = "Copyright 2015 Mohamed Gaber (gaber@gaberism.net)Copyright 2015 Mohamed Gaber (gaber@gaberism.net)";
customParameters = (
{
name = license;
value = "Licensed under the Open Font License, Version 1.1";
},
{
name = licenseURL;
value = "http://scripts.sil.org/OFL";
},
{
name = vendorID;
value = "    ";
},
{
name = glyphOrder;
value = (
    ".notdef",
    NULL,
    uni000D,
    space,
    uni0621,
    uni0627,
    "uni0627.fina",
    uni062D,
    "uni062D.init",
    "uni062D.medi",
    "uni062D.fina",
    uni062F,
    uni0631,
    "uni0631.fina",
    uni0633,
    "uni0633.init",
    "uni0633.medi",
    "uni0633.fina",
    uni0635,
    "uni0635.init",
    "uni0635.medi",
    "uni0635.fina",
    uni0637,
    "uni0637.init",
    "uni0637.medi",
    "uni0637.fina",
    uni0639,
    "uni0639.init",
    "uni0639.medi",
    "uni0639.fina",
    "uni0643.init",
    "uni0643.medi",
    uni0643,
    "uni0643.fina",
    uni0644,
    "uni0644.init",
    "uni0644.medi",
    "uni0644.fina",
    uni0645,
    "uni0645.init",
    "uni0645.medi",
    "uni0645.fina",
    uni0647,
    "uni0647.init",
    "uni0647.medi",
    "uni0647.fina",
    uni0648,
    "uni0648.fina",
    uni0649,
    "uni0649.fina",
    "uni06440627.isol",
    "uni06440627.fina",
    uni0640,
    uni066E,
    "uni066E.fina",
    "uni066F.init",
    "uni066F.medi",
    "feh_dotless.isol",
    "uni06A1.fina",
    uni066F,
    "uni066F.fina",
    "onedot.above",
    "twodots.above",
    "threedots.above",
    "threedots.below",
    uni0660,
    uni0661,
    uni0662,
    uni0663,
    uni0664,
    uni0665,
    uni0666,
    uni0667,
    uni0668,
    uni0669,
    uni06F4,
    uni06F5,
    uni06F6,
    "uni06C1.init",
    "uni06C1.medi",
    uni06BE,
    uni06D2,
    "uni06D2.fina",
    uni06A9,
    "uni06A9.fina",
    uni06AF,
    "uni06AF.init",
    "uni06AF.medi",
    "uni06AF.fina",
    uni06BA,
    "uni06BA.fina",
    uni066A,
    uni061F,
    uni060C,
    uni061B,
    uni066B,
    uni066C,
    uni066D,

glyphs = (
{
glyphname = .notdef;
lastChange = "2015-05-24 03:38:45 +0000";
layers = (
{
layerId = "66C82CE7-ECCF-480D-AAE6-CD3075A06AEF";
name = Regular;
paths = (
{
closed = 1;
nodes = (
"1126 -362 LINE",
"1126 1444 LINE",
"102 1444 LINE",
"102 -362 LINE"
);
},
{
closed = 1;
nodes = (
"217 1329 LINE",
"1012 1329 LINE",
"1012 -248 LINE",
"217 -248 LINE"
);
}
);
width = 1229;
}
);
},
{
glyphname = uni0621;
lastChange = "2015-05-24 04:35:50 +0000";
layers = (
{
anchors = (
{
name = bottom;
position = "{496, -200}";
},
{
name = top;
position = "{494, 1050}";
}
);
layerId = "66C82CE7-ECCF-480D-AAE6-CD3075A06AEF";
name = Regular;
paths = (
{
closed = 1;
nodes = (
"194 30 OFFCURVE",
"819 83 OFFCURVE",
"870 90 CURVE SMOOTH",
"906 95 OFFCURVE",
"911 145 OFFCURVE",
"909 167 CURVE",
"903 202 OFFCURVE",
"885 230 OFFCURVE",
"842 230 CURVE SMOOTH",
"837 230 OFFCURVE",
"832 230 OFFCURVE",
"827 229 CURVE",
"826 227 OFFCURVE",
"769 218 OFFCURVE",
"752 216 CURVE SMOOTH",
"724 212 OFFCURVE",
"698 209 OFFCURVE",
"674 209 CURVE SMOOTH",
"451 209 OFFCURVE",
"405 388 OFFCURVE",
"393 462 CURVE SMOOTH",
"389 488 OFFCURVE",
"387 511 OFFCURVE",
"387 532 CURVE SMOOTH",
"387 705 OFFCURVE",
"506 743 OFFCURVE",
"506 743 CURVE SMOOTH",
"506 743 OFFCURVE",
"659 715 OFFCURVE",
"655 578 CURVE",
"668 567 OFFCURVE",
"685 561 OFFCURVE",
"704 561 CURVE SMOOTH",
"755 561 OFFCURVE",
"816 602 OFFCURVE",
"816 685 CURVE SMOOTH",
"816 715 OFFCURVE",
"808 739 OFFCURVE",
"795 759 CURVE SMOOTH",
"756 819 OFFCURVE",
"668 838 OFFCURVE",
"587 838 CURVE SMOOTH",
"558 838 OFFCURVE",
"530 836 OFFCURVE",
"505 832 CURVE SMOOTH",
"316 802 OFFCURVE",
"169 669 OFFCURVE",
"169 494 CURVE SMOOTH",
"169 478 OFFCURVE",
"170 460 OFFCURVE",
"173 443 CURVE SMOOTH",
"205 238 OFFCURVE",
"317 145 OFFCURVE",
"317 145 CURVE",
"302 152 OFFCURVE",
"285 155 OFFCURVE",
"267 155 CURVE SMOOTH",
"204 155 OFFCURVE",
"133 116 OFFCURVE",
"133 54 CURVE SMOOTH",
"133 32 OFFCURVE",
"141 8 OFFCURVE",
"161 -18 CURVE"
);
}
);
width = 1042;
}
);
unicode = 0621;
},
{
glyphname = uni0627;
lastChange = "2015-05-24 04:35:50 +0000";
layers = (
{
anchors = (
{
name = bottom;
position = "{299, -130}";
},
{
name = top;
position = "{242, 1694}";
}
);
layerId = "66C82CE7-ECCF-480D-AAE6-CD3075A06AEF";
name = Regular;
paths = (
{
closed = 1;
nodes = (
"384 0 OFFCURVE",
"389 59 OFFCURVE",
"389 130 CURVE SMOOTH",
"388 1335 LINE SMOOTH",
"388 1475 OFFCURVE",
"314 1556 OFFCURVE",
"242 1556 CURVE SMOOTH",
"165 1556 OFFCURVE",
"134 1543 OFFCURVE",
"100 1508 CURVE",
"124 1492 OFFCURVE",
"145 1463 OFFCURVE",
"165 1424 CURVE SMOOTH",
"185 1383 OFFCURVE",
"207 1333 OFFCURVE",
"207 1262 CURVE SMOOTH",
"207 130 LINE SMOOTH",
"207 58 OFFCURVE",
"212 0 OFFCURVE",
"298 0 CURVE SMOOTH"
);
}
);
width = 489;
}
);
unicode = 0627;
},
{
glyphname = uni0627.fina;
lastChange = "2015-05-24 04:35:50 +0000";
layers = (
{
anchors = (
{
name = bottom;
position = "{299, -130}";
},
{
name = top;
position = "{242, 1694}";
}
);
layerId = "66C82CE7-ECCF-480D-AAE6-CD3075A06AEF";
name = Regular;
paths = (
{
closed = 1;
nodes = (
"662 0 LINE SMOOTH",
"667 0 OFFCURVE",
"670 4 OFFCURVE",
"670 7 CURVE SMOOTH",
"670 115 LINE SMOOTH",
"670 118 OFFCURVE",
"667 121 OFFCURVE",
"662 121 CURVE SMOOTH",
"569 121 LINE SMOOTH",
"445 121 OFFCURVE",
"389 248 OFFCURVE",
"389 360 CURVE",
"388 1335 LINE SMOOTH",
"388 1475 OFFCURVE",
"314 1556 OFFCURVE",
"242 1556 CURVE SMOOTH",
"165 1556 OFFCURVE",
"134 1543 OFFCURVE",
"100 1508 CURVE",
"124 1492 OFFCURVE",
"145 1463 OFFCURVE",
"165 1424 CURVE SMOOTH",
"185 1383 OFFCURVE",
"207 1333 OFFCURVE",
"207 1262 CURVE SMOOTH",
"206 396 LINE SMOOTH",
"206 118 OFFCURVE",
"350 0 OFFCURVE",
"515 0 CURVE SMOOTH"
);
}
);
width = 630;
}
);
unicode = FE8E;
},
{
glyphname = uni062D;
lastChange = "2015-05-24 04:35:50 +0000";
layers = (
{
anchors = (
{
name = bottom;
position = "{525, -621}";
},
{
name = center;
position = "{525, 912}";
},
{
name = top;
position = "{525, 1200}";
}
);
layerId = "66C82CE7-ECCF-480D-AAE6-CD3075A06AEF";
name = Regular;
paths = (
{
closed = 1;
nodes = (
"412 -593 OFFCURVE",
"446 -572 OFFCURVE",
"465 -554 CURVE",
"315 -428 OFFCURVE",
"276 -223 OFFCURVE",
"276 0 CURVE",
"720 0 LINE SMOOTH",
"1029 0 OFFCURVE",
"1185 261 OFFCURVE",
"1185 528 CURVE SMOOTH",
"1185 755 OFFCURVE",
"1042 904 OFFCURVE",
"859 977 CURVE SMOOTH",
"754 1020 OFFCURVE",
"633 1037 OFFCURVE",
"526 1037 CURVE SMOOTH",
"465 1037 OFFCURVE",
"388 1029 OFFCURVE",
"327 1029 CURVE SMOOTH",
"268 1029 OFFCURVE",
"204 1065 OFFCURVE",
"188 1080 CURVE",
"188 1067 LINE SMOOTH",
"188 1001 OFFCURVE",
"211 913 OFFCURVE",
"336 913 CURVE SMOOTH",
"373 913 OFFCURVE",
"420 915 OFFCURVE",
"473 915 CURVE SMOOTH",
"687 915 OFFCURVE",
"985 881 OFFCURVE",
"985 537 CURVE SMOOTH",
"985 122 OFFCURVE",
"805 121 OFFCURVE",
"575 121 CURVE SMOOTH",
"359 121 LINE SMOOTH",
"193 121 OFFCURVE",
"100 15 OFFCURVE",
"100 -87 CURVE SMOOTH",
"100 -286 OFFCURVE",
"143 -593 OFFCURVE",
"351 -593 CURVE SMOOTH"
);
}
);
width = 1285;
}
);
unicode = 062D;
},
{
glyphname = uni062D.init;
lastChange = "2015-05-24 04:35:50 +0000";
layers = (
{
anchors = (
{
name = bottom;
position = "{425, -130}";
},
{
name = center;
position = "{602, 912}";
},
{
name = top;
position = "{425, 1200}";
}
);
layerId = "66C82CE7-ECCF-480D-AAE6-CD3075A06AEF";
name = Regular;
paths = (
{
closed = 1;
nodes = (
"626 0 LINE SMOOTH",
"935 0 OFFCURVE",
"1091 260 OFFCURVE",
"1091 528 CURVE SMOOTH",
"1091 754 OFFCURVE",
"948 904 OFFCURVE",
"765 978 CURVE SMOOTH",
"660 1021 OFFCURVE",
"539 1038 OFFCURVE",
"432 1038 CURVE SMOOTH",
"371 1038 OFFCURVE",
"293 1029 OFFCURVE",
"233 1029 CURVE SMOOTH",
"174 1029 OFFCURVE",
"110 1066 OFFCURVE",
"94 1080 CURVE",
"91 1014 OFFCURVE",
"108 913 OFFCURVE",
"242 913 CURVE SMOOTH",
"417 914 LINE SMOOTH",
"620 914 OFFCURVE",
"890 859 OFFCURVE",
"890 536 CURVE SMOOTH",
"890 122 OFFCURVE",
"711 121 OFFCURVE",
"481 121 CURVE SMOOTH",
"-34 121 LINE SMOOTH",
"-38 121 OFFCURVE",
"-40 118 OFFCURVE",
"-40 115 CURVE SMOOTH",
"-40 7 LINE SMOOTH",
"-40 4 OFFCURVE",
"-38 0 OFFCURVE",
"-34 0 CURVE SMOOTH"
);
}
);
width = 1191;
}
);
unicode = FEA3;
},
{
glyphname = uni062D.medi;
lastChange = "2015-05-24 04:35:50 +0000";
layers = (
{
anchors = (
{
name = bottom;
position = "{425, -130}";
},
{
name = center;
position = "{599, 912}";
},
{
name = top;
position = "{425, 1200}";
}
);
layerId = "66C82CE7-ECCF-480D-AAE6-CD3075A06AEF";
name = Regular;
paths = (
{
closed = 1;
nodes = (
"626 0 LINE SMOOTH",
"710 0 OFFCURVE",
"782 20 OFFCURVE",
"844 53 CURVE",
"889 20 OFFCURVE",
"941 0 OFFCURVE",
"1034 0 CURVE SMOOTH",
"1232 0 LINE SMOOTH",
"1235 0 OFFCURVE",
"1238 4 OFFCURVE",
"1238 7 CURVE SMOOTH",
"1238 115 LINE SMOOTH",
"1238 118 OFFCURVE",
"1235 121 OFFCURVE",
"1232 121 CURVE SMOOTH",
"935 121 LINE",
"1038 222 OFFCURVE",
"1091 374 OFFCURVE",
"1091 529 CURVE SMOOTH",
"1091 755 OFFCURVE",
"948 905 OFFCURVE",
"765 979 CURVE SMOOTH",
"660 1022 OFFCURVE",
"539 1038 OFFCURVE",
"432 1038 CURVE SMOOTH",
"371 1038 OFFCURVE",
"293 1030 OFFCURVE",
"233 1030 CURVE SMOOTH",
"174 1030 OFFCURVE",
"110 1066 OFFCURVE",
"94 1080 CURVE",
"91 1015 OFFCURVE",
"108 913 OFFCURVE",
"242 913 CURVE SMOOTH",
"417 914 LINE SMOOTH",
"620 914 OFFCURVE",
"890 860 OFFCURVE",
"890 537 CURVE SMOOTH",
"890 122 OFFCURVE",
"711 121 OFFCURVE",
"481 121 CURVE SMOOTH",
"-34 121 LINE SMOOTH",
"-38 121 OFFCURVE",
"-40 118 OFFCURVE",
"-40 116 CURVE SMOOTH",
"-40 8 LINE SMOOTH",
"-40 5 OFFCURVE",
"-38 0 OFFCURVE",
"-34 0 CURVE SMOOTH"
);
}
);
width = 1198;
}
);
unicode = FEA4;
},
{
glyphname = uni062D.fina;
lastChange = "2015-07-06 13:46:24 +0000";
layers = (
{
anchors = (
{
name = bottom;
position = "{524, -621}";
},
{
name = center;
position = "{637, 912}";
},
{
name = top;
position = "{524, 1200}";
}
);
layerId = "66C82CE7-ECCF-480D-AAE6-CD3075A06AEF";
name = Regular;
paths = (
{
closed = 1;
nodes = (
"410 -592 OFFCURVE",
"448 -570 OFFCURVE",
"465 -554 CURVE",
"315 -428 OFFCURVE",
"276 -223 OFFCURVE",
"276 0 CURVE",
"720 0 LINE SMOOTH",
"806 0 OFFCURVE",
"879 20 OFFCURVE",
"941 55 CURVE",
"987 22 OFFCURVE",
"1039 0 OFFCURVE",
"1132 0 CURVE SMOOTH",
"1279 0 LINE SMOOTH",
"1282 0 OFFCURVE",
"1286 4 OFFCURVE",
"1286 7 CURVE SMOOTH",
"1286 115 LINE SMOOTH",
"1286 118 OFFCURVE",
"1282 121 OFFCURVE",
"1279 121 CURVE SMOOTH",
"1031 121 LINE",
"1135 223 OFFCURVE",
"1185 383 OFFCURVE",
"1185 523 CURVE SMOOTH",
"1185 758 OFFCURVE",
"1044 905 OFFCURVE",
"859 979 CURVE SMOOTH",
"746 1024 OFFCURVE",
"628 1038 OFFCURVE",
"532 1038 CURVE SMOOTH",
"464 1038 OFFCURVE",
"376 1031 OFFCURVE",
"339 1031 CURVE SMOOTH",
"254 1031 OFFCURVE",
"203 1069 OFFCURVE",
"188 1081 CURVE",
"185 1015 OFFCURVE",
"202 914 OFFCURVE",
"336 914 CURVE SMOOTH",
"511 914 LINE SMOOTH",
"856 914 OFFCURVE",
"985 779 OFFCURVE",
"985 493 CURVE SMOOTH",
"985 122 OFFCURVE",
"768 121 OFFCURVE",
"575 121 CURVE SMOOTH",
"359 121 LINE SMOOTH",
"193 121 OFFCURVE",
"100 43 OFFCURVE",
"100 -142 CURVE SMOOTH",
"100 -268 OFFCURVE",
"143 -592 OFFCURVE",
"355 -592 CURVE SMOOTH"
);
}
);
width = 1246;
}
);
unicode = FEA2;
},
{
glyphname = uni062F;
lastChange = "2015-05-24 04:35:50 +0000";
layers = (
{
anchors = (
{
name = bottom;
position = "{453, -130}";
},
{
name = top;
position = "{453, 1200}";
}
);
layerId = "66C82CE7-ECCF-480D-AAE6-CD3075A06AEF";
name = Regular;
paths = (
{
closed = 1;
nodes = (
"459 0 LINE SMOOTH",
"781 0 OFFCURVE",
"894 358 OFFCURVE",
"894 565 CURVE SMOOTH",
"894 763 OFFCURVE",
"770 1038 OFFCURVE",
"451 1038 CURVE SMOOTH",
"273 1038 OFFCURVE",
"132 967 OFFCURVE",
"132 850 CURVE SMOOTH",
"132 838 OFFCURVE",
"134 826 OFFCURVE",
"137 813 CURVE SMOOTH",
"151 752 OFFCURVE",
"194 737 OFFCURVE",
"233 737 CURVE SMOOTH",
"260 737 OFFCURVE",
"286 745 OFFCURVE",
"294 748 CURVE",
"294 892 OFFCURVE",
"360 950 OFFCURVE",
"458 980 CURVE",
"601 980 OFFCURVE",
"709 771 OFFCURVE",
"709 560 CURVE SMOOTH",
"709 342 OFFCURVE",
"595 121 OFFCURVE",
"288 121 CURVE SMOOTH",
"179 121 LINE SMOOTH",
"117 121 OFFCURVE",
"100 92 OFFCURVE",
"100 60 CURVE SMOOTH",
"100 30 OFFCURVE",
"113 0 OFFCURVE",
"156 0 CURVE SMOOTH"
);
}
);
width = 994;
}
);
unicode = 062F;
},
{
glyphname = uni0631;
lastChange = "2015-05-24 04:35:50 +0000";
layers = (
{
anchors = (
{
name = bottom;
position = "{392, -621}";
},
{
name = top;
position = "{393, 1200}";
}
);
layerId = "66C82CE7-ECCF-480D-AAE6-CD3075A06AEF";
name = Regular;
paths = (
{
closed = 1;
nodes = (
"435 -508 OFFCURVE",
"492 -268 OFFCURVE",
"492 -161 CURVE SMOOTH",
"492 947 LINE SMOOTH",
"492 1016 OFFCURVE",
"442 1038 OFFCURVE",
"392 1038 CURVE SMOOTH",
"339 1038 OFFCURVE",
"292 1017 OFFCURVE",
"292 946 CURVE SMOOTH",
"292 -188 LINE SMOOTH",
"292 -273 OFFCURVE",
"223 -410 OFFCURVE",
"52 -410 CURVE SMOOTH",
"2 -410 OFFCURVE",
"-49 -406 OFFCURVE",
"-99 -393 CURVE",
"-90 -405 OFFCURVE",
"-14 -508 OFFCURVE",
"162 -508 CURVE SMOOTH"
);
}
);
width = 592;
}
);
unicode = 0631;
},
{
glyphname = uni0631.fina;
lastChange = "2015-05-24 04:35:50 +0000";
layers = (
{
anchors = (
{
name = bottom;
position = "{392, -621}";
},
{
name = top;
position = "{393, 1200}";
}
);
layerId = "66C82CE7-ECCF-480D-AAE6-CD3075A06AEF";
name = Regular;
paths = (
{
closed = 1;
nodes = (
"435 -508 OFFCURVE",
"492 -268 OFFCURVE",
"492 -161 CURVE SMOOTH",
"492 53 LINE",
"539 20 OFFCURVE",
"589 0 OFFCURVE",
"682 0 CURVE SMOOTH",
"749 0 LINE SMOOTH",
"752 0 OFFCURVE",
"756 4 OFFCURVE",
"756 7 CURVE SMOOTH",
"756 115 LINE SMOOTH",
"756 118 OFFCURVE",
"752 121 OFFCURVE",
"749 121 CURVE SMOOTH",
"492 121 LINE",
"492 947 LINE SMOOTH",
"492 1016 OFFCURVE",
"443 1038 OFFCURVE",
"393 1038 CURVE SMOOTH",
"339 1038 OFFCURVE",
"293 1017 OFFCURVE",
"293 946 CURVE SMOOTH",
"293 -188 LINE SMOOTH",
"293 -273 OFFCURVE",
"224 -410 OFFCURVE",
"53 -410 CURVE SMOOTH",
"3 -410 OFFCURVE",
"-48 -406 OFFCURVE",
"-98 -393 CURVE",
"-89 -405 OFFCURVE",
"-15 -508 OFFCURVE",
"162 -508 CURVE SMOOTH"
);
}
);
width = 736;
}
);
unicode = FEAE;
},
{
glyphname = uni0633;
lastChange = "2015-05-24 04:35:50 +0000";
layers = (
{
anchors = (
{
name = bottom;
position = "{1698, -130}";
},
{
name = top;
position = "{1698, 1200}";
}
);
layerId = "66C82CE7-ECCF-480D-AAE6-CD3075A06AEF";
name = Regular;
paths = (
{
closed = 1;
nodes = (
"858 -508 LINE SMOOTH",
"1083 -508 OFFCURVE",
"1179 -283 OFFCURVE",
"1179 -50 CURVE SMOOTH",
"1179 67 LINE",
"1233 24 OFFCURVE",
"1281 0 OFFCURVE",
"1367 0 CURVE SMOOTH",
"1454 0 OFFCURVE",
"1536 60 OFFCURVE",
"1582 117 CURVE",
"1669 29 OFFCURVE",
"1773 2 OFFCURVE",
"1931 0 CURVE SMOOTH",
"2051 0 LINE SMOOTH",
"2308 0 OFFCURVE",
"2470 243 OFFCURVE",
"2470 532 CURVE SMOOTH",
"2470 716 OFFCURVE",
"2441 1037 OFFCURVE",
"2215 1037 CURVE SMOOTH",
"2163 1037 OFFCURVE",
"2123 1017 OFFCURVE",
"2104 998 CURVE",
"2254 872 OFFCURVE",
"2294 644 OFFCURVE",
"2296 518 CURVE SMOOTH",
"2296 135 OFFCURVE",
"2098 121 OFFCURVE",
"2049 121 CURVE SMOOTH",
"1948 121 LINE SMOOTH",
"1820 121 OFFCURVE",
"1802 287 OFFCURVE",
"1802 382 CURVE SMOOTH",
"1802 881 LINE SMOOTH",
"1802 945 OFFCURVE",
"1768 975 OFFCURVE",
"1704 975 CURVE SMOOTH",
"1650 975 OFFCURVE",
"1608 939 OFFCURVE",
"1608 882 CURVE SMOOTH",
"1607 383 LINE SMOOTH",
"1607 295 OFFCURVE",
"1583 121 OFFCURVE",
"1438 121 CURVE SMOOTH",
"1260 121 LINE SMOOTH",
"1175 121 OFFCURVE",
"1175 211 OFFCURVE",
"1175 334 CURVE SMOOTH",
"1175 836 LINE SMOOTH",
"1175 905 OFFCURVE",
"1130 928 OFFCURVE",
"1080 928 CURVE SMOOTH",
"1026 928 OFFCURVE",
"976 906 OFFCURVE",
"976 836 CURVE SMOOTH",
"977 -63 LINE",
"977 -52 LINE SMOOTH",
"977 -172 OFFCURVE",
"973 -388 OFFCURVE",
"804 -388 CURVE SMOOTH",
"553 -388 LINE SMOOTH",
"368 -388 OFFCURVE",
"307 -195 OFFCURVE",
"307 9 CURVE SMOOTH",
"307 172 OFFCURVE",
"357 364 OFFCURVE",
"499 496 CURVE",
"479 514 OFFCURVE",
"434 536 OFFCURVE",
"382 536 CURVE SMOOTH",
"273 536 OFFCURVE",
"134 442 OFFCURVE",
"134 30 CURVE SMOOTH",
"134 -244 OFFCURVE",
"270 -508 OFFCURVE",
"567 -508 CURVE SMOOTH"
);
}
);
width = 2603;
}
);
unicode = 0633;
},
{
glyphname = uni0633.init;
lastChange = "2015-05-24 04:35:50 +0000";
layers = (
{
anchors = (
{
name = bottom;
position = "{994, -130}";
},
{
name = top;
position = "{994, 1200}";
}
);
layerId = "66C82CE7-ECCF-480D-AAE6-CD3075A06AEF";
name = Regular;
paths = (
{
closed = 1;
nodes = (
"140 0 LINE SMOOTH",
"221 0 OFFCURVE",
"287 26 OFFCURVE",
"343 73 CURVE",
"403 25 OFFCURVE",
"477 0 OFFCURVE",
"565 0 CURVE SMOOTH",
"658 0 LINE SMOOTH",
"761 0 OFFCURVE",
"825 59 OFFCURVE",
"871 117 CURVE",
"958 29 OFFCURVE",
"1062 1 OFFCURVE",
"1220 0 CURVE SMOOTH",
"1340 0 LINE SMOOTH",
"1597 0 OFFCURVE",
"1759 242 OFFCURVE",
"1759 533 CURVE SMOOTH",
"1759 716 OFFCURVE",
"1730 1038 OFFCURVE",
"1504 1038 CURVE SMOOTH",
"1452 1038 OFFCURVE",
"1412 1018 OFFCURVE",
"1393 999 CURVE",
"1543 873 OFFCURVE",
"1583 644 OFFCURVE",
"1585 518 CURVE SMOOTH",
"1585 134 OFFCURVE",
"1387 121 OFFCURVE",
"1338 121 CURVE SMOOTH",
"1237 121 LINE SMOOTH",
"1109 121 OFFCURVE",
"1092 286 OFFCURVE",
"1092 383 CURVE SMOOTH",
"1092 881 LINE SMOOTH",
"1092 945 OFFCURVE",
"1057 976 OFFCURVE",
"994 976 CURVE SMOOTH",
"939 976 OFFCURVE",
"897 940 OFFCURVE",
"897 882 CURVE SMOOTH",
"896 384 LINE SMOOTH",
"896 295 OFFCURVE",
"872 121 OFFCURVE",
"727 121 CURVE SMOOTH",
"549 121 LINE SMOOTH",
"464 121 OFFCURVE",
"464 211 OFFCURVE",
"464 334 CURVE SMOOTH",
"464 836 LINE SMOOTH",
"464 905 OFFCURVE",
"419 928 OFFCURVE",
"368 928 CURVE SMOOTH",
"314 928 OFFCURVE",
"264 906 OFFCURVE",
"264 836 CURVE SMOOTH",
"263 319 LINE SMOOTH",
"263 222 OFFCURVE",
"239 121 OFFCURVE",
"16 121 CURVE SMOOTH",
"-33 121 LINE SMOOTH",
"-37 121 OFFCURVE",
"-40 117 OFFCURVE",
"-40 114 CURVE SMOOTH",
"-40 6 LINE SMOOTH",
"-40 3 OFFCURVE",
"-37 0 OFFCURVE",
"-33 0 CURVE SMOOTH"
);
}
);
width = 1892;
}
);
unicode = FEB3;
},
{
glyphname = uni0633.medi;
lastChange = "2015-05-24 04:35:50 +0000";
layers = (
{
anchors = (
{
name = bottom;
position = "{994, -130}";
},
{
name = top;
position = "{994, 1200}";
}
);
layerId = "66C82CE7-ECCF-480D-AAE6-CD3075A06AEF";
name = Regular;
paths = (
{
closed = 1;
nodes = (
"139 0 LINE SMOOTH",
"220 0 OFFCURVE",
"286 27 OFFCURVE",
"342 74 CURVE",
"402 26 OFFCURVE",
"476 0 OFFCURVE",
"564 0 CURVE SMOOTH",
"657 0 LINE SMOOTH",
"760 0 OFFCURVE",
"824 60 OFFCURVE",
"870 118 CURVE",
"957 30 OFFCURVE",
"1061 2 OFFCURVE",
"1219 0 CURVE SMOOTH",
"1339 0 LINE SMOOTH",
"1412 0 OFFCURVE",
"1477 20 OFFCURVE",
"1532 54 CURVE",
"1579 20 OFFCURVE",
"1630 0 OFFCURVE",
"1724 0 CURVE SMOOTH",
"2037 0 LINE SMOOTH",
"2040 0 OFFCURVE",
"2043 3 OFFCURVE",
"2043 7 CURVE SMOOTH",
"2043 115 LINE SMOOTH",
"2043 118 OFFCURVE",
"2040 121 OFFCURVE",
"2037 121 CURVE SMOOTH",
"1613 121 LINE",
"1706 220 OFFCURVE",
"1758 369 OFFCURVE",
"1758 534 CURVE SMOOTH",
"1758 717 OFFCURVE",
"1729 1038 OFFCURVE",
"1503 1038 CURVE SMOOTH",
"1451 1038 OFFCURVE",
"1411 1018 OFFCURVE",
"1392 999 CURVE",
"1542 872 OFFCURVE",
"1582 645 OFFCURVE",
"1584 519 CURVE SMOOTH",
"1584 135 OFFCURVE",
"1386 121 OFFCURVE",
"1337 121 CURVE SMOOTH",
"1236 121 LINE SMOOTH",
"1108 121 OFFCURVE",
"1090 287 OFFCURVE",
"1090 383 CURVE SMOOTH",
"1090 882 LINE SMOOTH",
"1090 946 OFFCURVE",
"1056 976 OFFCURVE",
"992 976 CURVE SMOOTH",
"938 976 OFFCURVE",
"896 940 OFFCURVE",
"896 883 CURVE SMOOTH",
"895 384 LINE SMOOTH",
"895 295 OFFCURVE",
"871 121 OFFCURVE",
"726 121 CURVE SMOOTH",
"548 121 LINE SMOOTH",
"463 121 OFFCURVE",
"463 211 OFFCURVE",
"463 335 CURVE SMOOTH",
"463 837 LINE SMOOTH",
"463 906 OFFCURVE",
"418 929 OFFCURVE",
"367 929 CURVE SMOOTH",
"313 929 OFFCURVE",
"263 907 OFFCURVE",
"263 837 CURVE SMOOTH",
"262 319 LINE SMOOTH",
"262 223 OFFCURVE",
"238 121 OFFCURVE",
"15 121 CURVE SMOOTH",
"-34 121 LINE SMOOTH",
"-38 121 OFFCURVE",
"-40 118 OFFCURVE",
"-40 115 CURVE SMOOTH",
"-40 7 LINE SMOOTH",
"-40 3 OFFCURVE",
"-38 0 OFFCURVE",
"-34 0 CURVE SMOOTH"
);
}
);
width = 2003;
}
);
unicode = FEB4;
},
{
glyphname = uni0633.fina;
lastChange = "2015-05-24 04:35:50 +0000";
layers = (
{
anchors = (
{
name = bottom;
position = "{1698, -130}";
},
{
name = top;
position = "{1698, 1200}";
}
);
layerId = "66C82CE7-ECCF-480D-AAE6-CD3075A06AEF";
name = Regular;
paths = (
{
closed = 1;
nodes = (
"858 -507 LINE SMOOTH",
"1084 -507 OFFCURVE",
"1181 -283 OFFCURVE",
"1181 -49 CURVE SMOOTH",
"1181 67 LINE",
"1234 24 OFFCURVE",
"1282 0 OFFCURVE",
"1368 0 CURVE SMOOTH",
"1455 0 OFFCURVE",
"1537 60 OFFCURVE",
"1583 118 CURVE",
"1670 30 OFFCURVE",
"1774 2 OFFCURVE",
"1932 0 CURVE SMOOTH",
"2052 0 LINE SMOOTH",
"2124 0 OFFCURVE",
"2189 18 OFFCURVE",
"2245 53 CURVE",
"2291 20 OFFCURVE",
"2342 0 OFFCURVE",
"2435 0 CURVE SMOOTH",
"2747 0 LINE SMOOTH",
"2750 0 OFFCURVE",
"2754 4 OFFCURVE",
"2754 7 CURVE SMOOTH",
"2754 115 LINE SMOOTH",
"2754 118 OFFCURVE",
"2750 121 OFFCURVE",
"2747 121 CURVE SMOOTH",
"2327 121 LINE",
"2418 219 OFFCURVE",
"2470 369 OFFCURVE",
"2470 533 CURVE SMOOTH",
"2470 717 OFFCURVE",
"2441 1037 OFFCURVE",
"2215 1037 CURVE SMOOTH",
"2163 1037 OFFCURVE",
"2123 1017 OFFCURVE",
"2104 998 CURVE",
"2254 871 OFFCURVE",
"2294 645 OFFCURVE",
"2296 519 CURVE SMOOTH",
"2296 136 OFFCURVE",
"2098 121 OFFCURVE",
"2050 121 CURVE SMOOTH",
"1949 121 LINE SMOOTH",
"1821 121 OFFCURVE",
"1803 287 OFFCURVE",
"1803 382 CURVE SMOOTH",
"1803 882 LINE SMOOTH",
"1803 946 OFFCURVE",
"1769 975 OFFCURVE",
"1705 975 CURVE SMOOTH",
"1651 975 OFFCURVE",
"1609 939 OFFCURVE",
"1609 883 CURVE SMOOTH",
"1608 383 LINE SMOOTH",
"1608 294 OFFCURVE",
"1584 121 OFFCURVE",
"1439 121 CURVE SMOOTH",
"1261 121 LINE SMOOTH",
"1176 121 OFFCURVE",
"1176 210 OFFCURVE",
"1176 334 CURVE SMOOTH",
"1176 837 LINE SMOOTH",
"1176 906 OFFCURVE",
"1131 929 OFFCURVE",
"1080 929 CURVE SMOOTH",
"1026 929 OFFCURVE",
"976 907 OFFCURVE",
"976 837 CURVE SMOOTH",
"977 -62 LINE",
"977 -51 LINE SMOOTH",
"977 -171 OFFCURVE",
"973 -387 OFFCURVE",
"804 -387 CURVE SMOOTH",
"553 -387 LINE SMOOTH",
"369 -387 OFFCURVE",
"308 -194 OFFCURVE",
"308 10 CURVE SMOOTH",
"308 172 OFFCURVE",
"358 364 OFFCURVE",
"500 497 CURVE",
"480 515 OFFCURVE",
"436 536 OFFCURVE",
"384 536 CURVE SMOOTH",
"275 536 OFFCURVE",
"135 443 OFFCURVE",
"135 31 CURVE SMOOTH",
"135 -243 OFFCURVE",
"271 -507 OFFCURVE",
"567 -507 CURVE SMOOTH"
);
}
);
width = 2714;
}
);
unicode = FEB2;
},
{
glyphname = uni0635;
lastChange = "2015-05-24 04:35:50 +0000";
layers = (
{
anchors = (
{
name = bottom;
position = "{1614, -130}";
},
{
name = top;
position = "{1614, 1200}";
}
);
layerId = "66C82CE7-ECCF-480D-AAE6-CD3075A06AEF";
name = Regular;
paths = (
{
closed = 1;
nodes = (
"858 -508 LINE SMOOTH",
"1084 -508 OFFCURVE",
"1180 -283 OFFCURVE",
"1180 -50 CURVE SMOOTH",
"1180 67 LINE",
"1233 24 OFFCURVE",
"1284 2 OFFCURVE",
"1364 0 CURVE SMOOTH",
"1822 0 LINE SMOOTH",
"2229 0 OFFCURVE",
"2229 307 OFFCURVE",
"2229 519 CURVE SMOOTH",
"2229 770 OFFCURVE",
"2021 1037 OFFCURVE",
"1661 1037 CURVE SMOOTH",
"1250 1037 OFFCURVE",
"1160 774 OFFCURVE",
"1159 772 CURVE",
"1123 890 OFFCURVE",
"1057 924 OFFCURVE",
"996 924 CURVE SMOOTH",
"940 924 OFFCURVE",
"888 896 OFFCURVE",
"867 876 CURVE",
"893 855 OFFCURVE",
"976 763 OFFCURVE",
"976 668 CURVE SMOOTH",
"977 556 OFFCURVE",
"977 -69 OFFCURVE",
"977 -69 CURVE SMOOTH",
"977 -160 OFFCURVE",
"977 -386 OFFCURVE",
"804 -386 CURVE SMOOTH",
"553 -386 LINE SMOOTH",
"368 -386 OFFCURVE",
"307 -195 OFFCURVE",
"307 9 CURVE SMOOTH",
"307 172 OFFCURVE",
"357 365 OFFCURVE",
"499 497 CURVE",
"479 515 OFFCURVE",
"434 537 OFFCURVE",
"383 537 CURVE SMOOTH",
"274 537 OFFCURVE",
"134 443 OFFCURVE",
"134 30 CURVE SMOOTH",
"134 -244 OFFCURVE",
"270 -508 OFFCURVE",
"567 -508 CURVE SMOOTH"
);
},
{
closed = 1;
nodes = (
"1218 121 OFFCURVE",
"1176 280 OFFCURVE",
"1176 350 CURVE SMOOTH",
"1176 687 LINE",
"1217 739 OFFCURVE",
"1384 916 OFFCURVE",
"1627 916 CURVE SMOOTH",
"1968 916 OFFCURVE",
"2028 626 OFFCURVE",
"2028 468 CURVE SMOOTH",
"2028 328 OFFCURVE",
"1978 121 OFFCURVE",
"1796 121 CURVE SMOOTH",
"1349 121 LINE SMOOTH"
);
}
);
width = 2362;
}
);
unicode = 0635;
},
{
glyphname = uni0635.init;
lastChange = "2015-05-24 04:35:54 +0000";
layers = (
{
anchors = (
{
name = bottom;
position = "{868, -130}";
},
{
name = top;
position = "{868, 1200}";
}
);
layerId = "66C82CE7-ECCF-480D-AAE6-CD3075A06AEF";
name = Regular;
paths = (
{
closed = 1;
nodes = (
"422 0 LINE",
"422 67 LINE",
"475 24 OFFCURVE",
"526 2 OFFCURVE",
"606 0 CURVE SMOOTH",
"1065 0 LINE SMOOTH",
"1472 0 OFFCURVE",
"1472 307 OFFCURVE",
"1472 519 CURVE SMOOTH",
"1472 771 OFFCURVE",
"1265 1038 OFFCURVE",
"904 1038 CURVE SMOOTH",
"492 1038 OFFCURVE",
"402 774 OFFCURVE",
"401 772 CURVE",
"366 891 OFFCURVE",
"299 926 OFFCURVE",
"238 926 CURVE SMOOTH",
"182 926 OFFCURVE",
"130 897 OFFCURVE",
"109 877 CURVE",
"135 856 OFFCURVE",
"219 764 OFFCURVE",
"219 668 CURVE SMOOTH",
"219 121 LINE",
"-34 121 LINE SMOOTH",
"-38 121 OFFCURVE",
"-40 118 OFFCURVE",
"-40 115 CURVE SMOOTH",
"-40 7 LINE SMOOTH",
"-40 4 OFFCURVE",
"-38 0 OFFCURVE",
"-34 0 CURVE SMOOTH"
);
},
{
closed = 1;
nodes = (
"460 121 OFFCURVE",
"418 280 OFFCURVE",
"418 349 CURVE SMOOTH",
"418 687 LINE",
"459 739 OFFCURVE",
"626 917 OFFCURVE",
"870 917 CURVE SMOOTH",
"1211 917 OFFCURVE",
"1271 626 OFFCURVE",
"1271 469 CURVE SMOOTH",
"1271 328 OFFCURVE",
"1221 121 OFFCURVE",
"1039 121 CURVE SMOOTH",
"591 121 LINE SMOOTH"
);
}
);
width = 1605;
}
);
unicode = FEBB;
},
{
glyphname = uni0635.medi;
lastChange = "2015-05-24 04:35:54 +0000";
layers = (
{
anchors = (
{
name = bottom;
position = "{867, -130}";
},
{
name = top;
position = "{867, 1200}";
}
);
layerId = "66C82CE7-ECCF-480D-AAE6-CD3075A06AEF";
name = Regular;
paths = (
{
closed = 1;
nodes = (
"420 0 LINE",
"420 67 LINE",
"474 24 OFFCURVE",
"525 2 OFFCURVE",
"605 0 CURVE SMOOTH",
"1064 0 LINE SMOOTH",
"1169 0 OFFCURVE",
"1247 21 OFFCURVE",
"1305 55 CURVE",
"1351 22 OFFCURVE",
"1402 0 OFFCURVE",
"1495 0 CURVE SMOOTH",
"1744 0 LINE SMOOTH",
"1747 0 OFFCURVE",
"1752 4 OFFCURVE",
"1752 7 CURVE SMOOTH",
"1752 115 LINE SMOOTH",
"1752 118 OFFCURVE",
"1747 121 OFFCURVE",
"1744 121 CURVE SMOOTH",
"1383 121 LINE",
"1471 230 OFFCURVE",
"1471 392 OFFCURVE",
"1471 519 CURVE SMOOTH",
"1471 771 OFFCURVE",
"1264 1038 OFFCURVE",
"903 1038 CURVE SMOOTH",
"491 1038 OFFCURVE",
"401 774 OFFCURVE",
"400 772 CURVE",
"365 891 OFFCURVE",
"299 925 OFFCURVE",
"238 925 CURVE SMOOTH",
"182 925 OFFCURVE",
"129 896 OFFCURVE",
"108 876 CURVE",
"134 855 OFFCURVE",
"218 763 OFFCURVE",
"218 668 CURVE SMOOTH",
"218 121 LINE",
"-35 121 LINE SMOOTH",
"-39 121 OFFCURVE",
"-40 119 OFFCURVE",
"-40 116 CURVE SMOOTH",
"-40 8 LINE SMOOTH",
"-40 5 OFFCURVE",
"-39 0 OFFCURVE",
"-35 0 CURVE SMOOTH"
);
},
{
closed = 1;
nodes = (
"459 121 OFFCURVE",
"416 280 OFFCURVE",
"416 350 CURVE SMOOTH",
"416 687 LINE",
"457 739 OFFCURVE",
"625 916 OFFCURVE",
"869 916 CURVE SMOOTH",
"1210 916 OFFCURVE",
"1270 626 OFFCURVE",
"1270 468 CURVE SMOOTH",
"1270 328 OFFCURVE",
"1220 121 OFFCURVE",
"1038 121 CURVE SMOOTH",
"590 121 LINE SMOOTH"
);
}
);
width = 1712;
}
);
unicode = FEBC;
},
{
glyphname = uni0635.fina;
lastChange = "2015-05-24 04:35:50 +0000";
layers = (
{
anchors = (
{
name = bottom;
position = "{1614, -130}";
},
{
name = top;
position = "{1614, 1200}";
}
);
layerId = "66C82CE7-ECCF-480D-AAE6-CD3075A06AEF";
name = Regular;
paths = (
{
closed = 1;
nodes = (
"858 -507 LINE SMOOTH",
"1084 -507 OFFCURVE",
"1180 -283 OFFCURVE",
"1180 -49 CURVE SMOOTH",
"1180 67 LINE",
"1234 24 OFFCURVE",
"1284 2 OFFCURVE",
"1364 0 CURVE SMOOTH",
"1824 0 LINE SMOOTH",
"1928 0 OFFCURVE",
"2006 19 OFFCURVE",
"2064 53 CURVE",
"2110 20 OFFCURVE",
"2161 0 OFFCURVE",
"2254 0 CURVE SMOOTH",
"2515 0 LINE SMOOTH",
"2519 0 OFFCURVE",
"2523 4 OFFCURVE",
"2523 7 CURVE SMOOTH",
"2523 115 LINE SMOOTH",
"2523 118 OFFCURVE",
"2519 121 OFFCURVE",
"2515 121 CURVE SMOOTH",
"2143 121 LINE",
"2231 230 OFFCURVE",
"2231 392 OFFCURVE",
"2231 519 CURVE SMOOTH",
"2231 770 OFFCURVE",
"2022 1038 OFFCURVE",
"1662 1038 CURVE SMOOTH",
"1250 1038 OFFCURVE",
"1160 774 OFFCURVE",
"1159 772 CURVE",
"1124 890 OFFCURVE",
"1058 924 OFFCURVE",
"997 924 CURVE SMOOTH",
"941 924 OFFCURVE",
"888 895 OFFCURVE",
"867 875 CURVE",
"893 854 OFFCURVE",
"976 762 OFFCURVE",
"976 668 CURVE SMOOTH",
"977 556 OFFCURVE",
"977 -68 OFFCURVE",
"977 -68 CURVE SMOOTH",
"977 -159 OFFCURVE",
"977 -385 OFFCURVE",
"804 -385 CURVE SMOOTH",
"553 -385 LINE SMOOTH",
"368 -385 OFFCURVE",
"308 -194 OFFCURVE",
"308 10 CURVE SMOOTH",
"308 173 OFFCURVE",
"357 365 OFFCURVE",
"500 498 CURVE",
"480 516 OFFCURVE",
"436 537 OFFCURVE",
"384 537 CURVE SMOOTH",
"274 537 OFFCURVE",
"134 443 OFFCURVE",
"134 31 CURVE SMOOTH",
"134 -243 OFFCURVE",
"270 -507 OFFCURVE",
"567 -507 CURVE SMOOTH"
);
},
{
closed = 1;
nodes = (
"1218 121 OFFCURVE",
"1176 280 OFFCURVE",
"1176 351 CURVE SMOOTH",
"1176 687 LINE",
"1217 739 OFFCURVE",
"1384 915 OFFCURVE",
"1628 915 CURVE SMOOTH",
"1969 915 OFFCURVE",
"2029 626 OFFCURVE",
"2029 467 CURVE SMOOTH",
"2029 328 OFFCURVE",
"1979 121 OFFCURVE",
"1797 121 CURVE SMOOTH",
"1349 121 LINE SMOOTH"
);
}
);
width = 2483;
}
);
unicode = FEBA;
},
{
glyphname = uni0637;
lastChange = "2015-05-24 04:35:50 +0000";
layers = (
{
anchors = (
{
name = bottom;
position = "{842, -130}";
},
{
name = top;
position = "{842, 1660}";
}
);
layerId = "66C82CE7-ECCF-480D-AAE6-CD3075A06AEF";
name = Regular;
paths = (
{
closed = 1;
nodes = (
"1333 0 LINE SMOOTH",
"1713 0 OFFCURVE",
"1750 261 OFFCURVE",
"1750 477 CURVE SMOOTH",
"1750 818 OFFCURVE",
"1495 1038 OFFCURVE",
"1156 1038 CURVE SMOOTH",
"715 1038 OFFCURVE",
"480 559 OFFCURVE",
"480 559 CURVE",
"480 1334 LINE SMOOTH",
"480 1508 OFFCURVE",
"396 1556 OFFCURVE",
"318 1556 CURVE SMOOTH",
"263 1556 OFFCURVE",
"211 1532 OFFCURVE",
"195 1511 CURVE",
"220 1493 OFFCURVE",
"302 1403 OFFCURVE",
"302 1262 CURVE SMOOTH",
"301 121 LINE",
"101 121 LINE SMOOTH",
"69 121 OFFCURVE",
"41 105 OFFCURVE",
"41 63 CURVE SMOOTH",
"41 26 OFFCURVE",
"60 0 OFFCURVE",
"101 0 CURVE SMOOTH"
);
},
{
closed = 1;
nodes = (
"476 306 OFFCURVE",
"764 914 OFFCURVE",
"1180 914 CURVE SMOOTH",
"1456 914 OFFCURVE",
"1544 624 OFFCURVE",
"1544 468 CURVE SMOOTH",
"1544 327 OFFCURVE",
"1509 160 OFFCURVE",
"1387 121 CURVE",
"476 121 LINE"
);
}
);
width = 1884;
}
);
unicode = 0637;
},
{
glyphname = uni0637.init;
lastChange = "2015-05-24 04:35:50 +0000";
layers = (
{
anchors = (
{
name = bottom;
position = "{821, -130}";
},
{
name = top;
position = "{821, 1660}";
}
);
layerId = "66C82CE7-ECCF-480D-AAE6-CD3075A06AEF";
name = Regular;
paths = (
{
closed = 1;
nodes = (
"1250 0 LINE SMOOTH",
"1630 0 OFFCURVE",
"1667 262 OFFCURVE",
"1667 478 CURVE SMOOTH",
"1667 818 OFFCURVE",
"1412 1037 OFFCURVE",
"1073 1037 CURVE SMOOTH",
"633 1037 OFFCURVE",
"398 560 OFFCURVE",
"398 560 CURVE",
"398 1333 LINE SMOOTH",
"398 1507 OFFCURVE",
"314 1556 OFFCURVE",
"237 1556 CURVE SMOOTH",
"181 1556 OFFCURVE",
"129 1531 OFFCURVE",
"113 1510 CURVE",
"138 1492 OFFCURVE",
"220 1402 OFFCURVE",
"220 1262 CURVE SMOOTH",
"219 121 LINE",
"-34 121 LINE SMOOTH",
"-38 121 OFFCURVE",
"-40 118 OFFCURVE",
"-40 115 CURVE SMOOTH",
"-40 7 LINE SMOOTH",
"-40 4 OFFCURVE",
"-38 0 OFFCURVE",
"-34 0 CURVE SMOOTH"
);
},
{
closed = 1;
nodes = (
"394 306 OFFCURVE",
"682 913 OFFCURVE",
"1097 913 CURVE SMOOTH",
"1373 913 OFFCURVE",
"1461 625 OFFCURVE",
"1461 468 CURVE SMOOTH",
"1461 327 OFFCURVE",
"1426 160 OFFCURVE",
"1304 121 CURVE",
"394 121 LINE"
);
}
);
width = 1801;
}
);
unicode = FEC3;
},
{
glyphname = uni0637.medi;
lastChange = "2015-05-24 04:35:50 +0000";
layers = (
{
anchors = (
{
name = bottom;
position = "{820, -130}";
},
{
name = top;
position = "{820, 1660}";
}
);
layerId = "66C82CE7-ECCF-480D-AAE6-CD3075A06AEF";
name = Regular;
paths = (
{
closed = 1;
nodes = (
"1250 0 LINE SMOOTH",
"1353 0 OFFCURVE",
"1432 20 OFFCURVE",
"1491 53 CURVE",
"1536 20 OFFCURVE",
"1587 0 OFFCURVE",
"1679 0 CURVE SMOOTH",
"1942 0 LINE SMOOTH",
"1943 0 OFFCURVE",
"1947 4 OFFCURVE",
"1947 7 CURVE SMOOTH",
"1947 115 LINE SMOOTH",
"1947 118 OFFCURVE",
"1943 121 OFFCURVE",
"1942 121 CURVE SMOOTH",
"1573 121 LINE",
"1655 216 OFFCURVE",
"1667 355 OFFCURVE",
"1667 478 CURVE SMOOTH",
"1667 818 OFFCURVE",
"1412 1037 OFFCURVE",
"1073 1037 CURVE SMOOTH",
"632 1037 OFFCURVE",
"398 560 OFFCURVE",
"398 560 CURVE",
"398 1333 LINE SMOOTH",
"398 1507 OFFCURVE",
"314 1556 OFFCURVE",
"237 1556 CURVE SMOOTH",
"181 1556 OFFCURVE",
"129 1531 OFFCURVE",
"113 1510 CURVE",
"138 1492 OFFCURVE",
"220 1402 OFFCURVE",
"220 1262 CURVE SMOOTH",
"219 121 LINE",
"-34 121 LINE SMOOTH",
"-38 121 OFFCURVE",
"-40 118 OFFCURVE",
"-40 115 CURVE SMOOTH",
"-40 7 LINE SMOOTH",
"-40 4 OFFCURVE",
"-38 0 OFFCURVE",
"-34 0 CURVE SMOOTH"
);
},
{
closed = 1;
nodes = (
"394 306 OFFCURVE",
"681 912 OFFCURVE",
"1097 912 CURVE SMOOTH",
"1373 912 OFFCURVE",
"1461 625 OFFCURVE",
"1461 468 CURVE SMOOTH",
"1461 327 OFFCURVE",
"1426 160 OFFCURVE",
"1304 121 CURVE",
"394 121 LINE"
);
}
);
width = 1907;
}
);
unicode = FEC4;
},
{
glyphname = uni0637.fina;
lastChange = "2015-05-24 04:35:50 +0000";
layers = (
{
anchors = (
{
name = bottom;
position = "{842, -130}";
},
{
name = top;
position = "{842, 1660}";
}
);
layerId = "66C82CE7-ECCF-480D-AAE6-CD3075A06AEF";
name = Regular;
paths = (
{
closed = 1;
nodes = (
"1291 0 LINE SMOOTH",
"1395 0 OFFCURVE",
"1472 20 OFFCURVE",
"1532 53 CURVE",
"1577 20 OFFCURVE",
"1629 0 OFFCURVE",
"1721 0 CURVE SMOOTH",
"1984 0 LINE SMOOTH",
"1988 0 OFFCURVE",
"1990 2 OFFCURVE",
"1990 7 CURVE SMOOTH",
"1990 115 LINE SMOOTH",
"1990 119 OFFCURVE",
"1988 121 OFFCURVE",
"1984 121 CURVE SMOOTH",
"1615 121 LINE",
"1655 169 OFFCURVE",
"1679 227 OFFCURVE",
"1692 289 CURVE SMOOTH",
"1705 351 OFFCURVE",
"1709 417 OFFCURVE",
"1709 478 CURVE SMOOTH",
"1709 649 OFFCURVE",
"1645 789 OFFCURVE",
"1539 887 CURVE SMOOTH",
"1433 985 OFFCURVE",
"1283 1039 OFFCURVE",
"1114 1039 CURVE SMOOTH",
"1003 1039 OFFCURVE",
"906 1009 OFFCURVE",
"822 964 CURVE SMOOTH",
"738 919 OFFCURVE",
"668 859 OFFCURVE",
"611 799 CURVE SMOOTH",
"544 728 OFFCURVE",
"487 649 OFFCURVE",
"438 560 CURVE",
"438 1333 LINE SMOOTH",
"438 1433 OFFCURVE",
"410 1491 OFFCURVE",
"373 1523 CURVE SMOOTH",
"345 1547 OFFCURVE",
"311 1556 OFFCURVE",
"278 1556 CURVE SMOOTH",
"267 1556 OFFCURVE",
"256 1555 OFFCURVE",
"245 1553 CURVE SMOOTH",
"203 1546 OFFCURVE",
"166 1527 OFFCURVE",
"153 1510 CURVE",
"165 1501 OFFCURVE",
"192 1474 OFFCURVE",
"216 1432 CURVE SMOOTH",
"240 1390 OFFCURVE",
"260 1331 OFFCURVE",
"260 1262 CURVE SMOOTH",
"260 121 LINE",
"120 121 LINE SMOOTH",
"88 121 OFFCURVE",
"61 106 OFFCURVE",
"61 63 CURVE SMOOTH",
"61 27 OFFCURVE",
"80 0 OFFCURVE",
"120 0 CURVE SMOOTH"
);
},
{
closed = 1;
nodes = (
"434 168 OFFCURVE",
"452 240 OFFCURVE",
"486 323 CURVE SMOOTH",
"520 406 OFFCURVE",
"569 499 OFFCURVE",
"631 587 CURVE SMOOTH",
"693 675 OFFCURVE",
"768 756 OFFCURVE",
"853 816 CURVE SMOOTH",
"938 876 OFFCURVE",
"1034 914 OFFCURVE",
"1138 914 CURVE SMOOTH",
"1230 914 OFFCURVE",
"1302 882 OFFCURVE",
"1355 834 CURVE SMOOTH",
"1408 785 OFFCURVE",
"1446 720 OFFCURVE",
"1469 654 CURVE SMOOTH",
"1492 588 OFFCURVE",
"1502 520 OFFCURVE",
"1502 468 CURVE SMOOTH",
"1502 397 OFFCURVE",
"1493 320 OFFCURVE",
"1469 256 CURVE SMOOTH",
"1445 192 OFFCURVE",
"1406 141 OFFCURVE",
"1346 121 CURVE",
"434 121 LINE"
);
}
);
width = 1950;
}
);
unicode = FEC2;
},
{
glyphname = uni0639;
lastChange = "2015-05-24 04:35:50 +0000";
layers = (
{
anchors = (
{
name = bottom;
position = "{597, -621}";
},
{
name = top;
position = "{597, 1200}";
}
);
layerId = "66C82CE7-ECCF-480D-AAE6-CD3075A06AEF";
name = Regular;
paths = (
{
closed = 1;
nodes = (
"445 -593 OFFCURVE",
"480 -573 OFFCURVE",
"499 -555 CURVE",
"349 -429 OFFCURVE",
"309 -224 OFFCURVE",
"309 0 CURVE",
"952 0 LINE SMOOTH",
"995 0 OFFCURVE",
"1008 30 OFFCURVE",
"1008 60 CURVE SMOOTH",
"1008 92 OFFCURVE",
"991 121 OFFCURVE",
"929 121 CURVE SMOOTH",
"821 121 LINE SMOOTH",
"514 121 OFFCURVE",
"399 342 OFFCURVE",
"399 560 CURVE SMOOTH",
"399 771 OFFCURVE",
"507 980 OFFCURVE",
"650 980 CURVE",
"748 950 OFFCURVE",
"814 892 OFFCURVE",
"814 749 CURVE",
"822 746 OFFCURVE",
"848 738 OFFCURVE",
"876 738 CURVE SMOOTH",
"914 738 OFFCURVE",
"958 753 OFFCURVE",
"972 814 CURVE SMOOTH",
"975 827 OFFCURVE",
"976 839 OFFCURVE",
"976 850 CURVE SMOOTH",
"976 968 OFFCURVE",
"834 1038 OFFCURVE",
"657 1038 CURVE SMOOTH",
"338 1038 OFFCURVE",
"214 763 OFFCURVE",
"214 565 CURVE SMOOTH",
"214 443 OFFCURVE",
"236 301 OFFCURVE",
"312 203 CURVE SMOOTH",
"330 180 OFFCURVE",
"393 120 OFFCURVE",
"393 120 CURVE SMOOTH",
"226 120 OFFCURVE",
"133 15 OFFCURVE",
"133 -87 CURVE SMOOTH",
"133 -286 OFFCURVE",
"177 -593 OFFCURVE",
"384 -593 CURVE SMOOTH"
);
}
);
width = 1141;
}
);
unicode = 0639;
},
{
glyphname = uni0639.init;
lastChange = "2015-05-24 04:35:50 +0000";
layers = (
{
anchors = (
{
name = bottom;
position = "{580, -130}";
},
{
name = top;
position = "{580, 1200}";
}
);
layerId = "66C82CE7-ECCF-480D-AAE6-CD3075A06AEF";
name = Regular;
paths = (
{
closed = 1;
nodes = (
"170 0 LINE SMOOTH",
"221 0 OFFCURVE",
"319 7 OFFCURVE",
"382 55 CURVE",
"437 20 OFFCURVE",
"502 0 OFFCURVE",
"576 0 CURVE SMOOTH",
"879 0 LINE SMOOTH",
"922 0 OFFCURVE",
"935 30 OFFCURVE",
"935 60 CURVE SMOOTH",
"935 92 OFFCURVE",
"918 121 OFFCURVE",
"856 121 CURVE SMOOTH",
"748 121 LINE SMOOTH",
"441 121 OFFCURVE",
"326 342 OFFCURVE",
"326 560 CURVE SMOOTH",
"326 771 OFFCURVE",
"434 980 OFFCURVE",
"577 980 CURVE",
"675 950 OFFCURVE",
"741 892 OFFCURVE",
"741 749 CURVE",
"749 746 OFFCURVE",
"775 738 OFFCURVE",
"803 738 CURVE SMOOTH",
"841 738 OFFCURVE",
"885 753 OFFCURVE",
"899 814 CURVE SMOOTH",
"902 827 OFFCURVE",
"903 839 OFFCURVE",
"903 850 CURVE SMOOTH",
"903 968 OFFCURVE",
"761 1038 OFFCURVE",
"584 1038 CURVE SMOOTH",
"265 1038 OFFCURVE",
"141 763 OFFCURVE",
"141 565 CURVE SMOOTH",
"141 443 OFFCURVE",
"174 309 OFFCURVE",
"239 203 CURVE",
"231 161 OFFCURVE",
"192 121 OFFCURVE",
"120 121 CURVE SMOOTH",
"-33 121 LINE SMOOTH",
"-37 121 OFFCURVE",
"-40 118 OFFCURVE",
"-40 115 CURVE SMOOTH",
"-40 7 LINE SMOOTH",
"-40 4 OFFCURVE",
"-37 0 OFFCURVE",
"-33 0 CURVE SMOOTH"
);
}
);
width = 1035;
}
);
unicode = FECB;
},
{
glyphname = uni0639.medi;
lastChange = "2015-05-24 04:35:50 +0000";
layers = (
{
anchors = (
{
name = bottom;
position = "{658, -130}";
},
{
name = top;
position = "{658, 1200}";
}
);
layerId = "66C82CE7-ECCF-480D-AAE6-CD3075A06AEF";
name = Regular;
paths = (
{
closed = 1;
nodes = (
"470 0 LINE SMOOTH",
"564 0 OFFCURVE",
"615 20 OFFCURVE",
"661 54 CURVE",
"707 20 OFFCURVE",
"758 0 OFFCURVE",
"852 0 CURVE SMOOTH",
"1356 0 LINE SMOOTH",
"1360 0 OFFCURVE",
"1363 4 OFFCURVE",
"1363 7 CURVE SMOOTH",
"1363 114 LINE SMOOTH",
"1363 117 OFFCURVE",
"1360 121 OFFCURVE",
"1356 121 CURVE SMOOTH",
"829 121 LINE",
"822 113 OFFCURVE",
"793 92 OFFCURVE",
"789 88 CURVE",
"1214 659 LINE SMOOTH",
"1240 695 OFFCURVE",
"1250 744 OFFCURVE",
"1250 773 CURVE SMOOTH",
"1250 960 OFFCURVE",
"1042 1036 OFFCURVE",
"790 1036 CURVE SMOOTH",
"526 1036 LINE SMOOTH",
"274 1036 OFFCURVE",
"72 960 OFFCURVE",
"72 773 CURVE SMOOTH",
"72 744 OFFCURVE",
"82 695 OFFCURVE",
"108 659 CURVE SMOOTH",
"533 88 LINE",
"529 92 OFFCURVE",
"500 113 OFFCURVE",
"493 121 CURVE",
"-34 121 LINE SMOOTH",
"-38 121 OFFCURVE",
"-40 117 OFFCURVE",
"-40 114 CURVE SMOOTH",
"-40 7 LINE SMOOTH",
"-40 4 OFFCURVE",
"-38 0 OFFCURVE",
"-34 0 CURVE SMOOTH"
);
},
{
closed = 1;
nodes = (
"661 93 OFFCURVE",
"356 506 OFFCURVE",
"257 638 CURVE SMOOTH",
"224 682 OFFCURVE",
"208 723 OFFCURVE",
"208 758 CURVE SMOOTH",
"208 855 OFFCURVE",
"331 913 OFFCURVE",
"556 913 CURVE SMOOTH",
"766 913 LINE SMOOTH",
"992 913 OFFCURVE",
"1114 855 OFFCURVE",
"1114 758 CURVE SMOOTH",
"1114 723 OFFCURVE",
"1098 682 OFFCURVE",
"1065 638 CURVE SMOOTH",
"966 506 OFFCURVE",
"661 93 OFFCURVE",
"661 93 CURVE SMOOTH"
);
}
);
width = 1323;
}
);
unicode = FECC;
},
{
glyphname = uni0639.fina;
lastChange = "2015-05-24 04:35:50 +0000";
layers = (
{
anchors = (
{
name = bottom;
position = "{597, -621}";
},
{
name = top;
position = "{809, 1200}";
}
);
layerId = "66C82CE7-ECCF-480D-AAE6-CD3075A06AEF";
name = Regular;
paths = (
{
closed = 1;
nodes = (
"505 -593 OFFCURVE",
"540 -574 OFFCURVE",
"559 -555 CURVE",
"484 -492 OFFCURVE",
"436 -410 OFFCURVE",
"408 -314 CURVE SMOOTH",
"379 -219 OFFCURVE",
"369 -112 OFFCURVE",
"369 0 CURVE",
"628 0 LINE SMOOTH",
"722 0 OFFCURVE",
"773 20 OFFCURVE",
"819 54 CURVE",
"865 20 OFFCURVE",
"916 0 OFFCURVE",
"1010 0 CURVE SMOOTH",
"1546 0 LINE SMOOTH",
"1550 0 OFFCURVE",
"1553 4 OFFCURVE",
"1553 7 CURVE SMOOTH",
"1553 114 LINE SMOOTH",
"1553 117 OFFCURVE",
"1550 121 OFFCURVE",
"1546 121 CURVE SMOOTH",
"987 121 LINE",
"980 113 OFFCURVE",
"951 92 OFFCURVE",
"947 88 CURVE",
"1372 659 LINE SMOOTH",
"1398 695 OFFCURVE",
"1408 744 OFFCURVE",
"1408 773 CURVE SMOOTH",
"1408 960 OFFCURVE",
"1200 1036 OFFCURVE",
"948 1036 CURVE SMOOTH",
"684 1036 LINE SMOOTH",
"432 1036 OFFCURVE",
"230 960 OFFCURVE",
"230 773 CURVE SMOOTH",
"230 744 OFFCURVE",
"240 695 OFFCURVE",
"266 659 CURVE SMOOTH",
"691 88 LINE",
"687 92 OFFCURVE",
"658 113 OFFCURVE",
"651 121 CURVE",
"453 121 LINE SMOOTH",
"369 121 OFFCURVE",
"304 95 OFFCURVE",
"260 56 CURVE SMOOTH",
"216 16 OFFCURVE",
"193 -36 OFFCURVE",
"193 -87 CURVE SMOOTH",
"193 -154 OFFCURVE",
"197 -231 OFFCURVE",
"212 -306 CURVE SMOOTH",
"227 -382 OFFCURVE",
"250 -453 OFFCURVE",
"287 -506 CURVE SMOOTH",
"324 -559 OFFCURVE",
"376 -593 OFFCURVE",
"445 -593 CURVE SMOOTH"
);
},
{
closed = 1;
nodes = (
"819 93 OFFCURVE",
"514 506 OFFCURVE",
"415 638 CURVE SMOOTH",
"382 682 OFFCURVE",
"366 723 OFFCURVE",
"366 758 CURVE SMOOTH",
"366 855 OFFCURVE",
"489 913 OFFCURVE",
"714 913 CURVE SMOOTH",
"924 913 LINE SMOOTH",
"1150 913 OFFCURVE",
"1272 855 OFFCURVE",
"1272 758 CURVE SMOOTH",
"1272 723 OFFCURVE",
"1256 682 OFFCURVE",
"1223 638 CURVE SMOOTH",
"1124 506 OFFCURVE",
"819 93 OFFCURVE",
"819 93 CURVE SMOOTH"
);
}
);
width = 1513;
}
);
unicode = FECA;
},
{
glyphname = uni0643.init;
lastChange = "2015-05-24 04:35:50 +0000";
layers = (
{
anchors = (
{
name = bottom;
position = "{717, -130}";
},
{
name = top;
position = "{717, 1823}";
}
);
layerId = "66C82CE7-ECCF-480D-AAE6-CD3075A06AEF";
name = Regular;
paths = (
{
closed = 1;
nodes = (
"753 0 LINE SMOOTH",
"1203 0 OFFCURVE",
"1217 433 OFFCURVE",
"1217 480 CURVE SMOOTH",
"1217 772 OFFCURVE",
"963 1035 OFFCURVE",
"659 1035 CURVE SMOOTH",
"280 1036 LINE",
"280 1049 OFFCURVE",
"277 1074 OFFCURVE",
"277 1108 CURVE SMOOTH",
"277 1252 OFFCURVE",
"336 1538 OFFCURVE",
"966 1538 CURVE SMOOTH",
"1128 1538 OFFCURVE",
"1227 1501 OFFCURVE",
"1294 1465 CURVE",
"1296 1479 OFFCURVE",
"1297 1491 OFFCURVE",
"1297 1503 CURVE SMOOTH",
"1297 1682 OFFCURVE",
"1065 1700 OFFCURVE",
"918 1700 CURVE SMOOTH",
"721 1700 OFFCURVE",
"106 1619 OFFCURVE",
"106 1174 CURVE SMOOTH",
"106 1102 OFFCURVE",
"128 903 OFFCURVE",
"296 903 CURVE SMOOTH",
"313 903 OFFCURVE",
"330 902 OFFCURVE",
"349 903 CURVE",
"501 903 LINE SMOOTH",
"946 903 OFFCURVE",
"1038 609 OFFCURVE",
"1038 478 CURVE SMOOTH",
"1038 362 OFFCURVE",
"958 121 OFFCURVE",
"805 121 CURVE SMOOTH",
"-33 121 LINE SMOOTH",
"-36 121 OFFCURVE",
"-40 117 OFFCURVE",
"-40 115 CURVE SMOOTH",
"-40 6 LINE SMOOTH",
"-40 3 OFFCURVE",
"-36 0 OFFCURVE",
"-33 0 CURVE SMOOTH"
);
}
);
width = 1453;
}
);
unicode = FEDB;
},
{
glyphname = uni0643.medi;
lastChange = "2015-05-24 04:35:50 +0000";
layers = (
{
anchors = (
{
name = bottom;
position = "{717, -130}";
},
{
name = top;
position = "{717, 1823}";
}
);
layerId = "66C82CE7-ECCF-480D-AAE6-CD3075A06AEF";
name = Regular;
paths = (
{
closed = 1;
nodes = (
"754 0 LINE SMOOTH",
"851 0 OFFCURVE",
"927 20 OFFCURVE",
"988 52 CURVE",
"1034 19 OFFCURVE",
"1085 0 OFFCURVE",
"1177 0 CURVE SMOOTH",
"1568 0 LINE SMOOTH",
"1571 0 OFFCURVE",
"1575 3 OFFCURVE",
"1575 6 CURVE SMOOTH",
"1575 115 LINE SMOOTH",
"1575 118 OFFCURVE",
"1571 121 OFFCURVE",
"1568 121 CURVE SMOOTH",
"1080 121 LINE",
"1212 252 OFFCURVE",
"1218 450 OFFCURVE",
"1218 481 CURVE SMOOTH",
"1218 773 OFFCURVE",
"964 1035 OFFCURVE",
"660 1035 CURVE SMOOTH",
"281 1036 LINE",
"281 1049 OFFCURVE",
"278 1074 OFFCURVE",
"278 1108 CURVE SMOOTH",
"278 1252 OFFCURVE",
"337 1538 OFFCURVE",
"967 1538 CURVE SMOOTH",
"1129 1538 OFFCURVE",
"1228 1501 OFFCURVE",
"1295 1465 CURVE",
"1297 1479 OFFCURVE",
"1298 1491 OFFCURVE",
"1298 1503 CURVE SMOOTH",
"1298 1682 OFFCURVE",
"1066 1700 OFFCURVE",
"919 1700 CURVE SMOOTH",
"722 1700 OFFCURVE",
"107 1619 OFFCURVE",
"107 1174 CURVE SMOOTH",
"107 1102 OFFCURVE",
"129 903 OFFCURVE",
"297 903 CURVE SMOOTH",
"314 903 OFFCURVE",
"331 902 OFFCURVE",
"350 903 CURVE",
"502 903 LINE SMOOTH",
"947 903 OFFCURVE",
"1039 609 OFFCURVE",
"1039 478 CURVE SMOOTH",
"1039 362 OFFCURVE",
"959 121 OFFCURVE",
"806 121 CURVE SMOOTH",
"-33 121 LINE SMOOTH",
"-36 121 OFFCURVE",
"-40 117 OFFCURVE",
"-40 115 CURVE SMOOTH",
"-40 6 LINE SMOOTH",
"-40 3 OFFCURVE",
"-36 0 OFFCURVE",
"-33 0 CURVE SMOOTH"
);
}
);
width = 1535;
}
);
unicode = FEDC;
},
{
glyphname = uni0643;
lastChange = "2015-05-24 04:35:54 +0000";
layers = (
{
anchors = (
{
name = bottom;
position = "{678, -130}";
},
{
name = top;
position = "{678, 1500}";
}
);
layerId = "66C82CE7-ECCF-480D-AAE6-CD3075A06AEF";
name = Regular;
paths = (
{
closed = 1;
nodes = (
"1244 0 LINE SMOOTH",
"1408 0 OFFCURVE",
"1552 117 OFFCURVE",
"1552 395 CURVE SMOOTH",
"1553 467 OFFCURVE",
"1553 595 OFFCURVE",
"1553 733 CURVE SMOOTH",
"1553 1010 OFFCURVE",
"1552 1330 OFFCURVE",
"1552 1335 CURVE SMOOTH",
"1552 1475 OFFCURVE",
"1478 1556 OFFCURVE",
"1406 1556 CURVE SMOOTH",
"1329 1556 OFFCURVE",
"1298 1543 OFFCURVE",
"1264 1508 CURVE",
"1288 1492 OFFCURVE",
"1309 1463 OFFCURVE",
"1329 1424 CURVE SMOOTH",
"1349 1383 OFFCURVE",
"1371 1332 OFFCURVE",
"1371 1262 CURVE SMOOTH",
"1370 359 LINE SMOOTH",
"1370 247 OFFCURVE",
"1312 121 OFFCURVE",
"1189 121 CURVE SMOOTH",
"504 121 LINE SMOOTH",
"367 121 OFFCURVE",
"335 276 OFFCURVE",
"335 350 CURVE SMOOTH",
"335 405 OFFCURVE",
"337 486 OFFCURVE",
"337 542 CURVE SMOOTH",
"337 613 OFFCURVE",
"286 634 OFFCURVE",
"233 634 CURVE SMOOTH",
"182 634 OFFCURVE",
"133 612 OFFCURVE",
"133 543 CURVE SMOOTH",
"133 275 LINE",
"147 189 OFFCURVE",
"194 128 OFFCURVE",
"253 77 CURVE SMOOTH",
"310 29 OFFCURVE",
"374 2 OFFCURVE",
"451 0 CURVE SMOOTH"
);
},
{
closed = 1;
nodes = (
"691 654 OFFCURVE",
"1019 682 OFFCURVE",
"1046 686 CURVE",
"1064 688 OFFCURVE",
"1067 715 OFFCURVE",
"1066 726 CURVE",
"1063 746 OFFCURVE",
"1051 762 OFFCURVE",
"1023 759 CURVE",
"1022 758 OFFCURVE",
"992 752 OFFCURVE",
"984 751 CURVE SMOOTH",
"970 749 OFFCURVE",
"957 748 OFFCURVE",
"944 748 CURVE SMOOTH",
"826 748 OFFCURVE",
"801 842 OFFCURVE",
"795 881 CURVE SMOOTH",
"793 894 OFFCURVE",
"792 906 OFFCURVE",
"792 917 CURVE SMOOTH",
"792 1008 OFFCURVE",
"855 1028 OFFCURVE",
"855 1028 CURVE SMOOTH",
"855 1028 OFFCURVE",
"934 1013 OFFCURVE",
"933 942 CURVE",
"939 936 OFFCURVE",
"949 933 OFFCURVE",
"958 933 CURVE SMOOTH",
"985 933 OFFCURVE",
"1017 955 OFFCURVE",
"1017 997 CURVE SMOOTH",
"1017 1013 OFFCURVE",
"1013 1026 OFFCURVE",
"1006 1036 CURVE SMOOTH",
"986 1068 OFFCURVE",
"941 1078 OFFCURVE",
"900 1078 CURVE SMOOTH",
"884 1078 OFFCURVE",
"868 1076 OFFCURVE",
"854 1074 CURVE SMOOTH",
"754 1059 OFFCURVE",
"678 989 OFFCURVE",
"678 897 CURVE SMOOTH",
"678 889 OFFCURVE",
"679 880 OFFCURVE",
"680 871 CURVE SMOOTH",
"697 763 OFFCURVE",
"756 715 OFFCURVE",
"756 715 CURVE",
"748 718 OFFCURVE",
"739 720 OFFCURVE",
"730 720 CURVE SMOOTH",
"697 720 OFFCURVE",
"659 700 OFFCURVE",
"659 666 CURVE SMOOTH",
"659 655 OFFCURVE",
"663 643 OFFCURVE",
"673 629 CURVE"
);
}
);
width = 1686;
}
);
unicode = 0643;
},
{
glyphname = uni0643.fina;
lastChange = "2015-05-24 04:35:54 +0000";
layers = (
{
anchors = (
{
name = bottom;
position = "{678, -130}";
},
{
name = top;
position = "{678, 1500}";
}
);
layerId = "66C82CE7-ECCF-480D-AAE6-CD3075A06AEF";
name = Regular;
paths = (
{
closed = 1;
nodes = (
"1244 0 LINE SMOOTH",
"1306 0 OFFCURVE",
"1366 17 OFFCURVE",
"1415 53 CURVE",
"1462 19 OFFCURVE",
"1513 0 OFFCURVE",
"1606 0 CURVE SMOOTH",
"1830 0 LINE SMOOTH",
"1833 0 OFFCURVE",
"1836 3 OFFCURVE",
"1836 6 CURVE SMOOTH",
"1836 114 LINE SMOOTH",
"1836 117 OFFCURVE",
"1833 121 OFFCURVE",
"1830 121 CURVE SMOOTH",
"1481 121 LINE",
"1525 184 OFFCURVE",
"1553 274 OFFCURVE",
"1553 396 CURVE SMOOTH",
"1554 468 OFFCURVE",
"1554 596 OFFCURVE",
"1554 734 CURVE SMOOTH",
"1554 1011 OFFCURVE",
"1553 1330 OFFCURVE",
"1553 1335 CURVE SMOOTH",
"1553 1475 OFFCURVE",
"1478 1556 OFFCURVE",
"1407 1556 CURVE SMOOTH",
"1329 1556 OFFCURVE",
"1299 1543 OFFCURVE",
"1264 1508 CURVE",
"1289 1492 OFFCURVE",
"1309 1463 OFFCURVE",
"1329 1424 CURVE SMOOTH",
"1349 1383 OFFCURVE",
"1371 1332 OFFCURVE",
"1371 1262 CURVE SMOOTH",
"1370 359 LINE SMOOTH",
"1370 247 OFFCURVE",
"1313 121 OFFCURVE",
"1190 121 CURVE SMOOTH",
"505 121 LINE SMOOTH",
"367 121 OFFCURVE",
"336 276 OFFCURVE",
"336 350 CURVE SMOOTH",
"336 405 OFFCURVE",
"338 486 OFFCURVE",
"338 542 CURVE SMOOTH",
"338 613 OFFCURVE",
"287 634 OFFCURVE",
"234 634 CURVE SMOOTH",
"183 634 OFFCURVE",
"133 612 OFFCURVE",
"133 543 CURVE SMOOTH",
"133 275 LINE",
"148 189 OFFCURVE",
"194 128 OFFCURVE",
"254 77 CURVE SMOOTH",
"311 29 OFFCURVE",
"375 2 OFFCURVE",
"451 0 CURVE SMOOTH"
);
},
{
closed = 1;
nodes = (
"692 654 OFFCURVE",
"1020 682 OFFCURVE",
"1047 686 CURVE",
"1065 688 OFFCURVE",
"1068 715 OFFCURVE",
"1067 726 CURVE",
"1064 746 OFFCURVE",
"1051 762 OFFCURVE",
"1024 759 CURVE",
"1023 758 OFFCURVE",
"993 752 OFFCURVE",
"984 751 CURVE SMOOTH",
"970 749 OFFCURVE",
"957 748 OFFCURVE",
"945 748 CURVE SMOOTH",
"827 748 OFFCURVE",
"802 842 OFFCURVE",
"795 881 CURVE SMOOTH",
"793 894 OFFCURVE",
"792 905 OFFCURVE",
"792 916 CURVE SMOOTH",
"792 1008 OFFCURVE",
"855 1028 OFFCURVE",
"855 1028 CURVE SMOOTH",
"855 1028 OFFCURVE",
"935 1013 OFFCURVE",
"934 942 CURVE",
"940 936 OFFCURVE",
"950 933 OFFCURVE",
"959 933 CURVE SMOOTH",
"986 933 OFFCURVE",
"1018 955 OFFCURVE",
"1018 998 CURVE SMOOTH",
"1018 1002 OFFCURVE",
"1018 1007 OFFCURVE",
"1017 1011 CURVE",
"1008 1063 OFFCURVE",
"952 1078 OFFCURVE",
"901 1078 CURVE SMOOTH",
"885 1078 OFFCURVE",
"869 1076 OFFCURVE",
"855 1074 CURVE SMOOTH",
"756 1059 OFFCURVE",
"679 990 OFFCURVE",
"679 898 CURVE SMOOTH",
"679 889 OFFCURVE",
"679 880 OFFCURVE",
"681 871 CURVE SMOOTH",
"698 763 OFFCURVE",
"757 715 OFFCURVE",
"757 715 CURVE",
"749 718 OFFCURVE",
"740 720 OFFCURVE",
"731 720 CURVE SMOOTH",
"698 720 OFFCURVE",
"659 700 OFFCURVE",
"659 667 CURVE SMOOTH",
"659 655 OFFCURVE",
"664 643 OFFCURVE",
"674 629 CURVE"
);
}
);
width = 1796;
}
);
unicode = FEDA;
},
{
glyphname = uni0644;
lastChange = "2015-05-24 04:35:50 +0000";
layers = (
{
anchors = (
{
name = bottom;
position = "{719, -621}";
},
{
name = top;
position = "{418, 1700}";
}
);
layerId = "66C82CE7-ECCF-480D-AAE6-CD3075A06AEF";
name = Regular;
paths = (
{
closed = 1;
nodes = (
"1164 -502 OFFCURVE",
"1232 -167 OFFCURVE",
"1232 332 CURVE SMOOTH",
"1232 371 LINE",
"1233 1336 LINE SMOOTH",
"1233 1476 OFFCURVE",
"1159 1556 OFFCURVE",
"1087 1556 CURVE SMOOTH",
"1010 1556 OFFCURVE",
"979 1543 OFFCURVE",
"945 1508 CURVE",
"969 1492 OFFCURVE",
"990 1463 OFFCURVE",
"1010 1424 CURVE SMOOTH",
"1030 1383 OFFCURVE",
"1052 1332 OFFCURVE",
"1052 1263 CURVE SMOOTH",
"1051 115 LINE",
"1051 84 LINE SMOOTH",
"1051 -85 OFFCURVE",
"1041 -381 OFFCURVE",
"720 -381 CURVE SMOOTH",
"502 -381 OFFCURVE",
"320 -217 OFFCURVE",
"320 -28 CURVE SMOOTH",
"320 285 OFFCURVE",
"450 393 OFFCURVE",
"475 415 CURVE",
"439 437 OFFCURVE",
"405 447 OFFCURVE",
"373 447 CURVE SMOOTH",
"225 447 OFFCURVE",
"133 227 OFFCURVE",
"133 36 CURVE SMOOTH",
"134 -221 OFFCURVE",
"282 -502 OFFCURVE",
"701 -502 CURVE SMOOTH"
);
}
);
width = 1366;
}
);
unicode = 0644;
},
{
glyphname = uni0644.init;
lastChange = "2015-05-24 04:35:50 +0000";
layers = (
{
anchors = (
{
name = bottom;
position = "{354, -130}";
},
{
name = top;
position = "{297, 1694}";
}
);
layerId = "66C82CE7-ECCF-480D-AAE6-CD3075A06AEF";
name = Regular;
paths = (
{
closed = 1;
nodes = (
"134 0 LINE SMOOTH",
"298 0 OFFCURVE",
"442 118 OFFCURVE",
"442 396 CURVE SMOOTH",
"443 468 OFFCURVE",
"443 595 OFFCURVE",
"443 734 CURVE SMOOTH",
"443 1010 OFFCURVE",
"442 1330 OFFCURVE",
"442 1335 CURVE SMOOTH",
"442 1474 OFFCURVE",
"368 1556 OFFCURVE",
"296 1556 CURVE SMOOTH",
"219 1556 OFFCURVE",
"188 1542 OFFCURVE",
"154 1508 CURVE",
"178 1492 OFFCURVE",
"199 1463 OFFCURVE",
"219 1424 CURVE SMOOTH",
"239 1383 OFFCURVE",
"261 1332 OFFCURVE",
"261 1261 CURVE SMOOTH",
"260 360 LINE SMOOTH",
"260 248 OFFCURVE",
"203 121 OFFCURVE",
"79 121 CURVE SMOOTH",
"-13 121 LINE SMOOTH",
"-17 121 OFFCURVE",
"-20 118 OFFCURVE",
"-20 114 CURVE SMOOTH",
"-20 6 LINE SMOOTH",
"-20 3 OFFCURVE",
"-17 0 OFFCURVE",
"-13 0 CURVE SMOOTH"
);
}
);
width = 543;
}
);
unicode = FEDF;
},
{
glyphname = uni0644.medi;
lastChange = "2015-05-24 04:35:50 +0000";
layers = (
{
anchors = (
{
name = bottom;
position = "{332, -130}";
},
{
name = top;
position = "{275, 1694}";
}
);
layerId = "66C82CE7-ECCF-480D-AAE6-CD3075A06AEF";
name = Regular;
paths = (
{
closed = 1;
nodes = (
"113 0 LINE SMOOTH",
"175 0 OFFCURVE",
"235 17 OFFCURVE",
"284 53 CURVE",
"330 20 OFFCURVE",
"381 0 OFFCURVE",
"474 0 CURVE SMOOTH",
"693 0 LINE SMOOTH",
"696 0 OFFCURVE",
"699 4 OFFCURVE",
"699 7 CURVE SMOOTH",
"699 115 LINE SMOOTH",
"699 118 OFFCURVE",
"696 121 OFFCURVE",
"693 121 CURVE SMOOTH",
"349 121 LINE",
"394 185 OFFCURVE",
"421 275 OFFCURVE",
"421 396 CURVE SMOOTH",
"422 468 OFFCURVE",
"422 596 OFFCURVE",
"422 734 CURVE SMOOTH",
"422 1011 OFFCURVE",
"421 1330 OFFCURVE",
"421 1335 CURVE SMOOTH",
"421 1475 OFFCURVE",
"347 1556 OFFCURVE",
"275 1556 CURVE SMOOTH",
"198 1556 OFFCURVE",
"167 1543 OFFCURVE",
"133 1508 CURVE",
"157 1492 OFFCURVE",
"178 1463 OFFCURVE",
"198 1424 CURVE SMOOTH",
"218 1383 OFFCURVE",
"240 1332 OFFCURVE",
"240 1262 CURVE SMOOTH",
"239 360 LINE SMOOTH",
"239 248 OFFCURVE",
"182 121 OFFCURVE",
"58 121 CURVE SMOOTH",
"-33 121 LINE SMOOTH",
"-37 121 OFFCURVE",
"-40 117 OFFCURVE",
"-40 115 CURVE SMOOTH",
"-40 7 LINE SMOOTH",
"-40 4 OFFCURVE",
"-37 0 OFFCURVE",
"-33 0 CURVE SMOOTH"
);
}
);
width = 659;
}
);
unicode = FEE0;
},
{
glyphname = uni0644.fina;
lastChange = "2015-05-24 04:35:50 +0000";
layers = (
{
anchors = (
{
name = bottom;
position = "{719, -621}";
},
{
name = top;
position = "{418, 1700}";
}
);
layerId = "66C82CE7-ECCF-480D-AAE6-CD3075A06AEF";
name = Regular;
paths = (
{
closed = 1;
nodes = (
"1071 -502 OFFCURVE",
"1188 -288 OFFCURVE",
"1221 52 CURVE",
"1267 19 OFFCURVE",
"1317 0 OFFCURVE",
"1410 0 CURVE SMOOTH",
"1461 0 LINE SMOOTH",
"1465 0 OFFCURVE",
"1469 3 OFFCURVE",
"1469 6 CURVE SMOOTH",
"1469 114 LINE SMOOTH",
"1469 117 OFFCURVE",
"1465 121 OFFCURVE",
"1461 121 CURVE SMOOTH",
"1226 121 LINE",
"1230 187 OFFCURVE",
"1232 257 OFFCURVE",
"1232 332 CURVE SMOOTH",
"1232 371 LINE",
"1233 1336 LINE SMOOTH",
"1233 1476 OFFCURVE",
"1159 1556 OFFCURVE",
"1087 1556 CURVE SMOOTH",
"1010 1556 OFFCURVE",
"979 1543 OFFCURVE",
"945 1508 CURVE",
"969 1492 OFFCURVE",
"990 1463 OFFCURVE",
"1010 1424 CURVE SMOOTH",
"1030 1383 OFFCURVE",
"1052 1332 OFFCURVE",
"1052 1263 CURVE SMOOTH",
"1051 115 LINE",
"1051 84 LINE SMOOTH",
"1051 -85 OFFCURVE",
"1041 -381 OFFCURVE",
"720 -381 CURVE SMOOTH",
"502 -381 OFFCURVE",
"320 -217 OFFCURVE",
"320 -28 CURVE SMOOTH",
"320 285 OFFCURVE",
"450 393 OFFCURVE",
"475 415 CURVE",
"439 437 OFFCURVE",
"405 447 OFFCURVE",
"373 447 CURVE SMOOTH",
"225 447 OFFCURVE",
"133 227 OFFCURVE",
"133 36 CURVE SMOOTH",
"134 -221 OFFCURVE",
"282 -502 OFFCURVE",
"701 -502 CURVE SMOOTH"
);
}
);
width = 1429;
}
);
unicode = FEDE;
},
{
glyphname = uni0645;
lastChange = "2015-05-24 04:35:50 +0000";
layers = (
{
anchors = (
{
name = bottom;
position = "{850, -599}";
},
{
name = top;
position = "{847, 1200}";
}
);
layerId = "66C82CE7-ECCF-480D-AAE6-CD3075A06AEF";
name = Regular;
paths = (
{
closed = 1;
nodes = (
"624 -599 OFFCURVE",
"666 -351 OFFCURVE",
"666 -251 CURVE SMOOTH",
"666 40 LINE",
"713 19 OFFCURVE",
"778 -2 OFFCURVE",
"850 -2 CURVE SMOOTH",
"945 -2 LINE SMOOTH",
"1212 -2 OFFCURVE",
"1289 227 OFFCURVE",
"1289 443 CURVE SMOOTH",
"1289 568 LINE SMOOTH",
"1289 911 OFFCURVE",
"1080 1038 OFFCURVE",
"852 1038 CURVE SMOOTH",
"561 1038 OFFCURVE",
"473 885 OFFCURVE",
"473 699 CURVE SMOOTH",
"473 -278 LINE SMOOTH",
"473 -357 OFFCURVE",
"410 -499 OFFCURVE",
"234 -499 CURVE SMOOTH",
"184 -499 OFFCURVE",
"133 -496 OFFCURVE",
"82 -483 CURVE",
"91 -494 OFFCURVE",
"169 -599 OFFCURVE",
"344 -599 CURVE SMOOTH"
);
},
{
closed = 1;
nodes = (
"666 675 LINE SMOOTH",
"666 863 OFFCURVE",
"750 915 OFFCURVE",
"866 915 CURVE SMOOTH",
"1014 915 OFFCURVE",
"1095 797 OFFCURVE",
"1095 512 CURVE SMOOTH",
"1095 445 OFFCURVE",
"1089 121 OFFCURVE",
"819 121 CURVE SMOOTH",
"666 121 LINE"
);
}
);
width = 1422;
}
);
unicode = 0645;
},
{
glyphname = uni0645.init;
lastChange = "2015-05-24 04:35:50 +0000";
layers = (
{
anchors = (
{
name = bottom;
position = "{539, -130}";
},
{
name = top;
position = "{539, 1200}";
}
);
layerId = "66C82CE7-ECCF-480D-AAE6-CD3075A06AEF";
name = Regular;
paths = (
{
closed = 1;
nodes = (
"620 -4 LINE SMOOTH",
"886 -4 OFFCURVE",
"963 226 OFFCURVE",
"963 442 CURVE SMOOTH",
"963 568 LINE SMOOTH",
"963 911 OFFCURVE",
"754 1038 OFFCURVE",
"526 1038 CURVE SMOOTH",
"236 1038 OFFCURVE",
"148 884 OFFCURVE",
"148 699 CURVE SMOOTH",
"148 121 LINE",
"-34 121 LINE SMOOTH",
"-36 121 OFFCURVE",
"-40 118 OFFCURVE",
"-40 115 CURVE SMOOTH",
"-40 7 LINE SMOOTH",
"-40 4 OFFCURVE",
"-36 0 OFFCURVE",
"-34 0 CURVE SMOOTH",
"223 0 LINE SMOOTH",
"309 0 OFFCURVE",
"361 15 OFFCURVE",
"405 45 CURVE",
"452 22 OFFCURVE",
"522 -4 OFFCURVE",
"603 -4 CURVE SMOOTH"
);
},
{
closed = 1;
nodes = (
"341 675 LINE SMOOTH",
"341 863 OFFCURVE",
"425 916 OFFCURVE",
"541 916 CURVE SMOOTH",
"689 916 OFFCURVE",
"770 797 OFFCURVE",
"770 511 CURVE SMOOTH",
"770 444 OFFCURVE",
"764 121 OFFCURVE",
"494 121 CURVE SMOOTH",
"341 121 LINE"
);
}
);
width = 1097;
}
);
unicode = FEE3;
},
{
glyphname = uni0645.medi;
lastChange = "2015-05-24 04:35:50 +0000";
layers = (
{
anchors = (
{
name = bottom;
position = "{519, -130}";
},
{
name = top;
position = "{519, 1200}";
}
);
layerId = "66C82CE7-ECCF-480D-AAE6-CD3075A06AEF";
name = Regular;
paths = (
{
closed = 1;
nodes = (
"620 -4 LINE SMOOTH",
"699 -4 OFFCURVE",
"762 17 OFFCURVE",
"811 52 CURVE",
"856 19 OFFCURVE",
"907 0 OFFCURVE",
"1000 0 CURVE SMOOTH",
"1176 0 LINE SMOOTH",
"1179 0 OFFCURVE",
"1183 3 OFFCURVE",
"1183 6 CURVE SMOOTH",
"1183 114 LINE SMOOTH",
"1183 117 OFFCURVE",
"1179 121 OFFCURVE",
"1176 121 CURVE SMOOTH",
"878 121 LINE",
"941 207 OFFCURVE",
"963 327 OFFCURVE",
"963 443 CURVE SMOOTH",
"963 570 LINE SMOOTH",
"963 913 OFFCURVE",
"754 1038 OFFCURVE",
"527 1038 CURVE SMOOTH",
"236 1038 OFFCURVE",
"148 885 OFFCURVE",
"148 700 CURVE SMOOTH",
"148 121 LINE",
"-34 121 LINE SMOOTH",
"-36 121 OFFCURVE",
"-40 118 OFFCURVE",
"-40 115 CURVE SMOOTH",
"-40 8 LINE SMOOTH",
"-40 5 OFFCURVE",
"-36 0 OFFCURVE",
"-34 0 CURVE SMOOTH",
"223 0 LINE SMOOTH",
"309 0 OFFCURVE",
"361 15 OFFCURVE",
"405 45 CURVE",
"452 22 OFFCURVE",
"522 -4 OFFCURVE",
"603 -4 CURVE SMOOTH"
);
},
{
closed = 1;
nodes = (
"341 675 LINE SMOOTH",
"341 863 OFFCURVE",
"425 916 OFFCURVE",
"541 916 CURVE SMOOTH",
"689 916 OFFCURVE",
"770 798 OFFCURVE",
"770 512 CURVE SMOOTH",
"770 445 OFFCURVE",
"764 121 OFFCURVE",
"494 121 CURVE SMOOTH",
"341 121 LINE"
);
}
);
width = 1143;
}
);
unicode = FEE4;
},
{
glyphname = uni0645.fina;
lastChange = "2015-05-24 04:35:50 +0000";
layers = (
{
anchors = (
{
name = bottom;
position = "{850, -599}";
},
{
name = top;
position = "{847, 1200}";
}
);
layerId = "66C82CE7-ECCF-480D-AAE6-CD3075A06AEF";
name = Regular;
paths = (
{
closed = 1;
nodes = (
"624 -599 OFFCURVE",
"666 -351 OFFCURVE",
"666 -251 CURVE SMOOTH",
"666 40 LINE",
"713 19 OFFCURVE",
"778 -2 OFFCURVE",
"850 -2 CURVE SMOOTH",
"945 -2 LINE SMOOTH",
"1024 -2 OFFCURVE",
"1087 19 OFFCURVE",
"1136 53 CURVE",
"1182 20 OFFCURVE",
"1233 0 OFFCURVE",
"1325 0 CURVE SMOOTH",
"1501 0 LINE SMOOTH",
"1504 0 OFFCURVE",
"1508 4 OFFCURVE",
"1508 7 CURVE SMOOTH",
"1508 115 LINE SMOOTH",
"1508 118 OFFCURVE",
"1504 121 OFFCURVE",
"1501 121 CURVE SMOOTH",
"1204 121 LINE",
"1266 207 OFFCURVE",
"1289 327 OFFCURVE",
"1289 443 CURVE SMOOTH",
"1289 569 LINE SMOOTH",
"1289 912 OFFCURVE",
"1080 1038 OFFCURVE",
"852 1038 CURVE SMOOTH",
"561 1038 OFFCURVE",
"473 885 OFFCURVE",
"473 699 CURVE SMOOTH",
"473 -278 LINE SMOOTH",
"473 -357 OFFCURVE",
"410 -499 OFFCURVE",
"234 -499 CURVE SMOOTH",
"184 -499 OFFCURVE",
"133 -496 OFFCURVE",
"82 -483 CURVE",
"91 -494 OFFCURVE",
"169 -599 OFFCURVE",
"344 -599 CURVE SMOOTH"
);
},
{
closed = 1;
nodes = (
"666 675 LINE SMOOTH",
"666 863 OFFCURVE",
"750 915 OFFCURVE",
"866 915 CURVE SMOOTH",
"1014 915 OFFCURVE",
"1095 797 OFFCURVE",
"1095 512 CURVE SMOOTH",
"1095 445 OFFCURVE",
"1089 121 OFFCURVE",
"819 121 CURVE SMOOTH",
"666 121 LINE"
);
}
);
width = 1468;
}
);
unicode = FEE2;
},
{
glyphname = uni0647;
lastChange = "2015-05-24 04:35:50 +0000";
layers = (
{
anchors = (
{
name = bottom;
position = "{550, -130}";
},
{
name = top;
position = "{550, 1200}";
}
);
layerId = "66C82CE7-ECCF-480D-AAE6-CD3075A06AEF";
name = Regular;
paths = (
{
closed = 1;
nodes = (
"621 -20 LINE SMOOTH",
"950 -20 OFFCURVE",
"965 341 OFFCURVE",
"965 573 CURVE SMOOTH",
"965 885 OFFCURVE",
"803 1038 OFFCURVE",
"549 1038 CURVE SMOOTH",
"294 1038 OFFCURVE",
"132 885 OFFCURVE",
"132 573 CURVE SMOOTH",
"132 340 OFFCURVE",
"147 -20 OFFCURVE",
"476 -20 CURVE SMOOTH"
);
},
{
closed = 1;
nodes = (
"350 101 OFFCURVE",
"325 328 OFFCURVE",
"325 589 CURVE SMOOTH",
"325 853 OFFCURVE",
"429 918 OFFCURVE",
"549 918 CURVE SMOOTH",
"667 918 OFFCURVE",
"772 853 OFFCURVE",
"772 589 CURVE SMOOTH",
"772 328 OFFCURVE",
"747 101 OFFCURVE",
"549 101 CURVE SMOOTH"
);
}
);
width = 1098;
}
);
unicode = 0647;
},
{
glyphname = uni0647.init;
lastChange = "2015-05-24 04:35:50 +0000";
layers = (
{
anchors = (
{
name = bottom;
position = "{578, -130}";
},
{
name = top;
position = "{578, 1400}";
}
);
layerId = "66C82CE7-ECCF-480D-AAE6-CD3075A06AEF";
name = Regular;
paths = (
{
closed = 1;
nodes = (
"77 0 LINE SMOOTH",
"267 0 OFFCURVE",
"379 62 OFFCURVE",
"379 62 CURVE SMOOTH",
"379 62 OFFCURVE",
"498 0 OFFCURVE",
"669 0 CURVE SMOOTH",
"709 0 LINE SMOOTH",
"974 0 OFFCURVE",
"1144 314 OFFCURVE",
"1144 617 CURVE SMOOTH",
"1144 928 OFFCURVE",
"920 1204 OFFCURVE",
"605 1204 CURVE SMOOTH",
"591 1204 OFFCURVE",
"560 1204 OFFCURVE",
"526 1205 CURVE SMOOTH",
"447 1205 OFFCURVE",
"376 1200 OFFCURVE",
"317 1200 CURVE SMOOTH",
"287 1200 OFFCURVE",
"261 1201 OFFCURVE",
"238 1205 CURVE SMOOTH",
"189 1212 OFFCURVE",
"160 1239 OFFCURVE",
"146 1250 CURVE",
"146 1142 OFFCURVE",
"187 1084 OFFCURVE",
"305 1084 CURVE SMOOTH",
"399 1084 LINE SMOOTH",
"630 1084 OFFCURVE",
"963 1055 OFFCURVE",
"963 613 CURVE SMOOTH",
"963 339 OFFCURVE",
"823 86 OFFCURVE",
"577 86 CURVE SMOOTH",
"543 86 OFFCURVE",
"506 91 OFFCURVE",
"468 102 CURVE",
"550 163 OFFCURVE",
"578 337 OFFCURVE",
"578 474 CURVE SMOOTH",
"578 637 OFFCURVE",
"495 850 OFFCURVE",
"356 850 CURVE SMOOTH",
"228 850 OFFCURVE",
"144 691 OFFCURVE",
"144 480 CURVE SMOOTH",
"144 358 OFFCURVE",
"180 174 OFFCURVE",
"288 118 CURVE",
"279 111 OFFCURVE",
"262 109 OFFCURVE",
"242 109 CURVE SMOOTH",
"198 109 OFFCURVE",
"140 121 OFFCURVE",
"140 121 CURVE SMOOTH",
"-33 121 LINE SMOOTH",
"-37 121 OFFCURVE",
"-40 117 OFFCURVE",
"-40 114 CURVE SMOOTH",
"-40 7 LINE SMOOTH",
"-40 3 OFFCURVE",
"-37 0 OFFCURVE",
"-33 0 CURVE SMOOTH"
);
},
{
closed = 1;
nodes = (
"280 157 OFFCURVE",
"225 324 OFFCURVE",
"225 465 CURVE SMOOTH",
"225 579 OFFCURVE",
"260 778 OFFCURVE",
"340 778 CURVE SMOOTH",
"438 778 OFFCURVE",
"480 570 OFFCURVE",
"480 468 CURVE",
"481 455 OFFCURVE",
"480 157 OFFCURVE",
"361 157 CURVE SMOOTH"
);
}
);
width = 1319;
}
);
unicode = FEEB;
},
{
glyphname = uni0647.medi;
lastChange = "2015-05-24 04:35:50 +0000";
layers = (
{
anchors = (
{
name = bottom;
position = "{578, -130}";
},
{
name = top;
position = "{578, 1400}";
}
);
layerId = "66C82CE7-ECCF-480D-AAE6-CD3075A06AEF";
name = Regular;
paths = (
{
closed = 1;
nodes = (
"76 0 LINE SMOOTH",
"266 0 OFFCURVE",
"378 62 OFFCURVE",
"378 62 CURVE SMOOTH",
"378 62 OFFCURVE",
"497 0 OFFCURVE",
"668 0 CURVE SMOOTH",
"708 0 LINE SMOOTH",
"774 0 OFFCURVE",
"833 19 OFFCURVE",
"886 53 CURVE",
"932 20 OFFCURVE",
"983 0 OFFCURVE",
"1076 0 CURVE SMOOTH",
"1412 0 LINE SMOOTH",
"1415 0 OFFCURVE",
"1419 3 OFFCURVE",
"1419 7 CURVE SMOOTH",
"1419 115 LINE SMOOTH",
"1419 118 OFFCURVE",
"1415 121 OFFCURVE",
"1412 121 CURVE SMOOTH",
"967 121 LINE",
"1079 240 OFFCURVE",
"1143 431 OFFCURVE",
"1143 618 CURVE SMOOTH",
"1143 929 OFFCURVE",
"920 1205 OFFCURVE",
"604 1205 CURVE SMOOTH",
"590 1205 OFFCURVE",
"559 1205 OFFCURVE",
"525 1206 CURVE SMOOTH",
"447 1206 OFFCURVE",
"375 1201 OFFCURVE",
"316 1201 CURVE SMOOTH",
"287 1201 OFFCURVE",
"260 1202 OFFCURVE",
"238 1206 CURVE SMOOTH",
"188 1213 OFFCURVE",
"159 1239 OFFCURVE",
"145 1250 CURVE",
"145 1142 OFFCURVE",
"186 1084 OFFCURVE",
"304 1084 CURVE SMOOTH",
"398 1084 LINE SMOOTH",
"629 1084 OFFCURVE",
"963 1055 OFFCURVE",
"963 613 CURVE SMOOTH",
"963 339 OFFCURVE",
"822 86 OFFCURVE",
"576 86 CURVE SMOOTH",
"542 86 OFFCURVE",
"505 91 OFFCURVE",
"467 102 CURVE",
"549 163 OFFCURVE",
"578 338 OFFCURVE",
"578 474 CURVE SMOOTH",
"578 637 OFFCURVE",
"494 851 OFFCURVE",
"355 851 CURVE SMOOTH",
"227 851 OFFCURVE",
"143 692 OFFCURVE",
"143 481 CURVE SMOOTH",
"143 359 OFFCURVE",
"179 175 OFFCURVE",
"287 119 CURVE",
"278 112 OFFCURVE",
"261 109 OFFCURVE",
"240 109 CURVE SMOOTH",
"196 109 OFFCURVE",
"139 121 OFFCURVE",
"139 121 CURVE SMOOTH",
"-34 121 LINE SMOOTH",
"-38 121 OFFCURVE",
"-40 117 OFFCURVE",
"-40 114 CURVE SMOOTH",
"-40 8 LINE SMOOTH",
"-40 3 OFFCURVE",
"-38 0 OFFCURVE",
"-34 0 CURVE SMOOTH"
);
},
{
closed = 1;
nodes = (
"280 158 OFFCURVE",
"224 324 OFFCURVE",
"224 466 CURVE SMOOTH",
"224 579 OFFCURVE",
"260 779 OFFCURVE",
"339 779 CURVE SMOOTH",
"437 779 OFFCURVE",
"479 571 OFFCURVE",
"479 469 CURVE",
"480 456 OFFCURVE",
"479 158 OFFCURVE",
"360 158 CURVE SMOOTH"
);
}
);
width = 1379;
}
);
unicode = FEEC;
},
{
glyphname = uni0647.fina;
lastChange = "2015-05-24 04:35:50 +0000";
layers = (
{
anchors = (
{
name = bottom;
position = "{550, -130}";
},
{
name = top;
position = "{550, 1200}";
}
);
layerId = "66C82CE7-ECCF-480D-AAE6-CD3075A06AEF";
name = Regular;
paths = (
{
closed = 1;
nodes = (
"493 -4 LINE SMOOTH",
"574 -4 OFFCURVE",
"644 22 OFFCURVE",
"691 45 CURVE",
"735 15 OFFCURVE",
"787 0 OFFCURVE",
"873 0 CURVE SMOOTH",
"1185 0 LINE SMOOTH",
"1187 0 OFFCURVE",
"1191 4 OFFCURVE",
"1191 7 CURVE SMOOTH",
"1191 115 LINE SMOOTH",
"1191 118 OFFCURVE",
"1187 121 OFFCURVE",
"1185 121 CURVE SMOOTH",
"948 121 LINE",
"948 699 LINE SMOOTH",
"948 884 OFFCURVE",
"860 1038 OFFCURVE",
"570 1038 CURVE SMOOTH",
"342 1038 OFFCURVE",
"133 911 OFFCURVE",
"133 568 CURVE SMOOTH",
"133 442 LINE SMOOTH",
"133 226 OFFCURVE",
"210 -4 OFFCURVE",
"476 -4 CURVE SMOOTH"
);
},
{
closed = 1;
nodes = (
"332 121 OFFCURVE",
"326 444 OFFCURVE",
"326 511 CURVE SMOOTH",
"326 797 OFFCURVE",
"407 916 OFFCURVE",
"555 916 CURVE SMOOTH",
"671 916 OFFCURVE",
"755 863 OFFCURVE",
"755 675 CURVE SMOOTH",
"755 121 LINE",
"602 121 LINE SMOOTH"
);
}
);
width = 1151;
}
);
unicode = FEEA;
},
{
glyphname = uni0648;
lastChange = "2015-05-24 04:35:50 +0000";
layers = (
{
anchors = (
{
name = bottom;
position = "{575, -600}";
},
{
name = top;
position = "{575, 1200}";
}
);
layerId = "66C82CE7-ECCF-480D-AAE6-CD3075A06AEF";
name = Regular;
paths = (
{
closed = 1;
nodes = (
"741 -509 OFFCURVE",
"819 -479 OFFCURVE",
"876 -413 CURVE SMOOTH",
"932 -344 OFFCURVE",
"961 -264 OFFCURVE",
"961 -164 CURVE SMOOTH",
"961 699 LINE SMOOTH",
"961 885 OFFCURVE",
"873 1038 OFFCURVE",
"582 1038 CURVE SMOOTH",
"355 1038 OFFCURVE",
"145 912 OFFCURVE",
"145 569 CURVE SMOOTH",
"145 562 OFFCURVE",
"145 451 OFFCURVE",
"146 443 CURVE",
"146 227 OFFCURVE",
"222 0 OFFCURVE",
"489 0 CURVE SMOOTH",
"507 0 LINE SMOOTH",
"653 0 OFFCURVE",
"766 80 OFFCURVE",
"769 80 CURVE",
"769 -189 LINE",
"766 -262 OFFCURVE",
"737 -317 OFFCURVE",
"686 -356 CURVE SMOOTH",
"642 -390 OFFCURVE",
"589 -411 OFFCURVE",
"529 -411 CURVE SMOOTH",
"479 -411 OFFCURVE",
"429 -406 OFFCURVE",
"378 -394 CURVE",
"388 -405 OFFCURVE",
"461 -509 OFFCURVE",
"638 -509 CURVE SMOOTH"
);
},
{
closed = 1;
nodes = (
"342 121 OFFCURVE",
"338 453 OFFCURVE",
"338 513 CURVE SMOOTH",
"338 795 OFFCURVE",
"420 915 OFFCURVE",
"568 915 CURVE SMOOTH",
"684 915 OFFCURVE",
"769 863 OFFCURVE",
"769 675 CURVE SMOOTH",
"769 121 LINE",
"615 121 LINE SMOOTH"
);
}
);
width = 1106;
}
);
unicode = 0648;
},
{
glyphname = uni0648.fina;
lastChange = "2015-05-24 04:35:50 +0000";
layers = (
{
anchors = (
{
name = bottom;
position = "{575, -600}";
},
{
name = top;
position = "{575, 1200}";
}
);
layerId = "66C82CE7-ECCF-480D-AAE6-CD3075A06AEF";
name = Regular;
paths = (
{
closed = 1;
nodes = (
"740 -509 OFFCURVE",
"818 -479 OFFCURVE",
"875 -413 CURVE SMOOTH",
"931 -344 OFFCURVE",
"960 -264 OFFCURVE",
"960 -163 CURVE SMOOTH",
"960 51 LINE",
"1007 19 OFFCURVE",
"1057 0 OFFCURVE",
"1149 0 CURVE SMOOTH",
"1145 0 LINE",
"1148 0 OFFCURVE",
"1153 3 OFFCURVE",
"1153 6 CURVE SMOOTH",
"1153 115 LINE SMOOTH",
"1153 118 OFFCURVE",
"1148 121 OFFCURVE",
"1145 121 CURVE SMOOTH",
"960 121 LINE",
"960 699 LINE SMOOTH",
"960 885 OFFCURVE",
"872 1038 OFFCURVE",
"581 1038 CURVE SMOOTH",
"354 1038 OFFCURVE",
"144 912 OFFCURVE",
"144 569 CURVE SMOOTH",
"144 563 OFFCURVE",
"144 452 OFFCURVE",
"145 443 CURVE",
"145 227 OFFCURVE",
"221 0 OFFCURVE",
"488 0 CURVE SMOOTH",
"506 0 LINE SMOOTH",
"652 0 OFFCURVE",
"765 80 OFFCURVE",
"768 80 CURVE",
"768 -189 LINE",
"765 -262 OFFCURVE",
"736 -317 OFFCURVE",
"685 -355 CURVE SMOOTH",
"641 -390 OFFCURVE",
"588 -411 OFFCURVE",
"528 -411 CURVE SMOOTH",
"478 -411 OFFCURVE",
"428 -406 OFFCURVE",
"377 -394 CURVE",
"387 -405 OFFCURVE",
"460 -509 OFFCURVE",
"637 -509 CURVE SMOOTH"
);
},
{
closed = 1;
nodes = (
"341 121 OFFCURVE",
"337 453 OFFCURVE",
"337 513 CURVE SMOOTH",
"337 796 OFFCURVE",
"419 915 OFFCURVE",
"567 915 CURVE SMOOTH",
"683 915 OFFCURVE",
"768 863 OFFCURVE",
"768 675 CURVE SMOOTH",
"768 121 LINE",
"614 121 LINE SMOOTH"
);
}
);
width = 1133;
}
);
unicode = FEEE;
},
{
glyphname = uni0649;
lastChange = "2015-05-24 04:37:35 +0000";
layers = (
{
anchors = (
{
name = bottom;
position = "{930, -700}";
},
{
name = top;
position = "{336, 761}";
}
);
layerId = "66C82CE7-ECCF-480D-AAE6-CD3075A06AEF";
name = Regular;
paths = (
{
closed = 1;
nodes = (
"1409 -509 OFFCURVE",
"1726 -153 OFFCURVE",
"1726 78 CURVE SMOOTH",
"1726 282 OFFCURVE",
"1566 380 OFFCURVE",
"1452 380 CURVE SMOOTH",
"1079 380 LINE SMOOTH",
"1063 380 OFFCURVE",
"1059 385 OFFCURVE",
"1059 385 CURVE",
"1059 615 OFFCURVE",
"1139 834 OFFCURVE",
"1477 834 CURVE SMOOTH",
"1539 834 OFFCURVE",
"1593 824 OFFCURVE",
"1627 809 CURVE",
"1630 822 OFFCURVE",
"1632 838 OFFCURVE",
"1632 856 CURVE SMOOTH",
"1632 933 OFFCURVE",
"1591 1038 OFFCURVE",
"1412 1038 CURVE SMOOTH",
"1141 1038 OFFCURVE",
"894 847 OFFCURVE",
"894 488 CURVE SMOOTH",
"894 482 OFFCURVE",
"893 471 OFFCURVE",
"893 457 CURVE SMOOTH",
"893 392 OFFCURVE",
"906 259 OFFCURVE",
"1054 259 CURVE SMOOTH",
"1254 259 LINE SMOOTH",
"1541 259 OFFCURVE",
"1580 143 OFFCURVE",
"1580 88 CURVE SMOOTH",
"1580 -30 OFFCURVE",
"1407 -385 OFFCURVE",
"929 -385 CURVE SMOOTH",
"928 -385 LINE SMOOTH",
"450 -385 OFFCURVE",
"305 -136 OFFCURVE",
"305 103 CURVE SMOOTH",
"305 279 OFFCURVE",
"384 451 OFFCURVE",
"465 515 CURVE",
"465 515 OFFCURVE",
"436 559 OFFCURVE",
"346 559 CURVE SMOOTH",
"202 559 OFFCURVE",
"133 376 OFFCURVE",
"133 169 CURVE SMOOTH",
"133 -61 OFFCURVE",
"193 -509 OFFCURVE",
"930 -509 CURVE SMOOTH"
);
}
);
width = 1859;
}
);
unicode = 0649;
},
{
glyphname = uni0649.fina;
lastChange = "2015-05-24 04:36:44 +0000";
layers = (
{
anchors = (
{
name = bottom;
position = "{930, -700}";
},
{
name = top;
position = "{336, 761}";
}
);
layerId = "66C82CE7-ECCF-480D-AAE6-CD3075A06AEF";
name = Regular;
paths = (
{
closed = 1;
nodes = (
"1410 -510 OFFCURVE",
"1727 -153 OFFCURVE",
"1727 78 CURVE SMOOTH",
"1727 282 OFFCURVE",
"1568 384 OFFCURVE",
"1453 384 CURVE SMOOTH",
"1060 385 LINE",
"1060 507 LINE SMOOTH",
"1060 792 OFFCURVE",
"1345 910 OFFCURVE",
"1697 910 CURVE SMOOTH",
"1728 910 OFFCURVE",
"1818 909 OFFCURVE",
"1877 909 CURVE",
"1877 769 LINE SMOOTH",
"1877 639 OFFCURVE",
"1883 338 OFFCURVE",
"1975 166 CURVE SMOOTH",
"2035 52 OFFCURVE",
"2153 0 OFFCURVE",
"2295 0 CURVE SMOOTH",
"2488 0 LINE SMOOTH",
"2492 0 OFFCURVE",
"2494 3 OFFCURVE",
"2494 6 CURVE SMOOTH",
"2494 115 LINE SMOOTH",
"2494 118 OFFCURVE",
"2492 121 OFFCURVE",
"2488 121 CURVE SMOOTH",
"2300 121 LINE SMOOTH",
"2116 121 OFFCURVE",
"2082 316 OFFCURVE",
"2082 503 CURVE SMOOTH",
"2082 660 OFFCURVE",
"2104 815 OFFCURVE",
"2104 838 CURVE",
"2101 989 OFFCURVE",
"1967 1037 OFFCURVE",
"1684 1037 CURVE SMOOTH",
"1223 1037 OFFCURVE",
"895 848 OFFCURVE",
"895 482 CURVE SMOOTH",
"895 409 OFFCURVE",
"895 259 OFFCURVE",
"1056 259 CURVE SMOOTH",
"1255 259 LINE SMOOTH",
"1542 259 OFFCURVE",
"1581 145 OFFCURVE",
"1581 88 CURVE SMOOTH",
"1581 -55 OFFCURVE",
"1380 -386 OFFCURVE",
"930 -386 CURVE SMOOTH",
"455 -386 OFFCURVE",
"308 -139 OFFCURVE",
"308 101 CURVE SMOOTH",
"308 273 OFFCURVE",
"383 441 OFFCURVE",
"466 515 CURVE",
"466 515 OFFCURVE",
"437 559 OFFCURVE",
"347 559 CURVE SMOOTH",
"204 559 OFFCURVE",
"134 376 OFFCURVE",
"134 169 CURVE SMOOTH",
"134 -330 OFFCURVE",
"472 -510 OFFCURVE",
"932 -510 CURVE SMOOTH"
);
}
);
width = 2454;
}
);
unicode = FEF0;
},
{
glyphname = uni06440627.isol;
lastChange = "2015-05-24 04:35:50 +0000";
layers = (
{
anchors = (
{
name = bottom_1;
position = "{1035, -130}";
},
{
name = bottom_2;
position = "{345, -130}";
},
{
name = caret_1;
position = "{690, 0}";
},
{
name = top_1;
position = "{1035, 1694}";
},
{
name = top_2;
position = "{345, 1450}";
}
);
layerId = "66C82CE7-ECCF-480D-AAE6-CD3075A06AEF";
name = Regular;
paths = (
{
closed = 1;
nodes = (
"888 0 LINE SMOOTH",
"1052 0 OFFCURVE",
"1196 117 OFFCURVE",
"1196 395 CURVE SMOOTH",
"1197 467 OFFCURVE",
"1197 595 OFFCURVE",
"1197 733 CURVE SMOOTH",
"1197 1010 OFFCURVE",
"1196 1330 OFFCURVE",
"1196 1335 CURVE SMOOTH",
"1196 1475 OFFCURVE",
"1122 1556 OFFCURVE",
"1050 1556 CURVE SMOOTH",
"973 1556 OFFCURVE",
"942 1543 OFFCURVE",
"908 1508 CURVE",
"932 1492 OFFCURVE",
"953 1463 OFFCURVE",
"973 1424 CURVE SMOOTH",
"993 1383 OFFCURVE",
"1015 1332 OFFCURVE",
"1015 1262 CURVE SMOOTH",
"1014 360 LINE SMOOTH",
"1014 248 OFFCURVE",
"957 121 OFFCURVE",
"833 121 CURVE SMOOTH",
"739 121 LINE",
"739 291 OFFCURVE",
"576 1291 OFFCURVE",
"334 1291 CURVE SMOOTH",
"274 1291 OFFCURVE",
"239 1270 OFFCURVE",
"220 1252 CURVE",
"436 1042 OFFCURVE",
"556 277 OFFCURVE",
"556 143 CURVE SMOOTH",
"556 121 LINE",
"147 121 LINE SMOOTH",
"105 120 OFFCURVE",
"92 92 OFFCURVE",
"92 60 CURVE SMOOTH",
"92 31 OFFCURVE",
"105 0 OFFCURVE",
"146 0 CURVE SMOOTH"
);
}
);
width = 1297;
}
);
unicode = FEFB;
},
{
glyphname = uni06440627.fina;
lastChange = "2015-05-24 04:35:50 +0000";
layers = (
{
anchors = (
{
name = bottom_1;
position = "{1035, -130}";
},
{
name = bottom_2;
position = "{345, -130}";
},
{
name = caret_1;
position = "{690, 0}";
},
{
name = top_1;
position = "{1035, 1694}";
},
{
name = top_2;
position = "{345, 1450}";
}
);
layerId = "66C82CE7-ECCF-480D-AAE6-CD3075A06AEF";
name = Regular;
paths = (
{
closed = 1;
nodes = (
"888 0 LINE SMOOTH",
"945 0 OFFCURVE",
"1000 15 OFFCURVE",
"1047 45 CURVE",
"1090 17 OFFCURVE",
"1141 0 OFFCURVE",
"1226 0 CURVE SMOOTH",
"1466 0 LINE SMOOTH",
"1469 0 OFFCURVE",
"1473 4 OFFCURVE",
"1473 7 CURVE SMOOTH",
"1473 115 LINE SMOOTH",
"1473 118 OFFCURVE",
"1469 121 OFFCURVE",
"1466 121 CURVE SMOOTH",
"1165 121 LINE SMOOTH",
"1150 121 OFFCURVE",
"1139 124 OFFCURVE",
"1130 129 CURVE",
"1171 192 OFFCURVE",
"1196 280 OFFCURVE",
"1196 396 CURVE SMOOTH",
"1197 468 OFFCURVE",
"1197 596 OFFCURVE",
"1197 734 CURVE SMOOTH",
"1197 1011 OFFCURVE",
"1196 1330 OFFCURVE",
"1196 1335 CURVE SMOOTH",
"1196 1475 OFFCURVE",
"1122 1556 OFFCURVE",
"1050 1556 CURVE SMOOTH",
"973 1556 OFFCURVE",
"942 1543 OFFCURVE",
"908 1508 CURVE",
"932 1492 OFFCURVE",
"953 1463 OFFCURVE",
"973 1424 CURVE SMOOTH",
"993 1383 OFFCURVE",
"1015 1333 OFFCURVE",
"1015 1263 CURVE SMOOTH",
"1014 360 LINE SMOOTH",
"1014 248 OFFCURVE",
"957 121 OFFCURVE",
"833 121 CURVE SMOOTH",
"739 121 LINE",
"739 291 OFFCURVE",
"576 1292 OFFCURVE",
"334 1292 CURVE SMOOTH",
"274 1292 OFFCURVE",
"239 1271 OFFCURVE",
"220 1253 CURVE",
"436 1043 OFFCURVE",
"556 277 OFFCURVE",
"556 143 CURVE SMOOTH",
"556 121 LINE",
"147 121 LINE SMOOTH",
"105 121 OFFCURVE",
"92 92 OFFCURVE",
"92 60 CURVE SMOOTH",
"92 31 OFFCURVE",
"105 0 OFFCURVE",
"146 0 CURVE SMOOTH"
);
}
);
width = 1433;
}
);
unicode = FEFC;
},
{
glyphname = uni0640;
lastChange = "2015-05-24 04:35:50 +0000";
layers = (
{
anchors = (
{
name = bottom;
position = "{175, -228}";
},
{
name = top;
position = "{175, 1310}";
}
);
layerId = "66C82CE7-ECCF-480D-AAE6-CD3075A06AEF";
name = Regular;
paths = (
{
closed = 1;
nodes = (
"360 0 LINE SMOOTH",
"367 0 OFFCURVE",
"371 3 OFFCURVE",
"371 10 CURVE SMOOTH",
"371 113 LINE SMOOTH",
"371 118 OFFCURVE",
"367 121 OFFCURVE",
"360 121 CURVE SMOOTH",
"-10 121 LINE SMOOTH",
"-17 121 OFFCURVE",
"-20 118 OFFCURVE",
"-20 113 CURVE SMOOTH",
"-20 10 LINE SMOOTH",
"-20 3 OFFCURVE",
"-17 0 OFFCURVE",
"-10 0 CURVE SMOOTH"
);
}
);
width = 351;
}
);
unicode = 0640;
},
{
glyphname = uni066E;
lastChange = "2015-05-24 04:35:54 +0000";
layers = (
{
anchors = (
{
name = bottom;
position = "{797, -130}";
},
{
name = top;
position = "{797, 1310}";
}
);
layerId = "66C82CE7-ECCF-480D-AAE6-CD3075A06AEF";
name = Regular;
paths = (
{
closed = 1;
nodes = (
"986 0 LINE SMOOTH",
"1333 0 OFFCURVE",
"1419 335 OFFCURVE",
"1419 531 CURVE SMOOTH",
"1419 789 OFFCURVE",
"1361 1038 OFFCURVE",
"1165 1038 CURVE SMOOTH",
"1107 1038 OFFCURVE",
"1073 1016 OFFCURVE",
"1054 998 CURVE",
"1204 872 OFFCURVE",
"1231 655 OFFCURVE",
"1232 531 CURVE SMOOTH",
"1232 430 OFFCURVE",
"1230 121 OFFCURVE",
"1000 121 CURVE SMOOTH",
"505 121 LINE SMOOTH",
"368 121 OFFCURVE",
"336 277 OFFCURVE",
"336 351 CURVE SMOOTH",
"338 836 LINE SMOOTH",
"338 907 OFFCURVE",
"287 928 OFFCURVE",
"234 928 CURVE SMOOTH",
"183 928 OFFCURVE",
"134 906 OFFCURVE",
"134 838 CURVE SMOOTH",
"134 276 LINE",
"148 190 OFFCURVE",
"195 129 OFFCURVE",
"254 78 CURVE SMOOTH",
"311 30 OFFCURVE",
"375 2 OFFCURVE",
"452 0 CURVE SMOOTH"
);
}
);
width = 1552;
}
);
unicode = 066E;
},
{
glyphname = uni066E.fina;
lastChange = "2015-05-24 04:35:54 +0000";
layers = (
{
anchors = (
{
name = bottom;
position = "{797, -130}";
},
{
name = top;
position = "{797, 1310}";
}
);
layerId = "66C82CE7-ECCF-480D-AAE6-CD3075A06AEF";
name = Regular;
paths = (
{
closed = 1;
nodes = (
"985 0 LINE SMOOTH",
"1069 0 OFFCURVE",
"1138 20 OFFCURVE",
"1194 53 CURVE",
"1239 20 OFFCURVE",
"1290 0 OFFCURVE",
"1383 0 CURVE SMOOTH",
"1695 0 LINE SMOOTH",
"1698 0 OFFCURVE",
"1702 4 OFFCURVE",
"1702 7 CURVE SMOOTH",
"1702 115 LINE SMOOTH",
"1702 117 OFFCURVE",
"1698 121 OFFCURVE",
"1695 121 CURVE SMOOTH",
"1277 121 LINE",
"1384 236 OFFCURVE",
"1418 410 OFFCURVE",
"1418 531 CURVE SMOOTH",
"1418 789 OFFCURVE",
"1359 1038 OFFCURVE",
"1163 1038 CURVE SMOOTH",
"1105 1038 OFFCURVE",
"1072 1016 OFFCURVE",
"1053 997 CURVE",
"1203 871 OFFCURVE",
"1229 654 OFFCURVE",
"1230 530 CURVE SMOOTH",
"1230 430 OFFCURVE",
"1228 121 OFFCURVE",
"998 121 CURVE SMOOTH",
"503 121 LINE SMOOTH",
"367 121 OFFCURVE",
"334 277 OFFCURVE",
"334 351 CURVE SMOOTH",
"336 837 LINE SMOOTH",
"336 907 OFFCURVE",
"286 928 OFFCURVE",
"232 928 CURVE SMOOTH",
"182 928 OFFCURVE",
"133 906 OFFCURVE",
"133 839 CURVE SMOOTH",
"133 276 LINE",
"146 190 OFFCURVE",
"194 129 OFFCURVE",
"252 78 CURVE",
"310 31 OFFCURVE",
"374 3 OFFCURVE",
"451 0 CURVE"
);
}
);
width = 1662;
}
);
},
{
glyphname = uni066F.init;
lastChange = "2015-05-24 04:35:50 +0000";
layers = (
{
anchors = (
{
name = bottom;
position = "{579, -130}";
},
{
name = top;
position = "{579, 1200}";
}
);
layerId = "66C82CE7-ECCF-480D-AAE6-CD3075A06AEF";
name = Regular;
paths = (
{
closed = 1;
nodes = (
"557 0 LINE SMOOTH",
"847 0 OFFCURVE",
"996 229 OFFCURVE",
"996 438 CURVE SMOOTH",
"996 700 LINE SMOOTH",
"996 884 OFFCURVE",
"909 1037 OFFCURVE",
"618 1037 CURVE SMOOTH",
"393 1037 OFFCURVE",
"184 913 OFFCURVE",
"184 569 CURVE SMOOTH",
"184 442 LINE SMOOTH",
"184 325 OFFCURVE",
"207 207 OFFCURVE",
"270 121 CURVE",
"-34 121 LINE SMOOTH",
"-37 121 OFFCURVE",
"-40 118 OFFCURVE",
"-40 115 CURVE SMOOTH",
"-40 5 LINE SMOOTH",
"-40 2 OFFCURVE",
"-37 0 OFFCURVE",
"-34 0 CURVE SMOOTH"
);
},
{
closed = 1;
nodes = (
"384 121 OFFCURVE",
"378 439 OFFCURVE",
"378 508 CURVE SMOOTH",
"378 796 OFFCURVE",
"457 915 OFFCURVE",
"605 915 CURVE SMOOTH",
"721 915 OFFCURVE",
"803 861 OFFCURVE",
"803 674 CURVE SMOOTH",
"803 171 LINE SMOOTH",
"803 140 OFFCURVE",
"785 121 OFFCURVE",
"770 121 CURVE SMOOTH",
"651 121 LINE SMOOTH"
);
}
);
width = 1178;
}
);
},
{
glyphname = uni066F.medi;
lastChange = "2015-05-24 04:35:50 +0000";
layers = (
{
anchors = (
{
name = bottom;
position = "{578, -130}";
},
{
name = top;
position = "{578, 1200}";
}
);
layerId = "66C82CE7-ECCF-480D-AAE6-CD3075A06AEF";
name = Regular;
paths = (
{
closed = 1;
nodes = (
"556 0 LINE SMOOTH",
"642 0 OFFCURVE",
"715 20 OFFCURVE",
"776 54 CURVE",
"822 20 OFFCURVE",
"874 0 OFFCURVE",
"968 0 CURVE SMOOTH",
"1223 0 LINE SMOOTH",
"1226 0 OFFCURVE",
"1230 3 OFFCURVE",
"1230 6 CURVE SMOOTH",
"1230 114 LINE SMOOTH",
"1230 117 OFFCURVE",
"1226 121 OFFCURVE",
"1223 121 CURVE SMOOTH",
"865 121 LINE",
"951 205 OFFCURVE",
"995 324 OFFCURVE",
"995 438 CURVE SMOOTH",
"995 698 LINE SMOOTH",
"995 882 OFFCURVE",
"908 1035 OFFCURVE",
"617 1035 CURVE SMOOTH",
"391 1035 OFFCURVE",
"183 911 OFFCURVE",
"183 567 CURVE SMOOTH",
"183 442 LINE SMOOTH",
"183 325 OFFCURVE",
"206 207 OFFCURVE",
"268 121 CURVE",
"-34 121 LINE SMOOTH",
"-37 121 OFFCURVE",
"-40 118 OFFCURVE",
"-40 115 CURVE SMOOTH",
"-40 5 LINE SMOOTH",
"-40 2 OFFCURVE",
"-37 0 OFFCURVE",
"-34 0 CURVE SMOOTH"
);
},
{
closed = 1;
nodes = (
"382 121 OFFCURVE",
"376 439 OFFCURVE",
"376 508 CURVE SMOOTH",
"376 796 OFFCURVE",
"455 913 OFFCURVE",
"604 913 CURVE SMOOTH",
"720 913 OFFCURVE",
"802 859 OFFCURVE",
"802 672 CURVE SMOOTH",
"802 171 LINE SMOOTH",
"802 140 OFFCURVE",
"784 121 OFFCURVE",
"769 121 CURVE SMOOTH",
"650 121 LINE SMOOTH"
);
}
);
width = 1190;
}
);
},
{
glyphname = feh_dotless.isol;
lastChange = "2015-05-24 03:53:40 +0000";
layers = (
{
anchors = (
{
name = bottom;
position = "{1518, -130}";
},
{
name = top;
position = "{1518, 1200}";
}
);
layerId = "66C82CE7-ECCF-480D-AAE6-CD3075A06AEF";
name = Regular;
paths = (
{
closed = 1;
nodes = (
"1459 0 LINE SMOOTH",
"1749 0 OFFCURVE",
"1898 229 OFFCURVE",
"1898 438 CURVE SMOOTH",
"1898 700 LINE SMOOTH",
"1898 885 OFFCURVE",
"1811 1037 OFFCURVE",
"1520 1037 CURVE SMOOTH",
"1307 1037 OFFCURVE",
"1086 913 OFFCURVE",
"1086 570 CURVE SMOOTH",
"1086 442 LINE SMOOTH",
"1086 325 OFFCURVE",
"1109 207 OFFCURVE",
"1172 121 CURVE",
"1172 121 OFFCURVE",
"600 121 OFFCURVE",
"594 122 CURVE",
"500 122 OFFCURVE",
"318 133 OFFCURVE",
"318 412 CURVE SMOOTH",
"318 609 OFFCURVE",
"396 713 OFFCURVE",
"457 758 CURVE",
"426 783 OFFCURVE",
"390 796 OFFCURVE",
"354 796 CURVE SMOOTH",
"246 796 OFFCURVE",
"135 681 OFFCURVE",
"135 412 CURVE SMOOTH",
"135 245 OFFCURVE",
"253 0 OFFCURVE",
"549 0 CURVE SMOOTH"
);
},
{
closed = 1;
nodes = (
"1285 121 OFFCURVE",
"1279 445 OFFCURVE",
"1279 513 CURVE SMOOTH",
"1279 799 OFFCURVE",
"1359 916 OFFCURVE",
"1506 916 CURVE SMOOTH",
"1623 916 OFFCURVE",
"1705 863 OFFCURVE",
"1705 675 CURVE SMOOTH",
"1705 171 LINE SMOOTH",
"1705 140 OFFCURVE",
"1687 121 OFFCURVE",
"1671 121 CURVE SMOOTH",
"1553 121 LINE SMOOTH"
);
}
);
width = 2031;
}
);
},
{
glyphname = uni06A1.fina;
lastChange = "2015-05-24 04:35:50 +0000";
layers = (
{
anchors = (
{
name = bottom;
position = "{1518, -130}";
},
{
name = top;
position = "{1518, 1200}";
}
);
layerId = "66C82CE7-ECCF-480D-AAE6-CD3075A06AEF";
name = Regular;
paths = (
{
closed = 1;
nodes = (
"1460 0 LINE SMOOTH",
"1544 0 OFFCURVE",
"1617 20 OFFCURVE",
"1677 53 CURVE",
"1723 20 OFFCURVE",
"1774 0 OFFCURVE",
"1867 0 CURVE SMOOTH",
"2128 0 LINE SMOOTH",
"2131 0 OFFCURVE",
"2134 4 OFFCURVE",
"2134 7 CURVE SMOOTH",
"2134 115 LINE SMOOTH",
"2134 118 OFFCURVE",
"2131 121 OFFCURVE",
"2128 121 CURVE SMOOTH",
"1768 121 LINE",
"1855 205 OFFCURVE",
"1899 326 OFFCURVE",
"1899 439 CURVE SMOOTH",
"1899 698 LINE SMOOTH",
"1899 883 OFFCURVE",
"1812 1036 OFFCURVE",
"1521 1036 CURVE SMOOTH",
"1295 1036 OFFCURVE",
"1086 911 OFFCURVE",
"1086 568 CURVE SMOOTH",
"1086 443 LINE SMOOTH",
"1086 327 OFFCURVE",
"1109 207 OFFCURVE",
"1171 121 CURVE",
"1082 121 OFFCURVE",
"603 121 OFFCURVE",
"595 122 CURVE",
"501 122 OFFCURVE",
"318 133 OFFCURVE",
"318 412 CURVE SMOOTH",
"318 608 OFFCURVE",
"397 712 OFFCURVE",
"458 757 CURVE",
"427 782 OFFCURVE",
"391 795 OFFCURVE",
"354 795 CURVE SMOOTH",
"246 795 OFFCURVE",
"135 681 OFFCURVE",
"135 412 CURVE SMOOTH",
"135 245 OFFCURVE",
"253 0 OFFCURVE",
"550 0 CURVE SMOOTH"
);
},
{
closed = 1;
nodes = (
"1286 121 OFFCURVE",
"1280 440 OFFCURVE",
"1280 510 CURVE SMOOTH",
"1280 796 OFFCURVE",
"1358 914 OFFCURVE",
"1508 914 CURVE SMOOTH",
"1624 914 OFFCURVE",
"1706 861 OFFCURVE",
"1706 673 CURVE SMOOTH",
"1706 171 LINE SMOOTH",
"1706 140 OFFCURVE",
"1688 121 OFFCURVE",
"1672 121 CURVE SMOOTH",
"1554 121 LINE SMOOTH"
);
}
);
width = 2094;
}
);
},
{
glyphname = uni066F;
lastChange = "2015-05-24 04:35:50 +0000";
layers = (
{
anchors = (
{
name = bottom;
position = "{935, -600}";
},
{
name = top;
position = "{1340, 1200}";
}
);
layerId = "66C82CE7-ECCF-480D-AAE6-CD3075A06AEF";
name = Regular;
paths = (
{
closed = 1;
nodes = (
"1409 -510 OFFCURVE",
"1726 -155 OFFCURVE",
"1726 77 CURVE SMOOTH",
"1725 700 LINE",
"1725 885 OFFCURVE",
"1639 1038 OFFCURVE",
"1348 1038 CURVE SMOOTH",
"1122 1038 OFFCURVE",
"913 913 OFFCURVE",
"913 570 CURVE SMOOTH",
"913 563 OFFCURVE",
"913 452 OFFCURVE",
"914 443 CURVE",
"914 227 OFFCURVE",
"990 0 OFFCURVE",
"1258 0 CURVE SMOOTH",
"1287 0 LINE SMOOTH",
"1410 0 OFFCURVE",
"1508 41 OFFCURVE",
"1579 105 CURVE",
"1580 98 OFFCURVE",
"1580 92 OFFCURVE",
"1580 86 CURVE SMOOTH",
"1580 -31 OFFCURVE",
"1408 -387 OFFCURVE",
"929 -387 CURVE SMOOTH",
"928 -387 LINE SMOOTH",
"450 -387 OFFCURVE",
"305 -138 OFFCURVE",
"305 102 CURVE SMOOTH",
"305 278 OFFCURVE",
"384 450 OFFCURVE",
"465 514 CURVE",
"465 514 OFFCURVE",
"436 558 OFFCURVE",
"346 558 CURVE SMOOTH",
"202 558 OFFCURVE",
"133 374 OFFCURVE",
"133 167 CURVE SMOOTH",
"133 -62 OFFCURVE",
"193 -510 OFFCURVE",
"930 -510 CURVE SMOOTH"
);
},
{
closed = 1;
nodes = (
"1113 121 OFFCURVE",
"1107 440 OFFCURVE",
"1107 510 CURVE SMOOTH",
"1107 797 OFFCURVE",
"1185 916 OFFCURVE",
"1334 916 CURVE SMOOTH",
"1451 916 OFFCURVE",
"1533 863 OFFCURVE",
"1533 675 CURVE SMOOTH",
"1533 171 LINE SMOOTH",
"1533 140 OFFCURVE",
"1515 121 OFFCURVE",
"1499 121 CURVE SMOOTH",
"1381 121 LINE SMOOTH"
);
}
);
width = 1859;
}
);
unicode = 066F;
},
{
glyphname = uni066F.fina;
lastChange = "2015-05-24 04:35:50 +0000";
layers = (
{
anchors = (
{
name = bottom;
position = "{935, -600}";
},
{
name = top;
position = "{1340, 1200}";
}
);
layerId = "66C82CE7-ECCF-480D-AAE6-CD3075A06AEF";
name = Regular;
paths = (
{
closed = 1;
nodes = (
"1392 -512 OFFCURVE",
"1703 -183 OFFCURVE",
"1725 49 CURVE",
"1770 18 OFFCURVE",
"1820 0 OFFCURVE",
"1910 0 CURVE SMOOTH",
"1953 0 LINE SMOOTH",
"1956 0 OFFCURVE",
"1960 3 OFFCURVE",
"1960 6 CURVE SMOOTH",
"1960 115 LINE SMOOTH",
"1960 118 OFFCURVE",
"1956 121 OFFCURVE",
"1953 121 CURVE SMOOTH",
"1726 121 LINE",
"1725 699 LINE",
"1725 883 OFFCURVE",
"1639 1036 OFFCURVE",
"1348 1036 CURVE SMOOTH",
"1123 1036 OFFCURVE",
"914 911 OFFCURVE",
"914 569 CURVE SMOOTH",
"914 562 OFFCURVE",
"914 450 OFFCURVE",
"915 440 CURVE",
"915 225 OFFCURVE",
"991 -2 OFFCURVE",
"1258 -2 CURVE SMOOTH",
"1287 -2 LINE SMOOTH",
"1410 -2 OFFCURVE",
"1508 39 OFFCURVE",
"1579 103 CURVE",
"1580 95 OFFCURVE",
"1580 90 OFFCURVE",
"1580 84 CURVE SMOOTH",
"1580 -34 OFFCURVE",
"1408 -389 OFFCURVE",
"930 -389 CURVE SMOOTH",
"929 -389 LINE SMOOTH",
"451 -389 OFFCURVE",
"306 -140 OFFCURVE",
"306 100 CURVE SMOOTH",
"306 276 OFFCURVE",
"385 448 OFFCURVE",
"466 512 CURVE",
"466 512 OFFCURVE",
"437 556 OFFCURVE",
"347 556 CURVE SMOOTH",
"203 556 OFFCURVE",
"134 372 OFFCURVE",
"134 164 CURVE SMOOTH",
"134 -64 OFFCURVE",
"194 -512 OFFCURVE",
"931 -512 CURVE SMOOTH"
);
},
{
closed = 1;
nodes = (
"1114 121 OFFCURVE",
"1108 438 OFFCURVE",
"1108 508 CURVE SMOOTH",
"1108 793 OFFCURVE",
"1186 914 OFFCURVE",
"1334 914 CURVE SMOOTH",
"1451 914 OFFCURVE",
"1533 861 OFFCURVE",
"1533 674 CURVE SMOOTH",
"1533 172 LINE SMOOTH",
"1533 141 OFFCURVE",
"1515 121 OFFCURVE",
"1499 121 CURVE SMOOTH",
"1381 121 LINE SMOOTH"
);
}
);
width = 1940;
}
);
},
{
glyphname = onedot.above;
lastChange = "2015-05-24 03:38:45 +0000";
layers = (
{
layerId = "66C82CE7-ECCF-480D-AAE6-CD3075A06AEF";
name = Regular;
paths = (
{
closed = 1;
nodes = (
"63 1229 OFFCURVE",
"115 1280 OFFCURVE",
"115 1343 CURVE SMOOTH",
"115 1407 OFFCURVE",
"63 1458 OFFCURVE",
"0 1458 CURVE SMOOTH",
"-63 1458 OFFCURVE",
"-115 1407 OFFCURVE",
"-115 1343 CURVE SMOOTH",
"-115 1280 OFFCURVE",
"-63 1229 OFFCURVE",
"0 1229 CURVE SMOOTH"
);
}
);
width = 0;
}
);
},
{
glyphname = twodots.above;
lastChange = "2015-05-24 03:38:45 +0000";
layers = (
{
layerId = "66C82CE7-ECCF-480D-AAE6-CD3075A06AEF";
name = Regular;
paths = (
{
closed = 1;
nodes = (
"237 1229 OFFCURVE",
"288 1280 OFFCURVE",
"288 1343 CURVE SMOOTH",
"288 1406 OFFCURVE",
"237 1458 OFFCURVE",
"174 1458 CURVE SMOOTH",
"111 1458 OFFCURVE",
"59 1406 OFFCURVE",
"59 1343 CURVE SMOOTH",
"59 1280 OFFCURVE",
"111 1229 OFFCURVE",
"174 1229 CURVE SMOOTH"
);
},
{
closed = 1;
nodes = (
"-117 1229 OFFCURVE",
"-66 1280 OFFCURVE",
"-66 1343 CURVE SMOOTH",
"-66 1406 OFFCURVE",
"-117 1458 OFFCURVE",
"-180 1458 CURVE SMOOTH",
"-243 1458 OFFCURVE",
"-295 1406 OFFCURVE",
"-295 1343 CURVE SMOOTH",
"-295 1280 OFFCURVE",
"-243 1229 OFFCURVE",
"-180 1229 CURVE SMOOTH"
);
}
);
width = 0;
}
);
},
{
glyphname = threedots.above;
lastChange = "2015-05-24 03:38:45 +0000";
layers = (
{
layerId = "66C82CE7-ECCF-480D-AAE6-CD3075A06AEF";
name = Regular;
paths = (
{
closed = 1;
nodes = (
"239 1229 OFFCURVE",
"291 1280 OFFCURVE",
"291 1343 CURVE SMOOTH",
"291 1407 OFFCURVE",
"239 1458 OFFCURVE",
"176 1458 CURVE SMOOTH",
"113 1458 OFFCURVE",
"62 1407 OFFCURVE",
"62 1343 CURVE SMOOTH",
"62 1280 OFFCURVE",
"113 1229 OFFCURVE",
"176 1229 CURVE SMOOTH"
);
},
{
closed = 1;
nodes = (
"-114 1229 OFFCURVE",
"-62 1280 OFFCURVE",
"-62 1343 CURVE SMOOTH",
"-62 1407 OFFCURVE",
"-114 1458 OFFCURVE",
"-177 1458 CURVE SMOOTH",
"-240 1458 OFFCURVE",
"-291 1407 OFFCURVE",
"-291 1343 CURVE SMOOTH",
"-291 1280 OFFCURVE",
"-240 1229 OFFCURVE",
"-177 1229 CURVE SMOOTH"
);
},
{
closed = 1;
nodes = (
"58 1505 OFFCURVE",
"106 1552 OFFCURVE",
"106 1611 CURVE SMOOTH",
"106 1670 OFFCURVE",
"58 1717 OFFCURVE",
"0 1717 CURVE SMOOTH",
"-59 1717 OFFCURVE",
"-106 1670 OFFCURVE",
"-106 1611 CURVE SMOOTH",
"-106 1552 OFFCURVE",
"-59 1505 OFFCURVE",
"0 1505 CURVE SMOOTH"
);
}
);
width = 0;
}
);
},
{
glyphname = threedots.below;
lastChange = "2015-05-24 03:38:45 +0000";
layers = (
{
layerId = "66C82CE7-ECCF-480D-AAE6-CD3075A06AEF";
name = Regular;
paths = (
{
closed = 1;
nodes = (
"240 -393 OFFCURVE",
"291 -342 OFFCURVE",
"291 -278 CURVE SMOOTH",
"291 -215 OFFCURVE",
"240 -164 OFFCURVE",
"177 -164 CURVE SMOOTH",
"113 -164 OFFCURVE",
"62 -215 OFFCURVE",
"62 -278 CURVE SMOOTH",
"62 -342 OFFCURVE",
"113 -393 OFFCURVE",
"177 -393 CURVE SMOOTH"
);
},
{
closed = 1;
nodes = (
"58 -652 OFFCURVE",
"106 -605 OFFCURVE",
"106 -546 CURVE SMOOTH",
"106 -488 OFFCURVE",
"58 -440 OFFCURVE",
"0 -440 CURVE SMOOTH",
"-58 -440 OFFCURVE",
"-106 -488 OFFCURVE",
"-106 -546 CURVE SMOOTH",
"-106 -605 OFFCURVE",
"-58 -652 OFFCURVE",
"0 -652 CURVE SMOOTH"
);
},
{
closed = 1;
nodes = (
"-113 -393 OFFCURVE",
"-62 -342 OFFCURVE",
"-62 -278 CURVE SMOOTH",
"-62 -215 OFFCURVE",
"-113 -164 OFFCURVE",
"-176 -164 CURVE SMOOTH",
"-240 -164 OFFCURVE",
"-291 -215 OFFCURVE",
"-291 -278 CURVE SMOOTH",
"-291 -342 OFFCURVE",
"-240 -393 OFFCURVE",
"-176 -393 CURVE SMOOTH"
);
}
);
width = 0;
}
);
},
{
glyphname = uni0660;
lastChange = "2015-05-24 03:38:45 +0000";
layers = (
{
layerId = "66C82CE7-ECCF-480D-AAE6-CD3075A06AEF";
name = Regular;
paths = (
{
closed = 1;
nodes = (
"462 389 OFFCURVE",
"536 463 OFFCURVE",
"536 555 CURVE SMOOTH",
"536 646 OFFCURVE",
"462 720 OFFCURVE",
"370 720 CURVE SMOOTH",
"279 720 OFFCURVE",
"205 646 OFFCURVE",
"205 555 CURVE SMOOTH",
"205 463 OFFCURVE",
"279 389 OFFCURVE",
"370 389 CURVE SMOOTH"
);
}
);
width = 741;
}
);
unicode = 0660;
},
{
glyphname = uni0661;
lastChange = "2015-05-24 03:38:45 +0000";
layers = (
{
layerId = "66C82CE7-ECCF-480D-AAE6-CD3075A06AEF";
name = Regular;
paths = (
{
closed = 1;
nodes = (
"351 0 OFFCURVE",
"400 37 OFFCURVE",
"400 118 CURVE SMOOTH",
"400 1330 LINE",
"301 1380 LINE",
"298 1380 OFFCURVE",
"187 1326 OFFCURVE",
"146 1305 CURVE",
"157 1286 OFFCURVE",
"167 1263 OFFCURVE",
"175 1237 CURVE SMOOTH",
"188 1196 OFFCURVE",
"194 1147 OFFCURVE",
"194 1080 CURVE SMOOTH",
"194 769 LINE",
"194 117 LINE SMOOTH",
"194 48 OFFCURVE",
"224 0 OFFCURVE",
"296 0 CURVE SMOOTH"
);
}
);
width = 592;
}
);
unicode = 0661;
},
{
glyphname = uni0662;
lastChange = "2015-05-24 03:38:45 +0000";
layers = (
{
layerId = "66C82CE7-ECCF-480D-AAE6-CD3075A06AEF";
name = Regular;
paths = (
{
closed = 1;
nodes = (
"297 0 OFFCURVE",
"346 37 OFFCURVE",
"346 118 CURVE SMOOTH",
"346 1198 LINE",
"849 1174 LINE SMOOTH",
"879 1174 OFFCURVE",
"912 1186 OFFCURVE",
"912 1278 CURVE SMOOTH",
"912 1353 OFFCURVE",
"891 1380 OFFCURVE",
"846 1380 CURVE SMOOTH",
"244 1380 LINE",
"241 1379 OFFCURVE",
"134 1327 OFFCURVE",
"92 1305 CURVE",
"104 1286 OFFCURVE",
"114 1264 OFFCURVE",
"122 1237 CURVE SMOOTH",
"135 1197 OFFCURVE",
"139 1173 OFFCURVE",
"139 1106 CURVE SMOOTH",
"139 117 LINE SMOOTH",
"139 48 OFFCURVE",
"171 0 OFFCURVE",
"242 0 CURVE SMOOTH"
);
}
);
width = 984;
}
);
unicode = 0662;
},
{
glyphname = uni0663;
lastChange = "2015-05-24 03:38:45 +0000";
layers = (
{
layerId = "66C82CE7-ECCF-480D-AAE6-CD3075A06AEF";
name = Regular;
paths = (
{
closed = 1;
nodes = (
"296 0 OFFCURVE",
"345 37 OFFCURVE",
"345 118 CURVE SMOOTH",
"345 785 LINE",
"371 779 OFFCURVE",
"395 777 OFFCURVE",
"418 777 CURVE SMOOTH",
"491 777 OFFCURVE",
"545 804 OFFCURVE",
"578 827 CURVE",
"599 844 LINE",
"681 794 OFFCURVE",
"752 777 OFFCURVE",
"811 777 CURVE SMOOTH",
"884 777 OFFCURVE",
"938 804 OFFCURVE",
"971 827 CURVE SMOOTH",
"1036 873 OFFCURVE",
"1083 948 OFFCURVE",
"1107 1040 CURVE SMOOTH",
"1117 1081 OFFCURVE",
"1123 1124 OFFCURVE",
"1123 1166 CURVE SMOOTH",
"1123 1210 OFFCURVE",
"1117 1254 OFFCURVE",
"1105 1296 CURVE SMOOTH",
"1096 1330 OFFCURVE",
"1066 1353 OFFCURVE",
"1032 1353 CURVE SMOOTH",
"989 1353 OFFCURVE",
"956 1316 OFFCURVE",
"956 1277 CURVE SMOOTH",
"956 1270 OFFCURVE",
"957 1264 OFFCURVE",
"959 1257 CURVE SMOOTH",
"967 1227 OFFCURVE",
"971 1196 OFFCURVE",
"971 1166 CURVE SMOOTH",
"971 1076 OFFCURVE",
"938 991 OFFCURVE",
"883 951 CURVE SMOOTH",
"866 939 OFFCURVE",
"842 929 OFFCURVE",
"810 929 CURVE SMOOTH",
"778 929 OFFCURVE",
"738 939 OFFCURVE",
"688 967 CURVE",
"698 990 OFFCURVE",
"707 1014 OFFCURVE",
"713 1040 CURVE SMOOTH",
"723 1082 OFFCURVE",
"729 1124 OFFCURVE",
"729 1167 CURVE SMOOTH",
"729 1211 OFFCURVE",
"723 1255 OFFCURVE",
"712 1296 CURVE SMOOTH",
"703 1330 OFFCURVE",
"672 1353 OFFCURVE",
"639 1353 CURVE SMOOTH",
"595 1353 OFFCURVE",
"563 1316 OFFCURVE",
"563 1277 CURVE SMOOTH",
"563 1270 OFFCURVE",
"564 1264 OFFCURVE",
"566 1257 CURVE SMOOTH",
"574 1227 OFFCURVE",
"578 1196 OFFCURVE",
"578 1166 CURVE SMOOTH",
"578 1076 OFFCURVE",
"545 991 OFFCURVE",
"490 951 CURVE SMOOTH",
"472 939 OFFCURVE",
"448 929 OFFCURVE",
"416 929 CURVE SMOOTH",
"396 929 OFFCURVE",
"372 933 OFFCURVE",
"345 943 CURVE",
"345 1333 LINE",
"246 1383 LINE",
"243 1383 OFFCURVE",
"132 1329 OFFCURVE",
"91 1308 CURVE",
"102 1289 OFFCURVE",
"112 1267 OFFCURVE",
"120 1240 CURVE SMOOTH",
"133 1199 OFFCURVE",
"139 1150 OFFCURVE",
"139 1083 CURVE SMOOTH",
"139 772 LINE",
"139 117 LINE SMOOTH",
"139 48 OFFCURVE",
"169 0 OFFCURVE",
"241 0 CURVE SMOOTH"
);
}
);
width = 1215;
}
);
unicode = 0663;
},
{
glyphname = uni0664;
lastChange = "2015-05-24 03:38:45 +0000";
layers = (
{
layerId = "66C82CE7-ECCF-480D-AAE6-CD3075A06AEF";
name = Regular;
paths = (
{
closed = 1;
nodes = (
"819 -20 OFFCURVE",
"846 88 OFFCURVE",
"846 151 CURVE SMOOTH",
"846 175 OFFCURVE",
"842 193 OFFCURVE",
"841 195 CURVE",
"822 177 OFFCURVE",
"765 167 OFFCURVE",
"695 167 CURVE SMOOTH",
"545 167 OFFCURVE",
"337 217 OFFCURVE",
"337 359 CURVE",
"386 412 OFFCURVE",
"558 583 OFFCURVE",
"630 649 CURVE SMOOTH",
"642 660 OFFCURVE",
"653 671 OFFCURVE",
"653 686 CURVE SMOOTH",
"653 701 OFFCURVE",
"647 714 OFFCURVE",
"636 724 CURVE",
"564 798 OFFCURVE",
"358 1024 OFFCURVE",
"354 1045 CURVE",
"405 1169 OFFCURVE",
"597 1216 OFFCURVE",
"703 1216 CURVE SMOOTH",
"763 1216 OFFCURVE",
"810 1201 OFFCURVE",
"841 1187 CURVE",
"844 1205 OFFCURVE",
"846 1222 OFFCURVE",
"846 1238 CURVE SMOOTH",
"846 1363 OFFCURVE",
"742 1402 OFFCURVE",
"644 1402 CURVE SMOOTH",
"414 1402 OFFCURVE",
"182 1206 OFFCURVE",
"182 1057 CURVE SMOOTH",
"182 1044 OFFCURVE",
"189 1032 OFFCURVE",
"199 1022 CURVE",
"265 948 OFFCURVE",
"448 739 OFFCURVE",
"477 700 CURVE",
"452 674 OFFCURVE",
"267 488 OFFCURVE",
"193 415 CURVE SMOOTH",
"180 401 OFFCURVE",
"174 384 OFFCURVE",
"174 367 CURVE SMOOTH",
"174 362 OFFCURVE",
"175 356 OFFCURVE",
"176 351 CURVE SMOOTH",
"210 171 OFFCURVE",
"383 -20 OFFCURVE",
"644 -20 CURVE SMOOTH"
);
}
);
width = 917;
}
);
unicode = 0664;
},
{
glyphname = uni0665;
lastChange = "2015-05-24 03:38:45 +0000";
layers = (
{
layerId = "66C82CE7-ECCF-480D-AAE6-CD3075A06AEF";
name = Regular;
paths = (
{
closed = 1;
nodes = (
"1025 -20 OFFCURVE",
"1036 305 OFFCURVE",
"1036 599 CURVE SMOOTH",
"1036 889 OFFCURVE",
"974 1400 OFFCURVE",
"584 1400 CURVE SMOOTH",
"196 1400 OFFCURVE",
"133 889 OFFCURVE",
"133 599 CURVE SMOOTH",
"133 305 OFFCURVE",
"144 -20 OFFCURVE",
"584 -20 CURVE SMOOTH"
);
},
{
closed = 1;
nodes = (
"398 143 OFFCURVE",
"338 350 OFFCURVE",
"338 599 CURVE SMOOTH",
"338 1086 OFFCURVE",
"439 1271 OFFCURVE",
"584 1271 CURVE SMOOTH",
"730 1271 OFFCURVE",
"831 1086 OFFCURVE",
"831 599 CURVE SMOOTH",
"831 350 OFFCURVE",
"771 143 OFFCURVE",
"584 143 CURVE SMOOTH"
);
}
);
width = 1169;
}
);
unicode = 0665;
},
{
glyphname = uni0666;
lastChange = "2015-05-24 03:38:45 +0000";
layers = (
{
layerId = "66C82CE7-ECCF-480D-AAE6-CD3075A06AEF";
name = Regular;
paths = (
{
closed = 1;
nodes = (
"741 0 OFFCURVE",
"773 48 OFFCURVE",
"773 117 CURVE SMOOTH",
"773 1106 LINE SMOOTH",
"773 1173 OFFCURVE",
"777 1197 OFFCURVE",
"790 1237 CURVE SMOOTH",
"798 1264 OFFCURVE",
"808 1286 OFFCURVE",
"820 1305 CURVE",
"778 1327 OFFCURVE",
"671 1379 OFFCURVE",
"668 1380 CURVE",
"66 1380 LINE SMOOTH",
"21 1380 OFFCURVE",
"0 1353 OFFCURVE",
"0 1278 CURVE SMOOTH",
"0 1186 OFFCURVE",
"33 1174 OFFCURVE",
"63 1174 CURVE SMOOTH",
"566 1198 LINE",
"566 118 LINE SMOOTH",
"566 37 OFFCURVE",
"615 0 OFFCURVE",
"670 0 CURVE SMOOTH"
);
}
);
width = 1022;
}
);
unicode = 0666;
},
{
glyphname = uni0667;
lastChange = "2015-05-24 03:38:45 +0000";
layers = (
{
layerId = "66C82CE7-ECCF-480D-AAE6-CD3075A06AEF";
name = Regular;
paths = (
{
closed = 1;
nodes = (
"887 0 OFFCURVE",
"999 554 OFFCURVE",
"999 935 CURVE SMOOTH",
"999 1075 OFFCURVE",
"984 1192 OFFCURVE",
"961 1249 CURVE SMOOTH",
"931 1325 OFFCURVE",
"871 1379 OFFCURVE",
"807 1379 CURVE SMOOTH",
"792 1379 OFFCURVE",
"777 1376 OFFCURVE",
"762 1370 CURVE",
"805 1260 OFFCURVE",
"825 1112 OFFCURVE",
"825 957 CURVE SMOOTH",
"825 577 OFFCURVE",
"706 155 OFFCURVE",
"521 155 CURVE SMOOTH",
"336 155 OFFCURVE",
"216 578 OFFCURVE",
"216 959 CURVE SMOOTH",
"216 1113 OFFCURVE",
"236 1261 OFFCURVE",
"279 1370 CURVE",
"264 1376 OFFCURVE",
"249 1379 OFFCURVE",
"235 1379 CURVE SMOOTH",
"170 1379 OFFCURVE",
"110 1325 OFFCURVE",
"78 1249 CURVE SMOOTH",
"55 1192 OFFCURVE",
"40 1076 OFFCURVE",
"40 936 CURVE SMOOTH",
"40 555 OFFCURVE",
"152 0 OFFCURVE",
"521 0 CURVE SMOOTH"
);
}
);
width = 1041;
}
);
unicode = 0667;
},
{
glyphname = uni0668;
lastChange = "2015-05-24 03:38:45 +0000";
layers = (
{
layerId = "66C82CE7-ECCF-480D-AAE6-CD3075A06AEF";
name = Regular;
paths = (
{
closed = 1;
nodes = (
"251 0 OFFCURVE",
"266 3 OFFCURVE",
"281 9 CURVE",
"237 119 OFFCURVE",
"217 267 OFFCURVE",
"217 422 CURVE SMOOTH",
"217 802 OFFCURVE",
"337 1224 OFFCURVE",
"522 1224 CURVE SMOOTH",
"706 1224 OFFCURVE",
"826 801 OFFCURVE",
"826 420 CURVE SMOOTH",
"826 266 OFFCURVE",
"806 118 OFFCURVE",
"763 9 CURVE",
"778 3 OFFCURVE",
"793 0 OFFCURVE",
"807 0 CURVE SMOOTH",
"872 0 OFFCURVE",
"932 54 OFFCURVE",
"964 130 CURVE SMOOTH",
"987 187 OFFCURVE",
"1002 303 OFFCURVE",
"1002 442 CURVE SMOOTH",
"1002 823 OFFCURVE",
"890 1379 OFFCURVE",
"522 1379 CURVE SMOOTH",
"155 1379 OFFCURVE",
"43 824 OFFCURVE",
"43 443 CURVE SMOOTH",
"43 303 OFFCURVE",
"58 187 OFFCURVE",
"81 130 CURVE SMOOTH",
"111 54 OFFCURVE",
"171 0 OFFCURVE",
"236 0 CURVE SMOOTH"
);
}
);
width = 1042;
}
);
unicode = 0668;
},
{
glyphname = uni0669;
lastChange = "2015-05-24 03:38:45 +0000";
layers = (
{
layerId = "66C82CE7-ECCF-480D-AAE6-CD3075A06AEF";
name = Regular;
paths = (
{
closed = 1;
nodes = (
"841 0 OFFCURVE",
"872 48 OFFCURVE",
"872 117 CURVE SMOOTH",
"872 1084 LINE SMOOTH",
"872 1151 OFFCURVE",
"877 1200 OFFCURVE",
"890 1241 CURVE SMOOTH",
"898 1267 OFFCURVE",
"908 1290 OFFCURVE",
"920 1308 CURVE",
"878 1330 OFFCURVE",
"767 1383 OFFCURVE",
"765 1383 CURVE",
"697 1356 LINE SMOOTH",
"697 1356 OFFCURVE",
"600 1401 OFFCURVE",
"463 1401 CURVE SMOOTH",
"160 1401 OFFCURVE",
"61 1226 OFFCURVE",
"61 1024 CURVE SMOOTH",
"61 840 OFFCURVE",
"170 678 OFFCURVE",
"387 678 CURVE SMOOTH",
"511 678 OFFCURVE",
"597 705 OFFCURVE",
"666 728 CURVE",
"666 118 LINE SMOOTH",
"666 37 OFFCURVE",
"714 0 OFFCURVE",
"769 0 CURVE SMOOTH"
);
},
{
closed = 1;
nodes = (
"428 762 OFFCURVE",
"377 781 OFFCURVE",
"340 818 CURVE SMOOTH",
"300 857 OFFCURVE",
"280 965 OFFCURVE",
"280 1028 CURVE SMOOTH",
"280 1077 OFFCURVE",
"290 1143 OFFCURVE",
"307 1185 CURVE SMOOTH",
"335 1252 OFFCURVE",
"389 1290 OFFCURVE",
"459 1293 CURVE",
"460 1293 LINE",
"504 1295 OFFCURVE",
"543 1284 OFFCURVE",
"575 1260 CURVE SMOOTH",
"603 1239 OFFCURVE",
"625 1209 OFFCURVE",
"638 1170 CURVE SMOOTH",
"657 1116 OFFCURVE",
"667 996 OFFCURVE",
"667 899 CURVE SMOOTH",
"667 881 OFFCURVE",
"667 865 OFFCURVE",
"666 849 CURVE SMOOTH",
"665 830 OFFCURVE",
"657 813 OFFCURVE",
"644 800 CURVE SMOOTH",
"642 798 LINE",
"633 790 OFFCURVE",
"622 783 OFFCURVE",
"610 779 CURVE",
"566 768 OFFCURVE",
"526 762 OFFCURVE",
"491 762 CURVE SMOOTH"
);
}
);
width = 1116;
}
);
unicode = 0669;
},
{
glyphname = uni06F4;
lastChange = "2015-05-24 03:38:45 +0000";
layers = (
{
layerId = "66C82CE7-ECCF-480D-AAE6-CD3075A06AEF";
name = Regular;
paths = (
{
closed = 1;
nodes = (
"297 0 OFFCURVE",
"346 37 OFFCURVE",
"346 118 CURVE SMOOTH",
"345 728 LINE",
"345 818 LINE",
"442 787 OFFCURVE",
"533 771 OFFCURVE",
"615 771 CURVE SMOOTH",
"638 771 LINE",
"744 776 OFFCURVE",
"837 805 OFFCURVE",
"914 860 CURVE SMOOTH",
"981 907 OFFCURVE",
"1035 975 OFFCURVE",
"1069 1055 CURVE SMOOTH",
"1099 1125 OFFCURVE",
"1114 1189 OFFCURVE",
"1110 1263 CURVE SMOOTH",
"1108 1304 OFFCURVE",
"1075 1335 OFFCURVE",
"1035 1335 CURVE SMOOTH",
"992 1335 OFFCURVE",
"957 1299 OFFCURVE",
"959 1256 CURVE SMOOTH",
"963 1171 OFFCURVE",
"931 1059 OFFCURVE",
"828 984 CURVE",
"726 983 OFFCURVE",
"674 1026 OFFCURVE",
"659 1039 CURVE",
"628 1069 OFFCURVE",
"613 1112 OFFCURVE",
"613 1169 CURVE SMOOTH",
"613 1205 OFFCURVE",
"624 1235 OFFCURVE",
"643 1249 CURVE SMOOTH",
"655 1258 OFFCURVE",
"670 1261 OFFCURVE",
"686 1261 CURVE SMOOTH",
"700 1261 OFFCURVE",
"715 1258 OFFCURVE",
"728 1255 CURVE SMOOTH",
"735 1253 OFFCURVE",
"741 1252 OFFCURVE",
"748 1252 CURVE SMOOTH",
"787 1252 OFFCURVE",
"824 1284 OFFCURVE",
"824 1328 CURVE SMOOTH",
"824 1362 OFFCURVE",
"801 1393 OFFCURVE",
"767 1402 CURVE SMOOTH",
"737 1410 OFFCURVE",
"710 1413 OFFCURVE",
"686 1413 CURVE SMOOTH",
"624 1413 OFFCURVE",
"580 1391 OFFCURVE",
"551 1369 CURVE SMOOTH",
"494 1326 OFFCURVE",
"461 1253 OFFCURVE",
"461 1169 CURVE SMOOTH",
"461 1071 OFFCURVE",
"493 989 OFFCURVE",
"555 930 CURVE",
"556 928 OFFCURVE",
"557 927 OFFCURVE",
"559 926 CURVE",
"494 933 OFFCURVE",
"422 950 OFFCURVE",
"345 978 CURVE",
"346 1333 LINE",
"246 1383 LINE",
"243 1383 OFFCURVE",
"133 1329 OFFCURVE",
"91 1308 CURVE",
"103 1289 OFFCURVE",
"112 1267 OFFCURVE",
"121 1240 CURVE SMOOTH",
"134 1199 OFFCURVE",
"139 1150 OFFCURVE",
"139 1083 CURVE SMOOTH",
"139 772 LINE",
"139 117 LINE SMOOTH",
"139 48 OFFCURVE",
"170 0 OFFCURVE",
"241 0 CURVE SMOOTH"
);
}
);
width = 1171;
}
);
unicode = 06F4;
},
{
glyphname = uni06F5;
lastChange = "2015-05-24 03:38:45 +0000";
layers = (
{
layerId = "66C82CE7-ECCF-480D-AAE6-CD3075A06AEF";
name = Regular;
paths = (
{
closed = 1;
nodes = (
"539 -14 OFFCURVE",
"568 33 OFFCURVE",
"585 52 CURVE",
"601 33 OFFCURVE",
"631 -14 OFFCURVE",
"682 -14 CURVE SMOOTH",
"1014 -14 OFFCURVE",
"1037 328 OFFCURVE",
"1037 598 CURVE SMOOTH",
"1037 888 OFFCURVE",
"974 1399 OFFCURVE",
"585 1399 CURVE SMOOTH",
"196 1399 OFFCURVE",
"133 888 OFFCURVE",
"133 598 CURVE SMOOTH",
"133 328 OFFCURVE",
"156 -14 OFFCURVE",
"487 -14 CURVE SMOOTH"
);
},
{
closed = 1;
nodes = (
"659 289 LINE",
"510 289 LINE",
"510 156 LINE",
"382 205 OFFCURVE",
"338 386 OFFCURVE",
"338 598 CURVE SMOOTH",
"338 1085 OFFCURVE",
"439 1270 OFFCURVE",
"585 1270 CURVE SMOOTH",
"730 1270 OFFCURVE",
"832 1085 OFFCURVE",
"832 598 CURVE SMOOTH",
"832 386 OFFCURVE",
"788 204 OFFCURVE",
"659 155 CURVE"
);
}
);
width = 1170;
}
);
unicode = 06F5;
},
{
glyphname = uni06F6;
lastChange = "2015-05-24 03:38:45 +0000";
layers = (
{
layerId = "66C82CE7-ECCF-480D-AAE6-CD3075A06AEF";
name = Regular;
paths = (
{
closed = 1;
nodes = (
"259 0 OFFCURVE",
"288 20 OFFCURVE",
"300 50 CURVE SMOOTH",
"368 223 OFFCURVE",
"590 484 OFFCURVE",
"756 588 CURVE SMOOTH",
"779 602 OFFCURVE",
"792 628 OFFCURVE",
"792 653 CURVE SMOOTH",
"792 667 OFFCURVE",
"789 681 OFFCURVE",
"781 693 CURVE SMOOTH",
"767 717 OFFCURVE",
"741 730 OFFCURVE",
"715 730 CURVE SMOOTH",
"702 730 OFFCURVE",
"688 726 OFFCURVE",
"676 719 CURVE SMOOTH",
"616 682 OFFCURVE",
"549 626 OFFCURVE",
"482 561 CURVE",
"366 644 OFFCURVE",
"319 784 OFFCURVE",
"319 923 CURVE SMOOTH",
"319 1133 OFFCURVE",
"426 1340 OFFCURVE",
"569 1340 CURVE",
"667 1310 OFFCURVE",
"734 1252 OFFCURVE",
"734 1109 CURVE",
"742 1106 OFFCURVE",
"767 1098 OFFCURVE",
"795 1098 CURVE SMOOTH",
"833 1098 OFFCURVE",
"877 1113 OFFCURVE",
"891 1174 CURVE SMOOTH",
"894 1187 OFFCURVE",
"895 1199 OFFCURVE",
"895 1211 CURVE SMOOTH",
"895 1328 OFFCURVE",
"755 1398 OFFCURVE",
"577 1398 CURVE SMOOTH",
"257 1398 OFFCURVE",
"134 1123 OFFCURVE",
"134 925 CURVE SMOOTH",
"134 772 OFFCURVE",
"196 540 OFFCURVE",
"361 428 CURVE",
"267 314 OFFCURVE",
"194 200 OFFCURVE",
"157 106 CURVE SMOOTH",
"154 97 OFFCURVE",
"152 87 OFFCURVE",
"152 78 CURVE SMOOTH",
"152 47 OFFCURVE",
"170 18 OFFCURVE",
"201 6 CURVE",
"209 2 OFFCURVE",
"219 0 OFFCURVE",
"229 0 CURVE SMOOTH"
);
}
);
width = 1043;
}
);
unicode = 06F6;
},
{
glyphname = uni06C1.init;
lastChange = "2015-05-24 04:35:54 +0000";
layers = (
{
anchors = (
{
name = bottom;
position = "{416, -500}";
},
{
name = top;
position = "{416, 1200}";
}
);
layerId = "66C82CE7-ECCF-480D-AAE6-CD3075A06AEF";
name = Regular;
paths = (
{
closed = 1;
nodes = (
"434 -364 LINE",
"434 -243 LINE",
"280 -243 LINE SMOOTH",
"230 -243 OFFCURVE",
"222 -225 OFFCURVE",
"218 -218 CURVE",
"214 -210 OFFCURVE",
"212 -199 OFFCURVE",
"212 -186 CURVE SMOOTH",
"212 -165 OFFCURVE",
"217 -140 OFFCURVE",
"226 -113 CURVE SMOOTH",
"242 -66 OFFCURVE",
"270 -17 OFFCURVE",
"302 20 CURVE",
"538 94 OFFCURVE",
"601 363 OFFCURVE",
"601 531 CURVE SMOOTH",
"601 789 OFFCURVE",
"543 1038 OFFCURVE",
"347 1038 CURVE SMOOTH",
"289 1038 OFFCURVE",
"255 1017 OFFCURVE",
"236 999 CURVE",
"386 873 OFFCURVE",
"413 655 OFFCURVE",
"414 531 CURVE SMOOTH",
"414 430 OFFCURVE",
"412 121 OFFCURVE",
"182 121 CURVE SMOOTH",
"-12 121 LINE SMOOTH",
"-16 121 OFFCURVE",
"-20 118 OFFCURVE",
"-20 115 CURVE SMOOTH",
"-20 7 LINE SMOOTH",
"-20 4 OFFCURVE",
"-16 0 OFFCURVE",
"-12 0 CURVE SMOOTH",
"145 0 LINE",
"131 -24 OFFCURVE",
"121 -49 OFFCURVE",
"112 -73 CURVE SMOOTH",
"98 -113 OFFCURVE",
"92 -151 OFFCURVE",
"92 -185 CURVE SMOOTH",
"92 -216 OFFCURVE",
"97 -244 OFFCURVE",
"108 -268 CURVE SMOOTH",
"122 -299 OFFCURVE",
"145 -324 OFFCURVE",
"175 -340 CURVE SMOOTH",
"204 -356 OFFCURVE",
"239 -364 OFFCURVE",
"280 -364 CURVE SMOOTH"
);
}
);
width = 796;
}
);
unicode = FBA8;
},
{
glyphname = uni06C1.medi;
lastChange = "2015-05-24 04:35:50 +0000";
layers = (
{
anchors = (
{
name = bottom;
position = "{564, -850}";
},
{
name = top;
position = "{564, 800}";
}
);
layerId = "66C82CE7-ECCF-480D-AAE6-CD3075A06AEF";
name = Regular;
paths = (
{
closed = 1;
nodes = (
"862 -690 OFFCURVE",
"889 -662 OFFCURVE",
"889 -629 CURVE SMOOTH",
"889 0 LINE",
"1165 0 LINE SMOOTH",
"1168 0 OFFCURVE",
"1169 4 OFFCURVE",
"1169 7 CURVE SMOOTH",
"1169 115 LINE SMOOTH",
"1169 118 OFFCURVE",
"1168 121 OFFCURVE",
"1165 121 CURVE SMOOTH",
"828 121 LINE SMOOTH",
"795 121 OFFCURVE",
"768 94 OFFCURVE",
"768 60 CURVE SMOOTH",
"768 -567 LINE",
"700 -563 OFFCURVE",
"640 -553 OFFCURVE",
"588 -536 CURVE SMOOTH",
"521 -513 OFFCURVE",
"467 -480 OFFCURVE",
"423 -434 CURVE SMOOTH",
"329 -334 OFFCURVE",
"283 -172 OFFCURVE",
"283 60 CURVE SMOOTH",
"283 94 OFFCURVE",
"256 121 OFFCURVE",
"223 121 CURVE SMOOTH",
"-33 121 LINE SMOOTH",
"-37 121 OFFCURVE",
"-40 118 OFFCURVE",
"-40 115 CURVE SMOOTH",
"-40 7 LINE SMOOTH",
"-40 4 OFFCURVE",
"-37 0 OFFCURVE",
"-33 0 CURVE SMOOTH",
"164 0 LINE",
"172 -233 OFFCURVE",
"228 -403 OFFCURVE",
"335 -517 CURVE SMOOTH",
"445 -633 OFFCURVE",
"606 -690 OFFCURVE",
"828 -690 CURVE SMOOTH"
);
}
);
width = 1129;
}
);
unicode = FBA9;
},
{
glyphname = uni06BE;
lastChange = "2015-05-24 04:35:50 +0000";
layers = (
{
anchors = (
{
name = bottom;
position = "{598, -130}";
},
{
name = top;
position = "{598, 1400}";
}
);
layerId = "66C82CE7-ECCF-480D-AAE6-CD3075A06AEF";
name = Regular;
paths = (
{
closed = 1;
nodes = (
"158 0 LINE SMOOTH",
"348 0 OFFCURVE",
"460 62 OFFCURVE",
"460 62 CURVE SMOOTH",
"460 62 OFFCURVE",
"579 0 OFFCURVE",
"750 0 CURVE SMOOTH",
"790 0 LINE SMOOTH",
"1055 0 OFFCURVE",
"1225 314 OFFCURVE",
"1225 617 CURVE SMOOTH",
"1225 928 OFFCURVE",
"1001 1204 OFFCURVE",
"686 1204 CURVE SMOOTH",
"672 1204 OFFCURVE",
"641 1204 OFFCURVE",
"607 1205 CURVE SMOOTH",
"528 1205 OFFCURVE",
"457 1200 OFFCURVE",
"398 1200 CURVE SMOOTH",
"368 1200 OFFCURVE",
"342 1201 OFFCURVE",
"319 1205 CURVE SMOOTH",
"270 1212 OFFCURVE",
"241 1239 OFFCURVE",
"227 1250 CURVE",
"227 1142 OFFCURVE",
"268 1083 OFFCURVE",
"386 1083 CURVE SMOOTH",
"480 1083 LINE SMOOTH",
"711 1083 OFFCURVE",
"1044 1055 OFFCURVE",
"1044 613 CURVE SMOOTH",
"1044 339 OFFCURVE",
"904 86 OFFCURVE",
"658 86 CURVE SMOOTH",
"624 86 OFFCURVE",
"587 91 OFFCURVE",
"549 102 CURVE",
"631 163 OFFCURVE",
"659 337 OFFCURVE",
"659 474 CURVE SMOOTH",
"659 637 OFFCURVE",
"576 850 OFFCURVE",
"437 850 CURVE SMOOTH",
"309 850 OFFCURVE",
"225 691 OFFCURVE",
"225 480 CURVE SMOOTH",
"225 358 OFFCURVE",
"261 174 OFFCURVE",
"369 118 CURVE",
"360 111 OFFCURVE",
"343 109 OFFCURVE",
"323 109 CURVE SMOOTH",
"279 109 OFFCURVE",
"221 121 OFFCURVE",
"221 121 CURVE SMOOTH",
"133 121 LINE",
"133 0 LINE"
);
},
{
closed = 1;
nodes = (
"361 157 OFFCURVE",
"306 324 OFFCURVE",
"306 465 CURVE SMOOTH",
"306 580 OFFCURVE",
"341 778 OFFCURVE",
"421 778 CURVE SMOOTH",
"519 778 OFFCURVE",
"561 570 OFFCURVE",
"561 468 CURVE",
"562 455 OFFCURVE",
"561 157 OFFCURVE",
"442 157 CURVE SMOOTH"
);
}
);
width = 1358;
}
);
unicode = 06BE;
},
{
glyphname = uni06D2;
lastChange = "2015-05-24 04:35:50 +0000";
layers = (
{
anchors = (
{
name = bottom;
position = "{591, -500}";
},
{
name = top;
position = "{329, 480}";
}
);
layerId = "66C82CE7-ECCF-480D-AAE6-CD3075A06AEF";
name = Regular;
paths = (
{
closed = 1;
nodes = (
"1356 -416 LINE",
"1356 -294 LINE",
"486 -294 LINE SMOOTH",
"272 -294 OFFCURVE",
"157 -254 OFFCURVE",
"157 -96 CURVE SMOOTH",
"157 57 OFFCURVE",
"336 95 OFFCURVE",
"458 95 CURVE SMOOTH",
"692 95 LINE SMOOTH",
"984 95 OFFCURVE",
"997 352 OFFCURVE",
"997 575 CURVE",
"820 575 LINE",
"820 551 OFFCURVE",
"822 517 OFFCURVE",
"822 480 CURVE SMOOTH",
"822 365 OFFCURVE",
"802 216 OFFCURVE",
"641 216 CURVE SMOOTH",
"605 216 LINE SMOOTH",
"605 217 OFFCURVE",
"92 202 OFFCURVE",
"92 -104 CURVE SMOOTH",
"92 -403 OFFCURVE",
"372 -416 OFFCURVE",
"609 -416 CURVE SMOOTH"
);
}
);
width = 1182;
}
);
unicode = 06D2;
},
{
glyphname = uni06D2.fina;
lastChange = "2015-05-24 04:35:50 +0000";
layers = (
{
anchors = (
{
name = bottom;
position = "{591, -700}";
},
{
name = top;
position = "{329, 375}";
}
);
layerId = "66C82CE7-ECCF-480D-AAE6-CD3075A06AEF";
name = Regular;
paths = (
{
closed = 1;
nodes = (
"1486 -511 LINE",
"1486 -389 LINE",
"486 -389 LINE SMOOTH",
"272 -389 OFFCURVE",
"157 -349 OFFCURVE",
"157 -191 CURVE SMOOTH",
"157 -38 OFFCURVE",
"336 0 OFFCURVE",
"458 0 CURVE SMOOTH",
"816 0 LINE SMOOTH",
"820 0 OFFCURVE",
"823 4 OFFCURVE",
"823 7 CURVE SMOOTH",
"823 115 LINE SMOOTH",
"823 118 OFFCURVE",
"820 121 OFFCURVE",
"816 121 CURVE SMOOTH",
"632 121 LINE SMOOTH",
"393 121 OFFCURVE",
"92 96 OFFCURVE",
"92 -199 CURVE SMOOTH",
"92 -498 OFFCURVE",
"372 -511 OFFCURVE",
"609 -511 CURVE SMOOTH"
);
}
);
width = 795;
}
);
unicode = FBAF;
},
{
glyphname = uni06A9;
lastChange = "2015-05-24 04:35:54 +0000";
layers = (
{
anchors = (
{
name = bottom;
position = "{1059, -130}";
},
{
name = top;
position = "{1059, 1823}";
}
);
layerId = "66C82CE7-ECCF-480D-AAE6-CD3075A06AEF";
name = Regular;
paths = (
{
closed = 1;
nodes = (
"1090 0 LINE SMOOTH",
"1539 0 OFFCURVE",
"1555 433 OFFCURVE",
"1555 481 CURVE SMOOTH",
"1555 772 OFFCURVE",
"1301 1036 OFFCURVE",
"997 1036 CURVE SMOOTH",
"619 1036 LINE",
"619 1049 OFFCURVE",
"616 1075 OFFCURVE",
"616 1108 CURVE SMOOTH",
"616 1252 OFFCURVE",
"675 1537 OFFCURVE",
"1303 1537 CURVE SMOOTH",
"1465 1537 OFFCURVE",
"1563 1500 OFFCURVE",
"1632 1464 CURVE",
"1634 1477 OFFCURVE",
"1635 1490 OFFCURVE",
"1635 1501 CURVE SMOOTH",
"1635 1681 OFFCURVE",
"1402 1700 OFFCURVE",
"1255 1700 CURVE SMOOTH",
"1058 1700 OFFCURVE",
"444 1618 OFFCURVE",
"444 1174 CURVE SMOOTH",
"444 1103 OFFCURVE",
"466 903 OFFCURVE",
"635 903 CURVE SMOOTH",
"651 903 OFFCURVE",
"668 902 OFFCURVE",
"687 903 CURVE",
"838 903 LINE SMOOTH",
"1283 903 OFFCURVE",
"1376 609 OFFCURVE",
"1376 478 CURVE SMOOTH",
"1376 362 OFFCURVE",
"1295 121 OFFCURVE",
"1142 121 CURVE SMOOTH",
"506 121 LINE SMOOTH",
"369 121 OFFCURVE",
"337 276 OFFCURVE",
"337 350 CURVE SMOOTH",
"337 405 OFFCURVE",
"339 486 OFFCURVE",
"339 542 CURVE SMOOTH",
"339 613 OFFCURVE",
"288 634 OFFCURVE",
"235 634 CURVE SMOOTH",
"184 634 OFFCURVE",
"135 612 OFFCURVE",
"135 543 CURVE SMOOTH",
"135 275 LINE",
"149 189 OFFCURVE",
"196 128 OFFCURVE",
"255 77 CURVE SMOOTH",
"312 29 OFFCURVE",
"376 2 OFFCURVE",
"453 0 CURVE SMOOTH"
);
}
);
width = 1770;
}
);
unicode = 06A9;
},
{
glyphname = uni06A9.fina;
lastChange = "2015-05-24 04:35:54 +0000";
layers = (
{
anchors = (
{
name = bottom;
position = "{1059, -130}";
},
{
name = top;
position = "{1059, 1823}";
}
);
layerId = "66C82CE7-ECCF-480D-AAE6-CD3075A06AEF";
name = Regular;
paths = (
{
closed = 1;
nodes = (
"1091 0 LINE SMOOTH",
"1188 0 OFFCURVE",
"1264 20 OFFCURVE",
"1325 52 CURVE",
"1371 19 OFFCURVE",
"1422 0 OFFCURVE",
"1515 0 CURVE SMOOTH",
"1905 0 LINE SMOOTH",
"1908 0 OFFCURVE",
"1912 3 OFFCURVE",
"1912 6 CURVE SMOOTH",
"1912 114 LINE SMOOTH",
"1912 117 OFFCURVE",
"1908 121 OFFCURVE",
"1905 121 CURVE SMOOTH",
"1417 121 LINE",
"1548 252 OFFCURVE",
"1555 450 OFFCURVE",
"1555 481 CURVE SMOOTH",
"1555 773 OFFCURVE",
"1302 1035 OFFCURVE",
"998 1035 CURVE SMOOTH",
"619 1035 LINE",
"619 1048 OFFCURVE",
"616 1074 OFFCURVE",
"616 1107 CURVE SMOOTH",
"616 1251 OFFCURVE",
"675 1537 OFFCURVE",
"1304 1537 CURVE SMOOTH",
"1466 1537 OFFCURVE",
"1563 1500 OFFCURVE",
"1632 1464 CURVE",
"1634 1477 OFFCURVE",
"1635 1490 OFFCURVE",
"1635 1502 CURVE SMOOTH",
"1635 1681 OFFCURVE",
"1403 1700 OFFCURVE",
"1256 1700 CURVE SMOOTH",
"1059 1700 OFFCURVE",
"444 1618 OFFCURVE",
"444 1173 CURVE SMOOTH",
"444 1102 OFFCURVE",
"466 902 OFFCURVE",
"635 902 CURVE SMOOTH",
"651 902 OFFCURVE",
"668 901 OFFCURVE",
"687 902 CURVE",
"839 902 LINE SMOOTH",
"1284 902 OFFCURVE",
"1377 609 OFFCURVE",
"1377 478 CURVE SMOOTH",
"1377 362 OFFCURVE",
"1296 121 OFFCURVE",
"1143 121 CURVE SMOOTH",
"506 121 LINE SMOOTH",
"369 121 OFFCURVE",
"337 276 OFFCURVE",
"337 350 CURVE SMOOTH",
"337 405 OFFCURVE",
"339 486 OFFCURVE",
"339 542 CURVE SMOOTH",
"339 613 OFFCURVE",
"288 634 OFFCURVE",
"235 634 CURVE SMOOTH",
"184 634 OFFCURVE",
"135 612 OFFCURVE",
"135 543 CURVE SMOOTH",
"135 275 LINE",
"149 189 OFFCURVE",
"196 128 OFFCURVE",
"255 77 CURVE SMOOTH",
"312 29 OFFCURVE",
"376 2 OFFCURVE",
"453 0 CURVE SMOOTH"
);
}
);
width = 1872;
}
);
unicode = FB8F;
},
{
glyphname = uni06BA;
lastChange = "2015-05-24 04:35:50 +0000";
layers = (
{
anchors = (
{
name = bottom;
position = "{705, -621}";
},
{
name = top;
position = "{705, 1310}";
}
);
layerId = "66C82CE7-ECCF-480D-AAE6-CD3075A06AEF";
name = Regular;
paths = (
{
closed = 1;
nodes = (
"1165 -502 OFFCURVE",
"1235 -166 OFFCURVE",
"1235 332 CURVE SMOOTH",
"1235 947 LINE SMOOTH",
"1235 1016 OFFCURVE",
"1184 1038 OFFCURVE",
"1134 1038 CURVE SMOOTH",
"1081 1038 OFFCURVE",
"1030 1017 OFFCURVE",
"1030 946 CURVE SMOOTH",
"1030 84 LINE SMOOTH",
"1030 -85 OFFCURVE",
"1020 -380 OFFCURVE",
"699 -380 CURVE SMOOTH",
"481 -380 OFFCURVE",
"319 -217 OFFCURVE",
"319 -28 CURVE SMOOTH",
"319 285 OFFCURVE",
"449 394 OFFCURVE",
"475 415 CURVE",
"439 437 OFFCURVE",
"404 447 OFFCURVE",
"373 447 CURVE SMOOTH",
"224 447 OFFCURVE",
"133 227 OFFCURVE",
"133 36 CURVE SMOOTH",
"134 -221 OFFCURVE",
"282 -502 OFFCURVE",
"702 -502 CURVE SMOOTH"
);
}
);
width = 1368;
}
);
unicode = 06BA;
},
{
glyphname = uni06BA.fina;
lastChange = "2015-05-24 04:35:50 +0000";
layers = (
{
anchors = (
{
name = bottom;
position = "{725, -621}";
},
{
name = top;
position = "{725, 1310}";
}
);
layerId = "66C82CE7-ECCF-480D-AAE6-CD3075A06AEF";
name = Regular;
paths = (
{
closed = 1;
nodes = (
"1072 -502 OFFCURVE",
"1191 -288 OFFCURVE",
"1223 51 CURVE",
"1269 19 OFFCURVE",
"1320 0 OFFCURVE",
"1412 0 CURVE SMOOTH",
"1463 0 LINE SMOOTH",
"1466 0 OFFCURVE",
"1471 3 OFFCURVE",
"1471 6 CURVE SMOOTH",
"1471 114 LINE SMOOTH",
"1471 117 OFFCURVE",
"1466 121 OFFCURVE",
"1463 121 CURVE SMOOTH",
"1229 121 LINE",
"1233 186 OFFCURVE",
"1235 257 OFFCURVE",
"1235 331 CURVE SMOOTH",
"1235 947 LINE SMOOTH",
"1235 1016 OFFCURVE",
"1185 1038 OFFCURVE",
"1135 1038 CURVE SMOOTH",
"1082 1038 OFFCURVE",
"1031 1017 OFFCURVE",
"1031 946 CURVE SMOOTH",
"1031 84 LINE SMOOTH",
"1031 -85 OFFCURVE",
"1021 -381 OFFCURVE",
"700 -381 CURVE SMOOTH",
"482 -381 OFFCURVE",
"320 -217 OFFCURVE",
"320 -29 CURVE SMOOTH",
"320 285 OFFCURVE",
"450 393 OFFCURVE",
"475 415 CURVE",
"439 437 OFFCURVE",
"405 447 OFFCURVE",
"373 447 CURVE SMOOTH",
"225 447 OFFCURVE",
"133 226 OFFCURVE",
"133 35 CURVE SMOOTH",
"134 -221 OFFCURVE",
"284 -502 OFFCURVE",
"702 -502 CURVE SMOOTH"
);
}
);
width = 1431;
}
);
unicode = FB9F;
},
{
glyphname = uni066A;
lastChange = "2015-05-24 03:38:45 +0000";
layers = (
{
layerId = "66C82CE7-ECCF-480D-AAE6-CD3075A06AEF";
name = Regular;
paths = (
{
closed = 1;
nodes = (
"648 -1 OFFCURVE",
"668 2 OFFCURVE",
"689 7 CURVE",
"689 7 OFFCURVE",
"689 8 OFFCURVE",
"690 8 CURVE",
"722 16 OFFCURVE",
"751 29 OFFCURVE",
"782 52 CURVE",
"765 109 LINE SMOOTH",
"754 146 OFFCURVE",
"748 185 OFFCURVE",
"748 224 CURVE SMOOTH",
"748 290 OFFCURVE",
"766 364 OFFCURVE",
"800 440 CURVE SMOOTH",
"840 532 OFFCURVE",
"1054 968 OFFCURVE",
"1223 1271 CURVE SMOOTH",
"1235 1292 OFFCURVE",
"1262 1352 OFFCURVE",
"1260 1360 CURVE",
"1259 1363 OFFCURVE",
"1259 1363 OFFCURVE",
"1256 1364 CURVE",
"1251 1367 OFFCURVE",
"1238 1373 OFFCURVE",
"1210 1373 CURVE SMOOTH",
"1010 1373 LINE",
"481 310 LINE",
"461 258 OFFCURVE",
"451 213 OFFCURVE",
"451 174 CURVE SMOOTH",
"451 167 OFFCURVE",
"451 160 OFFCURVE",
"452 153 CURVE",
"452 151 LINE",
"456 112 OFFCURVE",
"467 82 OFFCURVE",
"487 63 CURVE",
"515 34 OFFCURVE",
"544 16 OFFCURVE",
"576 7 CURVE",
"578 7 LINE",
"594 2 OFFCURVE",
"611 -1 OFFCURVE",
"629 -1 CURVE SMOOTH"
);
},
{
closed = 1;
nodes = (
"515 845 OFFCURVE",
"634 963 OFFCURVE",
"634 1109 CURVE SMOOTH",
"634 1255 OFFCURVE",
"515 1374 OFFCURVE",
"369 1374 CURVE SMOOTH",
"223 1374 OFFCURVE",
"105 1255 OFFCURVE",
"105 1109 CURVE SMOOTH",
"105 963 OFFCURVE",
"223 845 OFFCURVE",
"369 845 CURVE SMOOTH"
);
},
{
closed = 1;
nodes = (
"275 938 OFFCURVE",
"198 1015 OFFCURVE",
"198 1109 CURVE SMOOTH",
"198 1204 OFFCURVE",
"275 1280 OFFCURVE",
"369 1280 CURVE SMOOTH",
"464 1280 OFFCURVE",
"540 1204 OFFCURVE",
"540 1109 CURVE SMOOTH",
"540 1015 OFFCURVE",
"464 938 OFFCURVE",
"369 938 CURVE SMOOTH"
);
},
{
closed = 1;
nodes = (
"1490 -9 OFFCURVE",
"1608 110 OFFCURVE",
"1608 256 CURVE SMOOTH",
"1608 402 OFFCURVE",
"1490 520 OFFCURVE",
"1344 520 CURVE SMOOTH",
"1198 520 OFFCURVE",
"1079 402 OFFCURVE",
"1079 256 CURVE SMOOTH",
"1079 110 OFFCURVE",
"1198 -9 OFFCURVE",
"1344 -9 CURVE SMOOTH"
);
},
{
closed = 1;
nodes = (
"1249 85 OFFCURVE",
"1173 161 OFFCURVE",
"1173 256 CURVE SMOOTH",
"1173 350 OFFCURVE",
"1249 427 OFFCURVE",
"1344 427 CURVE SMOOTH",
"1438 427 OFFCURVE",
"1515 350 OFFCURVE",
"1515 256 CURVE SMOOTH",
"1515 161 OFFCURVE",
"1438 85 OFFCURVE",
"1344 85 CURVE SMOOTH"
);
}
);
width = 1718;
}
);
unicode = 066A;
},
{
glyphname = uni061F;
lastChange = "2015-05-24 03:38:45 +0000";
layers = (
{
layerId = "66C82CE7-ECCF-480D-AAE6-CD3075A06AEF";
name = Regular;
paths = (
{
closed = 1;
nodes = (
"570 310 OFFCURVE",
"606 536 OFFCURVE",
"606 654 CURVE SMOOTH",
"606 881 OFFCURVE",
"394 1041 OFFCURVE",
"394 1192 CURVE SMOOTH",
"394 1273 OFFCURVE",
"447 1374 OFFCURVE",
"549 1374 CURVE SMOOTH",
"666 1374 OFFCURVE",
"705 1271 OFFCURVE",
"707 1202 CURVE SMOOTH",
"707 1199 LINE SMOOTH",
"707 1190 OFFCURVE",
"707 1175 OFFCURVE",
"705 1155 CURVE",
"705 1155 OFFCURVE",
"745 1129 OFFCURVE",
"783 1129 CURVE SMOOTH",
"814 1129 OFFCURVE",
"844 1146 OFFCURVE",
"850 1209 CURVE SMOOTH",
"851 1217 OFFCURVE",
"851 1225 OFFCURVE",
"851 1235 CURVE SMOOTH",
"851 1360 OFFCURVE",
"759 1432 OFFCURVE",
"654 1463 CURVE SMOOTH",
"617 1476 OFFCURVE",
"576 1482 OFFCURVE",
"530 1482 CURVE SMOOTH",
"528 1483 OFFCURVE",
"526 1483 OFFCURVE",
"523 1483 CURVE SMOOTH",
"462 1483 OFFCURVE",
"409 1473 OFFCURVE",
"363 1454 CURVE SMOOTH",
"251 1411 OFFCURVE",
"182 1320 OFFCURVE",
"182 1206 CURVE SMOOTH",
"182 986 OFFCURVE",
"516 521 OFFCURVE",
"516 344 CURVE",
"516 344 OFFCURVE",
"523 310 OFFCURVE",
"547 310 CURVE SMOOTH"
);
},
{
closed = 1;
nodes = (
"577 -29 OFFCURVE",
"626 19 OFFCURVE",
"626 80 CURVE SMOOTH",
"626 140 OFFCURVE",
"577 189 OFFCURVE",
"517 189 CURVE SMOOTH",
"456 189 OFFCURVE",
"407 140 OFFCURVE",
"407 80 CURVE SMOOTH",
"407 19 OFFCURVE",
"456 -29 OFFCURVE",
"517 -29 CURVE SMOOTH"
);
}
);
width = 993;
}
);
unicode = 061F;
},
{
glyphname = uni060C;
lastChange = "2015-05-24 03:38:45 +0000";
layers = (
{
layerId = "66C82CE7-ECCF-480D-AAE6-CD3075A06AEF";
name = Regular;
paths = (
{
closed = 1;
nodes = (
"378 0 OFFCURVE",
"449 69 OFFCURVE",
"449 158 CURVE SMOOTH",
"449 245 OFFCURVE",
"378 316 OFFCURVE",
"289 316 CURVE SMOOTH",
"277 316 OFFCURVE",
"264 315 OFFCURVE",
"251 310 CURVE",
"248 351 OFFCURVE",
"255 400 OFFCURVE",
"297 452 CURVE",
"300 455 OFFCURVE",
"302 459 OFFCURVE",
"306 461 CURVE",
"311 467 OFFCURVE",
"314 474 OFFCURVE",
"314 481 CURVE SMOOTH",
"314 488 OFFCURVE",
"311 495 OFFCURVE",
"305 500 CURVE",
"300 506 OFFCURVE",
"293 508 OFFCURVE",
"286 508 CURVE SMOOTH",
"280 508 OFFCURVE",
"272 506 OFFCURVE",
"265 500 CURVE",
"134 364 OFFCURVE",
"135 263 OFFCURVE",
"132 177 CURVE SMOOTH",
"132 158 LINE SMOOTH",
"132 69 OFFCURVE",
"203 0 OFFCURVE",
"289 0 CURVE SMOOTH"
);
}
);
width = 580;
}
);
unicode = 060C;
},
{
glyphname = uni061B;
lastChange = "2015-05-24 03:38:45 +0000";
layers = (
{
layerId = "66C82CE7-ECCF-480D-AAE6-CD3075A06AEF";
name = Regular;
paths = (
{
closed = 1;
nodes = (
"352 868 OFFCURVE",
"423 937 OFFCURVE",
"423 1026 CURVE SMOOTH",
"423 1113 OFFCURVE",
"352 1184 OFFCURVE",
"263 1184 CURVE SMOOTH",
"251 1184 OFFCURVE",
"238 1183 OFFCURVE",
"225 1178 CURVE",
"222 1219 OFFCURVE",
"229 1268 OFFCURVE",
"271 1320 CURVE",
"274 1323 OFFCURVE",
"276 1327 OFFCURVE",
"280 1329 CURVE",
"285 1335 OFFCURVE",
"288 1342 OFFCURVE",
"288 1349 CURVE SMOOTH",
"288 1356 OFFCURVE",
"285 1363 OFFCURVE",
"279 1368 CURVE",
"274 1374 OFFCURVE",
"267 1376 OFFCURVE",
"260 1376 CURVE SMOOTH",
"254 1376 OFFCURVE",
"246 1374 OFFCURVE",
"239 1368 CURVE",
"108 1232 OFFCURVE",
"109 1131 OFFCURVE",
"106 1045 CURVE SMOOTH",
"106 1026 LINE SMOOTH",
"106 937 OFFCURVE",
"177 868 OFFCURVE",
"263 868 CURVE SMOOTH"
);
},
{
closed = 1;
nodes = (
"337 -19 OFFCURVE",
"399 42 OFFCURVE",
"399 119 CURVE SMOOTH",
"399 196 OFFCURVE",
"337 258 OFFCURVE",
"260 258 CURVE SMOOTH",
"183 258 OFFCURVE",
"122 196 OFFCURVE",
"122 119 CURVE SMOOTH",
"122 42 OFFCURVE",
"183 -19 OFFCURVE",
"260 -19 CURVE SMOOTH"
);
}
);
width = 604;
}
);
unicode = 061B;
},
{
glyphname = uni066B;
lastChange = "2015-05-24 03:38:45 +0000";
layers = (
{
layerId = "66C82CE7-ECCF-480D-AAE6-CD3075A06AEF";
name = Regular;
paths = (
{
closed = 1;
nodes = (
"340 -269 OFFCURVE",
"348 -267 OFFCURVE",
"355 -261 CURVE",
"486 -125 OFFCURVE",
"485 -24 OFFCURVE",
"488 62 CURVE SMOOTH",
"488 81 LINE SMOOTH",
"488 170 OFFCURVE",
"417 239 OFFCURVE",
"331 239 CURVE SMOOTH",
"242 239 OFFCURVE",
"171 170 OFFCURVE",
"171 81 CURVE SMOOTH",
"171 -6 OFFCURVE",
"242 -77 OFFCURVE",
"331 -77 CURVE SMOOTH",
"343 -77 OFFCURVE",
"356 -76 OFFCURVE",
"369 -71 CURVE",
"372 -112 OFFCURVE",
"365 -161 OFFCURVE",
"323 -213 CURVE",
"320 -216 OFFCURVE",
"318 -220 OFFCURVE",
"314 -222 CURVE",
"309 -228 OFFCURVE",
"306 -235 OFFCURVE",
"306 -242 CURVE SMOOTH",
"306 -249 OFFCURVE",
"309 -256 OFFCURVE",
"315 -261 CURVE",
"320 -267 OFFCURVE",
"327 -269 OFFCURVE",
"334 -269 CURVE SMOOTH"
);
}
);
width = 580;
}
);
unicode = 066B;
},
{
glyphname = uni066C;
lastChange = "2015-05-24 03:38:45 +0000";
layers = (
{
layerId = "66C82CE7-ECCF-480D-AAE6-CD3075A06AEF";
name = Regular;
paths = (
{
closed = 1;
nodes = (
"340 280 OFFCURVE",
"348 282 OFFCURVE",
"355 288 CURVE",
"486 424 OFFCURVE",
"485 525 OFFCURVE",
"488 611 CURVE SMOOTH",
"488 630 LINE SMOOTH",
"488 719 OFFCURVE",
"417 788 OFFCURVE",
"331 788 CURVE SMOOTH",
"242 788 OFFCURVE",
"171 719 OFFCURVE",
"171 630 CURVE SMOOTH",
"171 543 OFFCURVE",
"242 472 OFFCURVE",
"331 472 CURVE SMOOTH",
"343 472 OFFCURVE",
"356 473 OFFCURVE",
"369 478 CURVE",
"372 437 OFFCURVE",
"365 388 OFFCURVE",
"323 336 CURVE",
"320 333 OFFCURVE",
"318 329 OFFCURVE",
"314 327 CURVE",
"309 321 OFFCURVE",
"306 314 OFFCURVE",
"306 307 CURVE SMOOTH",
"306 300 OFFCURVE",
"309 293 OFFCURVE",
"315 288 CURVE",
"320 282 OFFCURVE",
"327 280 OFFCURVE",
"334 280 CURVE SMOOTH"
);
}
);
width = 580;
}
);
unicode = 066C;
},
{
glyphname = uni066D;
lastChange = "2015-05-24 03:38:45 +0000";
layers = (
{
layerId = "66C82CE7-ECCF-480D-AAE6-CD3075A06AEF";
name = Regular;
paths = (
{
closed = 1;
nodes = (
"308 634 OFFCURVE",
"325 642 OFFCURVE",
"337 657 CURVE SMOOTH",
"554 944 LINE",
"772 657 LINE SMOOTH",
"783 642 OFFCURVE",
"800 634 OFFCURVE",
"818 634 CURVE SMOOTH",
"830 634 OFFCURVE",
"842 638 OFFCURVE",
"853 646 CURVE SMOOTH",
"868 657 OFFCURVE",
"876 674 OFFCURVE",
"876 692 CURVE SMOOTH",
"876 704 OFFCURVE",
"872 716 OFFCURVE",
"864 727 CURVE SMOOTH",
"652 1007 LINE",
"991 1105 LINE SMOOTH",
"1017 1112 OFFCURVE",
"1033 1136 OFFCURVE",
"1033 1161 CURVE SMOOTH",
"1033 1194 OFFCURVE",
"1006 1218 OFFCURVE",
"975 1218 CURVE SMOOTH",
"970 1218 OFFCURVE",
"964 1218 OFFCURVE",
"959 1216 CURVE SMOOTH",
"612 1117 LINE",
"612 1477 LINE SMOOTH",
"612 1509 OFFCURVE",
"586 1535 OFFCURVE",
"554 1535 CURVE SMOOTH",
"522 1535 OFFCURVE",
"496 1509 OFFCURVE",
"496 1477 CURVE SMOOTH",
"496 1117 LINE",
"149 1216 LINE SMOOTH",
"144 1217 OFFCURVE",
"138 1218 OFFCURVE",
"133 1218 CURVE SMOOTH",
"103 1218 OFFCURVE",
"75 1194 OFFCURVE",
"75 1162 CURVE SMOOTH",
"75 1136 OFFCURVE",
"91 1113 OFFCURVE",
"117 1105 CURVE SMOOTH",
"457 1007 LINE",
"244 727 LINE SMOOTH",
"236 716 OFFCURVE",
"232 704 OFFCURVE",
"232 692 CURVE SMOOTH",
"232 674 OFFCURVE",
"240 657 OFFCURVE",
"255 646 CURVE SMOOTH",
"266 638 OFFCURVE",
"278 634 OFFCURVE",
"291 634 CURVE SMOOTH"
);
}
);
width = 1125;
}
);
unicode = 066D;
},
{
glyphname = uni064B;
lastChange = "2015-05-24 03:44:57 +0000";
layers = (
{
anchors = (
{
name = _top;
position = "{-21, 1589}";
},
{
name = top;
position = "{-120, 2089}";
}
);
layerId = "66C82CE7-ECCF-480D-AAE6-CD3075A06AEF";
name = Regular;
paths = (
{
closed = 1;
nodes = (
"-201 1585 OFFCURVE",
"-190 1589 OFFCURVE",
"-180 1595 CURVE",
"-179 1596 OFFCURVE",
"-19 1704 OFFCURVE",
"236 1729 CURVE SMOOTH",
"264 1732 OFFCURVE",
"285 1756 OFFCURVE",
"285 1783 CURVE SMOOTH",
"285 1815 OFFCURVE",
"257 1840 OFFCURVE",
"226 1837 CURVE SMOOTH",
"-60 1809 OFFCURVE",
"-235 1689 OFFCURVE",
"-242 1684 CURVE SMOOTH",
"-257 1673 OFFCURVE",
"-266 1657 OFFCURVE",
"-266 1639 CURVE SMOOTH",
"-266 1629 OFFCURVE",
"-262 1618 OFFCURVE",
"-256 1609 CURVE SMOOTH",
"-245 1593 OFFCURVE",
"-229 1585 OFFCURVE",
"-212 1585 CURVE SMOOTH"
);
},
{
closed = 1;
nodes = (
"-263 1817 OFFCURVE",
"-252 1821 OFFCURVE",
"-242 1827 CURVE",
"-241 1828 OFFCURVE",
"-81 1936 OFFCURVE",
"174 1961 CURVE SMOOTH",
"202 1964 OFFCURVE",
"223 1988 OFFCURVE",
"223 2015 CURVE SMOOTH",
"223 2047 OFFCURVE",
"195 2072 OFFCURVE",
"164 2069 CURVE SMOOTH",
"-122 2041 OFFCURVE",
"-297 1921 OFFCURVE",
"-304 1916 CURVE SMOOTH",
"-319 1905 OFFCURVE",
"-328 1889 OFFCURVE",
"-328 1871 CURVE SMOOTH",
"-328 1861 OFFCURVE",
"-324 1850 OFFCURVE",
"-318 1841 CURVE SMOOTH",
"-307 1825 OFFCURVE",
"-291 1817 OFFCURVE",
"-274 1817 CURVE SMOOTH"
);
}
);
width = 0;
}
);
unicode = 064B;
},
{
glyphname = uni064D;
lastChange = "2015-05-24 03:45:15 +0000";
layers = (
{
anchors = (
{
name = _bottom;
position = "{-21, -289}";
},
{
name = bottom;
position = "{50, -761}";
}
);
layerId = "66C82CE7-ECCF-480D-AAE6-CD3075A06AEF";
name = Regular;
paths = (
{
closed = 1;
nodes = (
"-201 -793 OFFCURVE",
"-190 -789 OFFCURVE",
"-180 -783 CURVE",
"-179 -782 OFFCURVE",
"-19 -674 OFFCURVE",
"236 -649 CURVE SMOOTH",
"264 -646 OFFCURVE",
"285 -622 OFFCURVE",
"285 -595 CURVE SMOOTH",
"285 -563 OFFCURVE",
"257 -538 OFFCURVE",
"226 -541 CURVE SMOOTH",
"-60 -569 OFFCURVE",
"-235 -689 OFFCURVE",
"-242 -694 CURVE SMOOTH",
"-257 -705 OFFCURVE",
"-266 -721 OFFCURVE",
"-266 -739 CURVE SMOOTH",
"-266 -749 OFFCURVE",
"-262 -760 OFFCURVE",
"-256 -769 CURVE SMOOTH",
"-245 -785 OFFCURVE",
"-229 -793 OFFCURVE",
"-212 -793 CURVE SMOOTH"
);
},
{
closed = 1;
nodes = (
"-263 -561 OFFCURVE",
"-252 -557 OFFCURVE",
"-242 -551 CURVE",
"-241 -550 OFFCURVE",
"-81 -442 OFFCURVE",
"174 -417 CURVE SMOOTH",
"202 -414 OFFCURVE",
"223 -390 OFFCURVE",
"223 -363 CURVE SMOOTH",
"223 -331 OFFCURVE",
"195 -306 OFFCURVE",
"164 -309 CURVE SMOOTH",
"-122 -337 OFFCURVE",
"-297 -457 OFFCURVE",
"-304 -462 CURVE SMOOTH",
"-319 -473 OFFCURVE",
"-328 -489 OFFCURVE",
"-328 -507 CURVE SMOOTH",
"-328 -517 OFFCURVE",
"-324 -528 OFFCURVE",
"-318 -537 CURVE SMOOTH",
"-307 -553 OFFCURVE",
"-291 -561 OFFCURVE",
"-274 -561 CURVE SMOOTH"
);
}
);
width = 0;
}
);
unicode = 064D;
},
{
glyphname = uni064E;
lastChange = "2015-05-24 03:41:47 +0000";
layers = (
{
anchors = (
{
name = _top;
position = "{4, 1588}";
},
{
name = top;
position = "{-45, 1862}";
}
);
layerId = "66C82CE7-ECCF-480D-AAE6-CD3075A06AEF";
name = Regular;
paths = (
{
closed = 1;
nodes = (
"-207 1589 OFFCURVE",
"-196 1593 OFFCURVE",
"-186 1599 CURVE",
"-185 1600 OFFCURVE",
"-25 1708 OFFCURVE",
"230 1733 CURVE SMOOTH",
"258 1736 OFFCURVE",
"279 1760 OFFCURVE",
"279 1787 CURVE SMOOTH",
"279 1819 OFFCURVE",
"251 1844 OFFCURVE",
"220 1841 CURVE SMOOTH",
"-66 1813 OFFCURVE",
"-241 1693 OFFCURVE",
"-248 1688 CURVE SMOOTH",
"-263 1677 OFFCURVE",
"-272 1661 OFFCURVE",
"-272 1643 CURVE SMOOTH",
"-272 1633 OFFCURVE",
"-268 1622 OFFCURVE",
"-262 1613 CURVE SMOOTH",
"-251 1597 OFFCURVE",
"-235 1589 OFFCURVE",
"-218 1589 CURVE SMOOTH"
);
}
);
width = 0;
}
);
unicode = 064E;
},
{
glyphname = uni064F;
lastChange = "2015-05-24 03:38:45 +0000";
layers = (
{
anchors = (
{
name = _top;
position = "{1, 1577}";
},
{
name = top;
position = "{-11, 2117}";
}
);
layerId = "66C82CE7-ECCF-480D-AAE6-CD3075A06AEF";
name = Regular;
paths = (
{
closed = 1;
nodes = (
"-14 1597 OFFCURVE",
"106 1618 OFFCURVE",
"177 1667 CURVE SMOOTH",
"255 1719 OFFCURVE",
"266 1795 OFFCURVE",
"267 1869 CURVE SMOOTH",
"267 1875 LINE",
"264 1973 OFFCURVE",
"184 2053 OFFCURVE",
"84 2053 CURVE SMOOTH",
"-16 2053 OFFCURVE",
"-98 1971 OFFCURVE",
"-98 1871 CURVE SMOOTH",
"-98 1806 OFFCURVE",
"-64 1749 OFFCURVE",
"-13 1716 CURVE",
"-66 1709 OFFCURVE",
"-132 1706 OFFCURVE",
"-212 1706 CURVE SMOOTH",
"-242 1706 OFFCURVE",
"-266 1681 OFFCURVE",
"-266 1651 CURVE SMOOTH",
"-266 1621 OFFCURVE",
"-242 1597 OFFCURVE",
"-212 1597 CURVE SMOOTH"
);
},
{
closed = 1;
nodes = (
"43 1797 OFFCURVE",
"11 1830 OFFCURVE",
"11 1871 CURVE SMOOTH",
"11 1911 OFFCURVE",
"43 1945 OFFCURVE",
"84 1945 CURVE SMOOTH",
"125 1945 OFFCURVE",
"158 1911 OFFCURVE",
"158 1871 CURVE SMOOTH",
"158 1870 LINE SMOOTH",
"157 1830 OFFCURVE",
"125 1797 OFFCURVE",
"84 1797 CURVE SMOOTH"
);
}
);
width = 0;
}
);
unicode = 064F;
},
{
glyphname = uni064C;
lastChange = "2015-05-24 03:38:45 +0000";
layers = (
{
anchors = (
{
name = _top;
position = "{-14, 1577}";
},
{
name = top;
position = "{-39, 2160}";
}
);
layerId = "66C82CE7-ECCF-480D-AAE6-CD3075A06AEF";
name = Regular;
paths = (
{
closed = 1;
nodes = (
"178 1597 OFFCURVE",
"323 1687 OFFCURVE",
"323 1889 CURVE SMOOTH",
"323 1910 LINE SMOOTH",
"323 2010 OFFCURVE",
"241 2092 OFFCURVE",
"141 2092 CURVE SMOOTH",
"41 2092 OFFCURVE",
"-41 2010 OFFCURVE",
"-41 1910 CURVE SMOOTH",
"-41 1812 OFFCURVE",
"35 1733 OFFCURVE",
"130 1727 CURVE",
"93 1708 OFFCURVE",
"54 1705 OFFCURVE",
"35 1705 CURVE SMOOTH",
"-5 1705 OFFCURVE",
"-48 1722 OFFCURVE",
"-88 1754 CURVE SMOOTH",
"-125 1783 OFFCURVE",
"-155 1822 OFFCURVE",
"-170 1861 CURVE SMOOTH",
"-176 1876 OFFCURVE",
"-190 1888 OFFCURVE",
"-206 1893 CURVE",
"-211 1894 OFFCURVE",
"-216 1895 OFFCURVE",
"-220 1895 CURVE SMOOTH",
"-232 1895 OFFCURVE",
"-244 1891 OFFCURVE",
"-254 1883 CURVE SMOOTH",
"-329 1824 LINE SMOOTH",
"-343 1814 OFFCURVE",
"-350 1798 OFFCURVE",
"-350 1782 CURVE SMOOTH",
"-350 1770 OFFCURVE",
"-346 1758 OFFCURVE",
"-338 1748 CURVE SMOOTH",
"-327 1734 OFFCURVE",
"-312 1727 OFFCURVE",
"-296 1727 CURVE SMOOTH",
"-284 1727 OFFCURVE",
"-272 1731 OFFCURVE",
"-262 1739 CURVE SMOOTH",
"-238 1758 LINE",
"-215 1725 OFFCURVE",
"-187 1694 OFFCURVE",
"-155 1669 CURVE SMOOTH",
"-96 1622 OFFCURVE",
"-31 1597 OFFCURVE",
"35 1597 CURVE SMOOTH"
);
},
{
closed = 1;
nodes = (
"100 1836 OFFCURVE",
"67 1869 OFFCURVE",
"67 1910 CURVE SMOOTH",
"67 1950 OFFCURVE",
"100 1983 OFFCURVE",
"141 1983 CURVE SMOOTH",
"182 1983 OFFCURVE",
"215 1950 OFFCURVE",
"215 1910 CURVE SMOOTH",
"215 1869 OFFCURVE",
"182 1836 OFFCURVE",
"141 1836 CURVE SMOOTH"
);
}
);
width = 0;
}
);
unicode = 064C;
},
{
glyphname = uni0650;
lastChange = "2015-05-24 03:43:59 +0000";
layers = (
{
anchors = (
{
name = _bottom;
position = "{4, -289}";
},
{
name = bottom;
position = "{6, -537}";
}
);
layerId = "66C82CE7-ECCF-480D-AAE6-CD3075A06AEF";
name = Regular;
paths = (
{
closed = 1;
nodes = (
"-207 -561 OFFCURVE",
"-196 -557 OFFCURVE",
"-186 -551 CURVE",
"-185 -550 OFFCURVE",
"-25 -442 OFFCURVE",
"230 -417 CURVE SMOOTH",
"258 -414 OFFCURVE",
"279 -390 OFFCURVE",
"279 -363 CURVE SMOOTH",
"279 -331 OFFCURVE",
"251 -306 OFFCURVE",
"220 -309 CURVE SMOOTH",
"-66 -337 OFFCURVE",
"-241 -457 OFFCURVE",
"-248 -462 CURVE SMOOTH",
"-263 -473 OFFCURVE",
"-272 -489 OFFCURVE",
"-272 -507 CURVE SMOOTH",
"-272 -517 OFFCURVE",
"-268 -528 OFFCURVE",
"-262 -537 CURVE SMOOTH",
"-251 -553 OFFCURVE",
"-235 -561 OFFCURVE",
"-218 -561 CURVE SMOOTH"
);
}
);
width = 0;
}
);
unicode = 0650;
},
{
glyphname = uni0651;
lastChange = "2015-05-24 03:38:45 +0000";
layers = (
{
anchors = (
{
name = _top;
position = "{-10, 1631}";
},
{
name = top;
position = "{-79, 2106}";
}
);
layerId = "66C82CE7-ECCF-480D-AAE6-CD3075A06AEF";
name = Regular;
paths = (
{
closed = 1;
nodes = (
"-75 1651 OFFCURVE",
"-65 1653 OFFCURVE",
"-55 1655 CURVE",
"-13 1666 OFFCURVE",
"21 1698 OFFCURVE",
"41 1744 CURVE",
"59 1730 OFFCURVE",
"78 1720 OFFCURVE",
"99 1714 CURVE SMOOTH",
"111 1711 OFFCURVE",
"123 1709 OFFCURVE",
"136 1709 CURVE SMOOTH",
"169 1709 OFFCURVE",
"201 1722 OFFCURVE",
"226 1746 CURVE",
"249 1770 OFFCURVE",
"281 1819 OFFCURVE",
"281 1910 CURVE SMOOTH",
"281 1947 OFFCURVE",
"276 1992 OFFCURVE",
"262 2046 CURVE SMOOTH",
"255 2071 OFFCURVE",
"234 2087 OFFCURVE",
"210 2087 CURVE SMOOTH",
"178 2087 OFFCURVE",
"155 2061 OFFCURVE",
"155 2034 CURVE SMOOTH",
"155 2029 OFFCURVE",
"156 2024 OFFCURVE",
"157 2019 CURVE SMOOTH",
"168 1975 OFFCURVE",
"173 1938 OFFCURVE",
"173 1909 CURVE SMOOTH",
"173 1865 OFFCURVE",
"162 1837 OFFCURVE",
"149 1824 CURVE SMOOTH",
"145 1820 OFFCURVE",
"141 1818 OFFCURVE",
"136 1818 CURVE SMOOTH",
"133 1818 OFFCURVE",
"131 1818 OFFCURVE",
"128 1819 CURVE",
"101 1826 OFFCURVE",
"65 1866 OFFCURVE",
"46 1940 CURVE SMOOTH",
"40 1964 OFFCURVE",
"18 1981 OFFCURVE",
"-6 1981 CURVE SMOOTH",
"-37 1981 OFFCURVE",
"-61 1954 OFFCURVE",
"-61 1926 CURVE SMOOTH",
"-61 1921 OFFCURVE",
"-60 1917 OFFCURVE",
"-59 1912 CURVE SMOOTH",
"-52 1887 OFFCURVE",
"-49 1863 OFFCURVE",
"-49 1842 CURVE SMOOTH",
"-49 1824 OFFCURVE",
"-51 1808 OFFCURVE",
"-56 1794 CURVE SMOOTH",
"-62 1776 OFFCURVE",
"-72 1763 OFFCURVE",
"-82 1760 CURVE",
"-93 1758 OFFCURVE",
"-109 1766 OFFCURVE",
"-125 1782 CURVE SMOOTH",
"-144 1802 OFFCURVE",
"-172 1844 OFFCURVE",
"-194 1929 CURVE SMOOTH",
"-200 1953 OFFCURVE",
"-223 1970 OFFCURVE",
"-247 1970 CURVE SMOOTH",
"-280 1970 OFFCURVE",
"-301 1942 OFFCURVE",
"-301 1913 CURVE SMOOTH",
"-301 1909 OFFCURVE",
"-300 1904 OFFCURVE",
"-299 1900 CURVE SMOOTH",
"-277 1815 OFFCURVE",
"-244 1750 OFFCURVE",
"-202 1706 CURVE SMOOTH",
"-168 1671 OFFCURVE",
"-127 1651 OFFCURVE",
"-86 1651 CURVE SMOOTH"
);
}
);
width = 0;
}
);
unicode = 0651;
},
{
glyphname = uni0652;
lastChange = "2015-05-24 03:38:45 +0000";
layers = (
{
anchors = (
{
name = _top;
position = "{-1, 1645}";
},
{
name = top;
position = "{2, 2187}";
}
);
layerId = "66C82CE7-ECCF-480D-AAE6-CD3075A06AEF";
name = Regular;
paths = (
{
closed = 1;
nodes = (
"125 1671 OFFCURVE",
"227 1773 OFFCURVE",
"227 1899 CURVE SMOOTH",
"227 2024 OFFCURVE",
"125 2126 OFFCURVE",
"0 2126 CURVE SMOOTH",
"-126 2126 OFFCURVE",
"-228 2024 OFFCURVE",
"-228 1899 CURVE SMOOTH",
"-228 1773 OFFCURVE",
"-126 1671 OFFCURVE",
"0 1671 CURVE SMOOTH"
);
},
{
closed = 1;
nodes = (
"-66 1780 OFFCURVE",
"-119 1833 OFFCURVE",
"-119 1899 CURVE SMOOTH",
"-119 1964 OFFCURVE",
"-66 2017 OFFCURVE",
"0 2017 CURVE SMOOTH",
"65 2017 OFFCURVE",
"118 1964 OFFCURVE",
"118 1899 CURVE SMOOTH",
"118 1833 OFFCURVE",
"65 1780 OFFCURVE",
"0 1780 CURVE SMOOTH"
);
}
);
width = 0;
}
);
unicode = 0652;
},
{
glyphname = uni0653;
lastChange = "2015-05-24 03:38:45 +0000";
layers = (
{
anchors = (
{
name = _top;
position = "{20, 1589}";
},
{
name = top;
position = "{22, 1813}";
}
);
layerId = "66C82CE7-ECCF-480D-AAE6-CD3075A06AEF";
name = Regular;
paths = (
{
closed = 1;
nodes = (
"330 1559 OFFCURVE",
"341 1711 OFFCURVE",
"338 1717 CURVE",
"338 1718 OFFCURVE",
"336 1719 OFFCURVE",
"334 1719 CURVE SMOOTH",
"302 1719 OFFCURVE",
"299 1676 OFFCURVE",
"207 1676 CURVE SMOOTH",
"99 1676 OFFCURVE",
"1 1760 OFFCURVE",
"-120 1760 CURVE SMOOTH",
"-273 1760 OFFCURVE",
"-305 1636 OFFCURVE",
"-298 1622 CURVE",
"-298 1621 OFFCURVE",
"-297 1621 OFFCURVE",
"-296 1621 CURVE SMOOTH",
"-259 1621 OFFCURVE",
"-273 1654 OFFCURVE",
"-172 1654 CURVE SMOOTH",
"-101 1654 OFFCURVE",
"33 1559 OFFCURVE",
"148 1559 CURVE SMOOTH"
);
}
);
width = 0;
}
);
unicode = 0653;
},
{
glyphname = uni0654;
lastChange = "2015-05-24 03:38:45 +0000";
layers = (
{
anchors = (
{
name = _top;
position = "{-3, 1563}";
},
{
name = top;
position = "{-1, 2033}";
}
);
layerId = "66C82CE7-ECCF-480D-AAE6-CD3075A06AEF";
name = Regular;
paths = (
{
closed = 1;
nodes = (
"-174 1552 OFFCURVE",
"153 1579 OFFCURVE",
"179 1583 CURVE",
"198 1585 OFFCURVE",
"202 1611 OFFCURVE",
"200 1624 CURVE",
"198 1642 OFFCURVE",
"185 1658 OFFCURVE",
"157 1656 CURVE",
"157 1654 OFFCURVE",
"126 1648 OFFCURVE",
"118 1648 CURVE",
"104 1646 OFFCURVE",
"91 1645 OFFCURVE",
"79 1645 CURVE SMOOTH",
"-40 1645 OFFCURVE",
"-65 1738 OFFCURVE",
"-70 1777 CURVE SMOOTH",
"-72 1790 OFFCURVE",
"-73 1801 OFFCURVE",
"-73 1812 CURVE SMOOTH",
"-73 1904 OFFCURVE",
"-11 1924 OFFCURVE",
"-11 1924 CURVE SMOOTH",
"-11 1924 OFFCURVE",
"69 1909 OFFCURVE",
"67 1838 CURVE",
"74 1832 OFFCURVE",
"83 1829 OFFCURVE",
"93 1829 CURVE SMOOTH",
"120 1829 OFFCURVE",
"152 1851 OFFCURVE",
"152 1894 CURVE SMOOTH",
"152 1910 OFFCURVE",
"148 1923 OFFCURVE",
"140 1934 CURVE SMOOTH",
"119 1965 OFFCURVE",
"72 1974 OFFCURVE",
"31 1974 CURVE SMOOTH",
"16 1974 OFFCURVE",
"1 1973 OFFCURVE",
"-11 1971 CURVE SMOOTH",
"-111 1956 OFFCURVE",
"-186 1887 OFFCURVE",
"-186 1795 CURVE SMOOTH",
"-186 1786 OFFCURVE",
"-186 1777 OFFCURVE",
"-184 1767 CURVE SMOOTH",
"-168 1660 OFFCURVE",
"-109 1611 OFFCURVE",
"-109 1611 CURVE",
"-117 1615 OFFCURVE",
"-127 1617 OFFCURVE",
"-138 1617 CURVE SMOOTH",
"-171 1617 OFFCURVE",
"-207 1597 OFFCURVE",
"-207 1564 CURVE SMOOTH",
"-207 1553 OFFCURVE",
"-202 1540 OFFCURVE",
"-192 1526 CURVE"
);
}
);
width = 0;
}
);
unicode = 0654;
},
{
glyphname = uni0655;
lastChange = "2015-05-24 03:38:45 +0000";
layers = (
{
anchors = (
{
name = _bottom;
position = "{-3, -65}";
},
{
name = bottom;
position = "{-1, -567}";
}
);
layerId = "66C82CE7-ECCF-480D-AAE6-CD3075A06AEF";
name = Regular;
paths = (
{
closed = 1;
nodes = (
"-174 -541 OFFCURVE",
"153 -514 OFFCURVE",
"179 -510 CURVE",
"198 -508 OFFCURVE",
"202 -482 OFFCURVE",
"200 -469 CURVE",
"198 -451 OFFCURVE",
"185 -435 OFFCURVE",
"157 -437 CURVE",
"157 -439 OFFCURVE",
"126 -445 OFFCURVE",
"118 -445 CURVE",
"104 -447 OFFCURVE",
"91 -448 OFFCURVE",
"79 -448 CURVE SMOOTH",
"-40 -448 OFFCURVE",
"-65 -355 OFFCURVE",
"-70 -316 CURVE SMOOTH",
"-72 -303 OFFCURVE",
"-73 -292 OFFCURVE",
"-73 -281 CURVE SMOOTH",
"-73 -189 OFFCURVE",
"-11 -169 OFFCURVE",
"-11 -169 CURVE SMOOTH",
"-11 -169 OFFCURVE",
"69 -184 OFFCURVE",
"67 -255 CURVE",
"74 -261 OFFCURVE",
"83 -264 OFFCURVE",
"93 -264 CURVE SMOOTH",
"120 -264 OFFCURVE",
"152 -242 OFFCURVE",
"152 -199 CURVE SMOOTH",
"152 -183 OFFCURVE",
"148 -170 OFFCURVE",
"140 -159 CURVE SMOOTH",
"119 -128 OFFCURVE",
"72 -119 OFFCURVE",
"31 -119 CURVE SMOOTH",
"16 -119 OFFCURVE",
"1 -120 OFFCURVE",
"-11 -122 CURVE SMOOTH",
"-111 -137 OFFCURVE",
"-186 -206 OFFCURVE",
"-186 -298 CURVE SMOOTH",
"-186 -307 OFFCURVE",
"-186 -316 OFFCURVE",
"-184 -326 CURVE SMOOTH",
"-168 -433 OFFCURVE",
"-109 -482 OFFCURVE",
"-109 -482 CURVE",
"-117 -478 OFFCURVE",
"-127 -476 OFFCURVE",
"-138 -476 CURVE SMOOTH",
"-171 -476 OFFCURVE",
"-207 -496 OFFCURVE",
"-207 -529 CURVE SMOOTH",
"-207 -540 OFFCURVE",
"-202 -553 OFFCURVE",
"-192 -567 CURVE"
);
}
);
width = 0;
}
);
unicode = 0655;
},
{
glyphname = uni0670;
lastChange = "2015-05-24 03:38:45 +0000";
layers = (
{
anchors = (
{
name = _top;
position = "{-46, 1641}";
},
{
name = top;
position = "{-44, 2084}";
}
);
layerId = "66C82CE7-ECCF-480D-AAE6-CD3075A06AEF";
name = Regular;
paths = (
{
closed = 1;
nodes = (
"31 1661 OFFCURVE",
"55 1685 OFFCURVE",
"55 1715 CURVE SMOOTH",
"55 1772 OFFCURVE",
"55 1891 OFFCURVE",
"-51 2009 CURVE SMOOTH",
"-62 2021 OFFCURVE",
"-77 2027 OFFCURVE",
"-92 2027 CURVE SMOOTH",
"-105 2027 OFFCURVE",
"-118 2022 OFFCURVE",
"-128 2013 CURVE SMOOTH",
"-140 2002 OFFCURVE",
"-146 1986 OFFCURVE",
"-146 1971 CURVE SMOOTH",
"-146 1958 OFFCURVE",
"-141 1945 OFFCURVE",
"-132 1935 CURVE SMOOTH",
"-53 1849 OFFCURVE",
"-53 1765 OFFCURVE",
"-53 1715 CURVE SMOOTH",
"-53 1685 OFFCURVE",
"-29 1661 OFFCURVE",
"1 1661 CURVE SMOOTH"
);
}
);
width = 0;
}
);
unicode = 0670;
},
{
glyphname = uni0656;
lastChange = "2015-05-24 03:38:45 +0000";
layers = (
{
anchors = (
{
name = _bottom;
position = "{1, -337}";
},
{
name = bottom;
position = "{3, -824}";
}
);
layerId = "66C82CE7-ECCF-480D-AAE6-CD3075A06AEF";
name = Regular;
paths = (
{
closed = 1;
nodes = (
"31 -793 OFFCURVE",
"56 -768 OFFCURVE",
"56 -738 CURVE SMOOTH",
"56 -450 LINE SMOOTH",
"56 -419 OFFCURVE",
"31 -395 OFFCURVE",
"0 -395 CURVE SMOOTH",
"-30 -395 OFFCURVE",
"-55 -419 OFFCURVE",
"-55 -450 CURVE SMOOTH",
"-55 -738 LINE SMOOTH",
"-55 -768 OFFCURVE",
"-30 -793 OFFCURVE",
"0 -793 CURVE SMOOTH"
);
}
);
width = 0;
}
);
unicode = 0656;
},
{
glyphname = uni0615;
lastChange = "2015-05-24 03:38:45 +0000";
layers = (
{
anchors = (
{
name = _top;
position = "{-25, 1209}";
},
{
name = top;
position = "{-23, 1709}";
}
);
layerId = "66C82CE7-ECCF-480D-AAE6-CD3075A06AEF";
name = Regular;
paths = (
{
closed = 1;
nodes = (
"105 1229 LINE SMOOTH",
"161 1229 OFFCURVE",
"192 1252 OFFCURVE",
"209 1284 CURVE SMOOTH",
"225 1316 OFFCURVE",
"228 1355 OFFCURVE",
"228 1387 CURVE SMOOTH",
"228 1438 OFFCURVE",
"209 1481 OFFCURVE",
"178 1513 CURVE SMOOTH",
"146 1544 OFFCURVE",
"103 1563 OFFCURVE",
"52 1563 CURVE SMOOTH",
"19 1563 OFFCURVE",
"-9 1557 OFFCURVE",
"-34 1545 CURVE SMOOTH",
"-83 1520 OFFCURVE",
"-120 1489 OFFCURVE",
"-148 1446 CURVE",
"-148 1643 LINE SMOOTH",
"-148 1694 OFFCURVE",
"-173 1709 OFFCURVE",
"-196 1709 CURVE SMOOTH",
"-213 1709 OFFCURVE",
"-228 1702 OFFCURVE",
"-232 1695 CURVE",
"-228 1692 OFFCURVE",
"-221 1684 OFFCURVE",
"-214 1672 CURVE SMOOTH",
"-207 1660 OFFCURVE",
"-201 1642 OFFCURVE",
"-201 1622 CURVE SMOOTH",
"-201 1317 LINE",
"-260 1317 LINE SMOOTH",
"-271 1317 OFFCURVE",
"-278 1289 OFFCURVE",
"-278 1277 CURVE SMOOTH",
"-278 1272 OFFCURVE",
"-277 1260 OFFCURVE",
"-273 1249 CURVE",
"-270 1238 OFFCURVE",
"-267 1229 OFFCURVE",
"-260 1229 CURVE SMOOTH"
);
},
{
closed = 1;
nodes = (
"-149 1344 OFFCURVE",
"-127 1384 OFFCURVE",
"-90 1417 CURVE SMOOTH",
"-54 1449 OFFCURVE",
"-2 1475 OFFCURVE",
"59 1475 CURVE SMOOTH",
"100 1475 OFFCURVE",
"127 1464 OFFCURVE",
"144 1448 CURVE",
"160 1431 OFFCURVE",
"167 1408 OFFCURVE",
"167 1385 CURVE SMOOTH",
"167 1342 OFFCURVE",
"144 1317 OFFCURVE",
"107 1317 CURVE SMOOTH",
"-149 1317 LINE"
);
}
);
width = 0;
}
);
unicode = 0615;
},
{
glyphname = uni062F.fina;
lastChange = "2015-05-24 04:35:50 +0000";
layers = (
{
anchors = (
{
name = bottom;
position = "{451, -130}";
},
{
name = top;
position = "{451, 1200}";
}
);
layerId = "66C82CE7-ECCF-480D-AAE6-CD3075A06AEF";
name = Regular;
paths = (
{
closed = 1;
nodes = (
"451 0 LINE SMOOTH",
"528 0 OFFCURVE",
"592 20 OFFCURVE",
"646 54 CURVE",
"692 20 OFFCURVE",
"743 0 OFFCURVE",
"837 0 CURVE SMOOTH",
"1116 0 LINE SMOOTH",
"1119 0 OFFCURVE",
"1124 3 OFFCURVE",
"1124 6 CURVE SMOOTH",
"1124 116 LINE SMOOTH",
"1124 119 OFFCURVE",
"1119 121 OFFCURVE",
"1116 121 CURVE SMOOTH",
"726 121 LINE",
"841 244 OFFCURVE",
"886 434 OFFCURVE",
"886 565 CURVE SMOOTH",
"886 763 OFFCURVE",
"763 1038 OFFCURVE",
"444 1038 CURVE SMOOTH",
"266 1038 OFFCURVE",
"124 968 OFFCURVE",
"124 851 CURVE SMOOTH",
"124 839 OFFCURVE",
"126 827 OFFCURVE",
"129 814 CURVE SMOOTH",
"143 753 OFFCURVE",
"186 738 OFFCURVE",
"225 738 CURVE SMOOTH",
"252 738 OFFCURVE",
"278 746 OFFCURVE",
"286 749 CURVE",
"286 892 OFFCURVE",
"352 950 OFFCURVE",
"450 980 CURVE",
"593 980 OFFCURVE",
"701 771 OFFCURVE",
"701 560 CURVE SMOOTH",
"701 342 OFFCURVE",
"587 121 OFFCURVE",
"280 121 CURVE SMOOTH",
"171 121 LINE SMOOTH",
"109 121 OFFCURVE",
"92 93 OFFCURVE",
"92 60 CURVE SMOOTH",
"92 30 OFFCURVE",
"105 0 OFFCURVE",
"148 0 CURVE SMOOTH"
);
}
);
width = 1084;
}
);
unicode = FEAA;
},
{
glyphname = wasla;
lastChange = "2015-05-24 03:38:45 +0000";
layers = (
{
layerId = "66C82CE7-ECCF-480D-AAE6-CD3075A06AEF";
name = Regular;
paths = (
{
closed = 1;
nodes = (
"114 1577 LINE SMOOTH",
"226 1577 OFFCURVE",
"237 1670 OFFCURVE",
"237 1734 CURVE SMOOTH",
"237 1836 OFFCURVE",
"161 1911 OFFCURVE",
"61 1911 CURVE SMOOTH",
"-70 1911 OFFCURVE",
"-139 1794 OFFCURVE",
"-139 1794 CURVE",
"-165 1756 OFFCURVE",
"-192 1684 OFFCURVE",
"-192 1664 CURVE",
"-251 1664 LINE SMOOTH",
"-261 1664 OFFCURVE",
"-269 1637 OFFCURVE",
"-269 1625 CURVE SMOOTH",
"-269 1613 OFFCURVE",
"-264 1577 OFFCURVE",
"-251 1577 CURVE SMOOTH"
);
},
{
closed = 1;
nodes = (
"-140 1719 OFFCURVE",
"-55 1823 OFFCURVE",
"68 1823 CURVE SMOOTH",
"150 1823 OFFCURVE",
"176 1778 OFFCURVE",
"176 1732 CURVE SMOOTH",
"176 1690 OFFCURVE",
"153 1664 OFFCURVE",
"115 1664 CURVE SMOOTH",
"-140 1664 LINE"
);
}
);
width = 0;
}
);
},
{
glyphname = uni066E.init;
lastChange = "2015-05-24 04:38:03 +0000";
layers = (
{
anchors = (
{
name = bottom;
position = "{308, -130}";
},
{
name = top;
position = "{308, 1200}";
}
);
layerId = "66C82CE7-ECCF-480D-AAE6-CD3075A06AEF";
name = Regular;
paths = (
{
closed = 1;
nodes = (
"9 0 LINE SMOOTH",
"356 0 OFFCURVE",
"442 335 OFFCURVE",
"442 531 CURVE SMOOTH",
"442 789 OFFCURVE",
"384 1038 OFFCURVE",
"188 1038 CURVE SMOOTH",
"130 1038 OFFCURVE",
"96 1017 OFFCURVE",
"77 999 CURVE",
"227 873 OFFCURVE",
"254 655 OFFCURVE",
"255 531 CURVE SMOOTH",
"255 430 OFFCURVE",
"253 121 OFFCURVE",
"23 121 CURVE SMOOTH",
"-12 121 LINE SMOOTH",
"-16 121 OFFCURVE",
"-20 118 OFFCURVE",
"-20 115 CURVE SMOOTH",
"-20 7 LINE SMOOTH",
"-20 4 OFFCURVE",
"-16 0 OFFCURVE",
"-12 0 CURVE SMOOTH"
);
}
);
width = 616;
}
);
},
{
glyphname = uni066E.medi;
lastChange = "2015-05-24 04:38:17 +0000";
layers = (
{
anchors = (
{
name = bottom;
position = "{331, -130}";
},
{
name = top;
position = "{331, 1200}";
}
);
layerId = "66C82CE7-ECCF-480D-AAE6-CD3075A06AEF";
name = Regular;
paths = (
{
closed = 1;
nodes = (
"115 0 LINE",
"177 3 OFFCURVE",
"231 20 OFFCURVE",
"280 52 CURVE",
"325 19 OFFCURVE",
"376 0 OFFCURVE",
"468 0 CURVE SMOOTH",
"691 0 LINE SMOOTH",
"694 0 OFFCURVE",
"698 4 OFFCURVE",
"698 7 CURVE SMOOTH",
"698 115 LINE SMOOTH",
"698 118 OFFCURVE",
"694 121 OFFCURVE",
"691 121 CURVE SMOOTH",
"484 121 LINE SMOOTH",
"434 121 OFFCURVE",
"433 218 OFFCURVE",
"433 285 CURVE SMOOTH",
"433 947 LINE SMOOTH",
"433 1016 OFFCURVE",
"382 1038 OFFCURVE",
"332 1038 CURVE SMOOTH",
"280 1038 OFFCURVE",
"228 1017 OFFCURVE",
"228 946 CURVE SMOOTH",
"229 351 LINE SMOOTH",
"229 277 OFFCURVE",
"199 121 OFFCURVE",
"60 121 CURVE SMOOTH",
"-34 121 LINE SMOOTH",
"-38 121 OFFCURVE",
"-40 117 OFFCURVE",
"-40 115 CURVE SMOOTH",
"-40 8 LINE SMOOTH",
"-40 5 OFFCURVE",
"-38 0 OFFCURVE",
"-34 0 CURVE SMOOTH"
);
}
);
width = 658;
}
);
},
{
glyphname = beh_dotless_alt.init;
lastChange = "2015-05-24 03:55:47 +0000";
layers = (
{
anchors = (
{
name = bottom;
position = "{288, -130}";
},
{
name = top;
position = "{288, 1200}";
}
);
layerId = "66C82CE7-ECCF-480D-AAE6-CD3075A06AEF";
name = Regular;
paths = (
{
closed = 1;
nodes = (
"112 0 LINE SMOOTH",
"459 0 OFFCURVE",
"545 335 OFFCURVE",
"545 531 CURVE SMOOTH",
"545 789 OFFCURVE",
"487 1038 OFFCURVE",
"291 1038 CURVE SMOOTH",
"233 1038 OFFCURVE",
"199 1017 OFFCURVE",
"180 999 CURVE",
"330 873 OFFCURVE",
"357 655 OFFCURVE",
"358 531 CURVE SMOOTH",
"358 430 OFFCURVE",
"356 121 OFFCURVE",
"126 121 CURVE SMOOTH",
"-32 121 LINE SMOOTH",
"-36 121 OFFCURVE",
"-40 118 OFFCURVE",
"-40 115 CURVE SMOOTH",
"-40 7 LINE SMOOTH",
"-40 4 OFFCURVE",
"-36 0 OFFCURVE",
"-32 0 CURVE SMOOTH"
);
}
);
width = 746;
}
);
},
{
glyphname = beh_dotless_alt.medi;
lastChange = "2015-05-24 03:55:54 +0000";
layers = (
{
anchors = (
{
name = bottom;
position = "{392, -130}";
},
{
name = top;
position = "{392, 1200}";
}
);
layerId = "66C82CE7-ECCF-480D-AAE6-CD3075A06AEF";
name = Regular;
paths = (
{
closed = 1;
nodes = (
"178 0 LINE",
"240 3 OFFCURVE",
"294 20 OFFCURVE",
"343 52 CURVE",
"388 19 OFFCURVE",
"439 0 OFFCURVE",
"531 0 CURVE SMOOTH",
"794 0 LINE SMOOTH",
"797 0 OFFCURVE",
"801 4 OFFCURVE",
"801 7 CURVE SMOOTH",
"801 115 LINE SMOOTH",
"801 118 OFFCURVE",
"797 121 OFFCURVE",
"794 121 CURVE SMOOTH",
"547 121 LINE SMOOTH",
"497 121 OFFCURVE",
"496 218 OFFCURVE",
"496 285 CURVE SMOOTH",
"496 947 LINE SMOOTH",
"496 1016 OFFCURVE",
"445 1038 OFFCURVE",
"395 1038 CURVE SMOOTH",
"343 1038 OFFCURVE",
"291 1017 OFFCURVE",
"291 946 CURVE SMOOTH",
"292 351 LINE SMOOTH",
"292 277 OFFCURVE",
"262 121 OFFCURVE",
"123 121 CURVE SMOOTH",
"-34 121 LINE SMOOTH",
"-38 121 OFFCURVE",
"-40 117 OFFCURVE",
"-40 115 CURVE SMOOTH",
"-40 8 LINE SMOOTH",
"-40 5 OFFCURVE",
"-38 0 OFFCURVE",
"-34 0 CURVE SMOOTH"
);
}
);
width = 761;
}
);
},
{
glyphname = uni06C1.fina;
lastChange = "2015-05-24 04:35:50 +0000";
layers = (
{
anchors = (
{
name = bottom;
position = "{668, -228}";
},
{
name = top;
position = "{668, 1310}";
}
);
layerId = "66C82CE7-ECCF-480D-AAE6-CD3075A06AEF";
name = Regular;
paths = (
{
closed = 1;
nodes = (
"222 0 LINE",
"222 172 OFFCURVE",
"318 450 OFFCURVE",
"478 625 CURVE SMOOTH",
"559 713 OFFCURVE",
"650 785 OFFCURVE",
"744 836 CURVE SMOOTH",
"823 878 OFFCURVE",
"901 904 OFFCURVE",
"977 913 CURVE",
"977 61 LINE SMOOTH",
"977 27 OFFCURVE",
"1004 0 OFFCURVE",
"1038 0 CURVE SMOOTH",
"1357 0 LINE",
"1357 121 LINE",
"1098 121 LINE",
"1098 977 LINE SMOOTH",
"1098 1011 OFFCURVE",
"1071 1038 OFFCURVE",
"1038 1038 CURVE SMOOTH",
"818 1038 OFFCURVE",
"582 917 OFFCURVE",
"389 706 CURVE SMOOTH",
"302 612 OFFCURVE",
"230 504 OFFCURVE",
"179 394 CURVE SMOOTH",
"126 279 OFFCURVE",
"101 102 OFFCURVE",
"101 0 CURVE"
);
}
);
width = 1317;
}
);
unicode = 06C1;
},
{
glyphname = onedot.below;
lastChange = "2015-05-24 03:38:45 +0000";
layers = (
{
layerId = "66C82CE7-ECCF-480D-AAE6-CD3075A06AEF";
name = Regular;
paths = (
{
closed = 1;
nodes = (
"63 -393 OFFCURVE",
"115 -342 OFFCURVE",
"115 -279 CURVE SMOOTH",
"115 -215 OFFCURVE",
"63 -164 OFFCURVE",
"0 -164 CURVE SMOOTH",
"-63 -164 OFFCURVE",
"-115 -215 OFFCURVE",
"-115 -279 CURVE SMOOTH",
"-115 -342 OFFCURVE",
"-63 -393 OFFCURVE",
"0 -393 CURVE SMOOTH"
);
}
);
width = 0;
}
);
},
{
glyphname = twodots.below;
lastChange = "2015-05-24 03:38:45 +0000";
layers = (
{
layerId = "66C82CE7-ECCF-480D-AAE6-CD3075A06AEF";
name = Regular;
paths = (
{
closed = 1;
nodes = (
"237 -393 OFFCURVE",
"288 -342 OFFCURVE",
"288 -279 CURVE SMOOTH",
"288 -216 OFFCURVE",
"237 -164 OFFCURVE",
"174 -164 CURVE SMOOTH",
"111 -164 OFFCURVE",
"59 -216 OFFCURVE",
"59 -279 CURVE SMOOTH",
"59 -342 OFFCURVE",
"111 -393 OFFCURVE",
"174 -393 CURVE SMOOTH"
);
},
{
closed = 1;
nodes = (
"-117 -393 OFFCURVE",
"-66 -342 OFFCURVE",
"-66 -279 CURVE SMOOTH",
"-66 -216 OFFCURVE",
"-117 -164 OFFCURVE",
"-180 -164 CURVE SMOOTH",
"-243 -164 OFFCURVE",
"-295 -216 OFFCURVE",
"-295 -279 CURVE SMOOTH",
"-295 -342 OFFCURVE",
"-243 -393 OFFCURVE",
"-180 -393 CURVE SMOOTH"
);
}
);
width = 0;
}
);
},
{
glyphname = alef_alt.isol;
lastChange = "2015-05-24 04:35:50 +0000";
layers = (
{
anchors = (
{
name = bottom;
position = "{297, -130}";
},
{
name = top;
position = "{240, 1600}";
}
);
layerId = "66C82CE7-ECCF-480D-AAE6-CD3075A06AEF";
name = Regular;
paths = (
{
closed = 1;
nodes = (
"382 0 OFFCURVE",
"387 59 OFFCURVE",
"387 130 CURVE SMOOTH",
"386 1213 LINE SMOOTH",
"386 1353 OFFCURVE",
"312 1434 OFFCURVE",
"240 1434 CURVE SMOOTH",
"163 1434 OFFCURVE",
"132 1421 OFFCURVE",
"98 1386 CURVE",
"122 1370 OFFCURVE",
"143 1341 OFFCURVE",
"163 1302 CURVE SMOOTH",
"183 1261 OFFCURVE",
"205 1211 OFFCURVE",
"205 1140 CURVE SMOOTH",
"205 130 LINE SMOOTH",
"205 58 OFFCURVE",
"210 0 OFFCURVE",
"296 0 CURVE SMOOTH"
);
}
);
width = 487;
}
);
},
{
glyphname = alef_alt.fina;
lastChange = "2015-05-24 04:35:50 +0000";
layers = (
{
anchors = (
{
name = bottom;
position = "{297, -130}";
},
{
name = top;
position = "{240, 1600}";
}
);
layerId = "66C82CE7-ECCF-480D-AAE6-CD3075A06AEF";
name = Regular;
paths = (
{
closed = 1;
nodes = (
"660 0 LINE SMOOTH",
"665 0 OFFCURVE",
"668 4 OFFCURVE",
"668 7 CURVE SMOOTH",
"668 115 LINE SMOOTH",
"668 118 OFFCURVE",
"665 121 OFFCURVE",
"660 121 CURVE SMOOTH",
"567 121 LINE SMOOTH",
"443 121 OFFCURVE",
"387 248 OFFCURVE",
"387 360 CURVE",
"386 1213 LINE SMOOTH",
"386 1353 OFFCURVE",
"312 1434 OFFCURVE",
"240 1434 CURVE SMOOTH",
"163 1434 OFFCURVE",
"132 1421 OFFCURVE",
"98 1386 CURVE",
"122 1370 OFFCURVE",
"143 1341 OFFCURVE",
"163 1302 CURVE SMOOTH",
"183 1261 OFFCURVE",
"205 1211 OFFCURVE",
"205 1140 CURVE SMOOTH",
"204 396 LINE SMOOTH",
"204 118 OFFCURVE",
"348 0 OFFCURVE",
"513 0 CURVE SMOOTH"
);
}
);
width = 628;
}
);
},
{
glyphname = uni0646;
lastChange = "2015-05-24 04:35:50 +0000";
layers = (
{
anchors = (
{
name = bottom;
position = "{705, -668}";
},
{
name = top;
position = "{705, 1500}";
}
);
layerId = "66C82CE7-ECCF-480D-AAE6-CD3075A06AEF";
name = Regular;
paths = (
{
closed = 1;
nodes = (
"857 -502 OFFCURVE",
"967 -465 OFFCURVE",
"1046 -396 CURVE SMOOTH",
"1125 -328 OFFCURVE",
"1172 -229 OFFCURVE",
"1200 -105 CURVE SMOOTH",
"1227 18 OFFCURVE",
"1235 167 OFFCURVE",
"1235 332 CURVE SMOOTH",
"1235 947 LINE SMOOTH",
"1235 982 OFFCURVE",
"1222 1005 OFFCURVE",
"1203 1019 CURVE SMOOTH",
"1184 1033 OFFCURVE",
"1159 1038 OFFCURVE",
"1134 1038 CURVE SMOOTH",
"1107 1038 OFFCURVE",
"1082 1033 OFFCURVE",
"1063 1019 CURVE SMOOTH",
"1043 1005 OFFCURVE",
"1030 982 OFFCURVE",
"1030 946 CURVE SMOOTH",
"1030 115 LINE SMOOTH",
"1030 62 OFFCURVE",
"1031 -12 OFFCURVE",
"1020 -85 CURVE SMOOTH",
"1009 -158 OFFCURVE",
"986 -232 OFFCURVE",
"937 -287 CURVE SMOOTH",
"888 -343 OFFCURVE",
"812 -380 OFFCURVE",
"699 -380 CURVE SMOOTH",
"590 -380 OFFCURVE",
"495 -339 OFFCURVE",
"427 -275 CURVE SMOOTH",
"359 -211 OFFCURVE",
"319 -123 OFFCURVE",
"319 -28 CURVE SMOOTH",
"319 50 OFFCURVE",
"326 116 OFFCURVE",
"340 170 CURVE SMOOTH",
"367 278 OFFCURVE",
"406 346 OFFCURVE",
"440 381 CURVE SMOOTH",
"457 398 OFFCURVE",
"468 410 OFFCURVE",
"475 415 CURVE",
"440 436 OFFCURVE",
"408 447 OFFCURVE",
"378 447 CURVE SMOOTH",
"347 447 OFFCURVE",
"319 440 OFFCURVE",
"294 425 CURVE SMOOTH",
"243 395 OFFCURVE",
"203 336 OFFCURVE",
"176 265 CURVE SMOOTH",
"148 194 OFFCURVE",
"133 113 OFFCURVE",
"133 36 CURVE SMOOTH",
"133 -49 OFFCURVE",
"150 -138 OFFCURVE",
"188 -217 CURVE SMOOTH",
"226 -297 OFFCURVE",
"284 -368 OFFCURVE",
"368 -419 CURVE SMOOTH",
"452 -471 OFFCURVE",
"562 -502 OFFCURVE",
"702 -502 CURVE SMOOTH"
);
},
{
closed = 1;
nodes = (
"704 1035 OFFCURVE",
"733 1048 OFFCURVE",
"754 1069 CURVE SMOOTH",
"774 1089 OFFCURVE",
"787 1117 OFFCURVE",
"787 1149 CURVE SMOOTH",
"787 1181 OFFCURVE",
"774 1210 OFFCURVE",
"754 1231 CURVE",
"733 1251 OFFCURVE",
"704 1264 OFFCURVE",
"672 1264 CURVE SMOOTH",
"640 1264 OFFCURVE",
"612 1251 OFFCURVE",
"592 1231 CURVE SMOOTH",
"571 1210 OFFCURVE",
"558 1181 OFFCURVE",
"558 1149 CURVE SMOOTH",
"558 1117 OFFCURVE",
"571 1089 OFFCURVE",
"592 1069 CURVE",
"612 1048 OFFCURVE",
"640 1035 OFFCURVE",
"672 1035 CURVE SMOOTH"
);
}
);
width = 1368;
}
);
unicode = 0646;
},
{
glyphname = uni0646.fina;
lastChange = "2015-05-24 04:35:50 +0000";
layers = (
{
anchors = (
{
name = bottom;
position = "{725, -668}";
},
{
name = top;
position = "{725, 1500}";
}
);
layerId = "66C82CE7-ECCF-480D-AAE6-CD3075A06AEF";
name = Regular;
paths = (
{
closed = 1;
nodes = (
"887 -502 OFFCURVE",
"1009 -449 OFFCURVE",
"1089 -353 CURVE SMOOTH",
"1169 -257 OFFCURVE",
"1207 -118 OFFCURVE",
"1223 51 CURVE",
"1268 19 OFFCURVE",
"1320 0 OFFCURVE",
"1412 0 CURVE SMOOTH",
"1463 0 LINE SMOOTH",
"1466 0 OFFCURVE",
"1471 3 OFFCURVE",
"1471 6 CURVE SMOOTH",
"1471 114 LINE SMOOTH",
"1471 117 OFFCURVE",
"1466 121 OFFCURVE",
"1463 121 CURVE SMOOTH",
"1229 121 LINE",
"1233 186 OFFCURVE",
"1235 256 OFFCURVE",
"1235 331 CURVE SMOOTH",
"1235 947 LINE SMOOTH",
"1235 982 OFFCURVE",
"1223 1005 OFFCURVE",
"1204 1019 CURVE SMOOTH",
"1185 1033 OFFCURVE",
"1160 1038 OFFCURVE",
"1135 1038 CURVE SMOOTH",
"1108 1038 OFFCURVE",
"1083 1033 OFFCURVE",
"1064 1019 CURVE SMOOTH",
"1044 1005 OFFCURVE",
"1031 982 OFFCURVE",
"1031 946 CURVE SMOOTH",
"1031 115 LINE SMOOTH",
"1031 62 OFFCURVE",
"1032 -12 OFFCURVE",
"1021 -85 CURVE SMOOTH",
"1010 -158 OFFCURVE",
"987 -232 OFFCURVE",
"938 -288 CURVE SMOOTH",
"889 -344 OFFCURVE",
"813 -381 OFFCURVE",
"700 -381 CURVE SMOOTH",
"591 -381 OFFCURVE",
"496 -340 OFFCURVE",
"428 -275 CURVE SMOOTH",
"360 -211 OFFCURVE",
"320 -124 OFFCURVE",
"320 -29 CURVE SMOOTH",
"320 50 OFFCURVE",
"327 116 OFFCURVE",
"341 170 CURVE SMOOTH",
"368 278 OFFCURVE",
"407 345 OFFCURVE",
"441 381 CURVE SMOOTH",
"458 398 OFFCURVE",
"469 410 OFFCURVE",
"475 415 CURVE",
"440 436 OFFCURVE",
"408 447 OFFCURVE",
"378 447 CURVE SMOOTH",
"347 447 OFFCURVE",
"319 440 OFFCURVE",
"294 425 CURVE SMOOTH",
"243 395 OFFCURVE",
"203 336 OFFCURVE",
"176 265 CURVE SMOOTH",
"148 194 OFFCURVE",
"133 112 OFFCURVE",
"133 35 CURVE SMOOTH",
"133 -50 OFFCURVE",
"151 -138 OFFCURVE",
"188 -218 CURVE SMOOTH",
"225 -298 OFFCURVE",
"285 -368 OFFCURVE",
"369 -419 CURVE SMOOTH",
"453 -471 OFFCURVE",
"563 -502 OFFCURVE",
"702 -502 CURVE SMOOTH"
);
},
{
closed = 1;
nodes = (
"704 1035 OFFCURVE",
"733 1048 OFFCURVE",
"754 1069 CURVE SMOOTH",
"774 1089 OFFCURVE",
"787 1117 OFFCURVE",
"787 1149 CURVE SMOOTH",
"787 1181 OFFCURVE",
"774 1210 OFFCURVE",
"754 1231 CURVE",
"733 1251 OFFCURVE",
"704 1264 OFFCURVE",
"672 1264 CURVE SMOOTH",
"640 1264 OFFCURVE",
"612 1251 OFFCURVE",
"592 1231 CURVE SMOOTH",
"571 1210 OFFCURVE",
"558 1181 OFFCURVE",
"558 1149 CURVE SMOOTH",
"558 1117 OFFCURVE",
"571 1089 OFFCURVE",
"592 1069 CURVE",
"612 1048 OFFCURVE",
"640 1035 OFFCURVE",
"672 1035 CURVE SMOOTH"
);
}
);
width = 1451;
}
);
unicode = FEE6;
},
{
glyphname = heh_ae.fina;
lastChange = "2015-05-24 04:02:58 +0000";
layers = (
{
layerId = "66C82CE7-ECCF-480D-AAE6-CD3075A06AEF";
name = Regular;
paths = (
{
closed = 1;
nodes = (
"493 -2 LINE SMOOTH",
"573 -2 OFFCURVE",
"644 23 OFFCURVE",
"692 46 CURVE",
"735 17 OFFCURVE",
"786 0 OFFCURVE",
"873 0 CURVE SMOOTH",
"1185 0 LINE SMOOTH",
"1189 0 OFFCURVE",
"1191 2 OFFCURVE",
"1191 6 CURVE SMOOTH",
"1191 114 LINE SMOOTH",
"1191 119 OFFCURVE",
"1189 121 OFFCURVE",
"1185 121 CURVE SMOOTH",
"948 121 LINE",
"948 701 LINE SMOOTH",
"948 793 OFFCURVE",
"926 878 OFFCURVE",
"868 939 CURVE SMOOTH",
"810 999 OFFCURVE",
"714 1038 OFFCURVE",
"569 1038 CURVE SMOOTH",
"456 1038 OFFCURVE",
"347 1008 OFFCURVE",
"267 934 CURVE SMOOTH",
"186 860 OFFCURVE",
"133 743 OFFCURVE",
"133 571 CURVE SMOOTH",
"133 550 LINE",
"133 509 LINE SMOOTH",
"133 494 OFFCURVE",
"133 480 OFFCURVE",
"134 467 CURVE",
"134 444 LINE SMOOTH",
"134 372 OFFCURVE",
"143 299 OFFCURVE",
"164 233 CURVE SMOOTH",
"184 167 OFFCURVE",
"218 108 OFFCURVE",
"270 66 CURVE SMOOTH",
"321 24 OFFCURVE",
"388 -2 OFFCURVE",
"477 -2 CURVE SMOOTH"
);
},
{
closed = 1;
nodes = (
"555 121 OFFCURVE",
"516 130 OFFCURVE",
"484 148 CURVE SMOOTH",
"420 183 OFFCURVE",
"380 239 OFFCURVE",
"359 304 CURVE SMOOTH",
"338 368 OFFCURVE",
"329 429 OFFCURVE",
"328 475 CURVE SMOOTH",
"327 498 OFFCURVE",
"327 513 OFFCURVE",
"327 520 CURVE SMOOTH",
"327 661 OFFCURVE",
"347 760 OFFCURVE",
"386 824 CURVE SMOOTH",
"425 888 OFFCURVE",
"481 916 OFFCURVE",
"556 916 CURVE SMOOTH",
"613 916 OFFCURVE",
"664 903 OFFCURVE",
"699 867 CURVE SMOOTH",
"734 830 OFFCURVE",
"755 769 OFFCURVE",
"755 676 CURVE SMOOTH",
"755 121 LINE",
"602 121 LINE SMOOTH"
);
}
);
width = 1151;
}
);
},
{
glyphname = uni06C2.fina;
lastChange = "2015-05-24 04:35:50 +0000";
layers = (
{
anchors = (
{
name = bottom;
position = "{668, -130}";
},
{
name = top;
position = "{668, 1823}";
}
);
components = (
{
name = uni0654;
transform = "{1, 0, 0, 1, 902, -331}";
}
);
layerId = "66C82CE7-ECCF-480D-AAE6-CD3075A06AEF";
name = Regular;
paths = (
{
closed = 1;
nodes = (
"222 0 LINE",
"222 85 OFFCURVE",
"246 199 OFFCURVE",
"290 312 CURVE SMOOTH",
"334 424 OFFCURVE",
"398 537 OFFCURVE",
"478 625 CURVE SMOOTH",
"642 802 OFFCURVE",
"826 896 OFFCURVE",
"977 913 CURVE",
"977 61 LINE SMOOTH",
"977 26 OFFCURVE",
"1003 0 OFFCURVE",
"1038 0 CURVE SMOOTH",
"1357 0 LINE",
"1357 121 LINE",
"1098 121 LINE",
"1098 977 LINE SMOOTH",
"1098 1012 OFFCURVE",
"1071 1038 OFFCURVE",
"1038 1038 CURVE SMOOTH",
"927 1038 OFFCURVE",
"814 1008 OFFCURVE",
"703 952 CURVE SMOOTH",
"592 895 OFFCURVE",
"485 811 OFFCURVE",
"389 706 CURVE SMOOTH",
"301 611 OFFCURVE",
"230 505 OFFCURVE",
"179 394 CURVE SMOOTH",
"152 337 OFFCURVE",
"133 264 OFFCURVE",
"120 193 CURVE SMOOTH",
"107 121 OFFCURVE",
"101 51 OFFCURVE",
"101 0 CURVE"
);
}
);
width = 1317;
}
);
unicode = 06C2;
},
{
glyphname = uni06BE.fina;
lastChange = "2015-05-24 04:35:50 +0000";
layers = (
{
anchors = (
{
name = bottom;
position = "{740, -130}";
},
{
name = top;
position = "{740, 1400}";
}
);
layerId = "66C82CE7-ECCF-480D-AAE6-CD3075A06AEF";
name = Regular;
paths = (
{
closed = 1;
nodes = (
"157 0 LINE SMOOTH",
"347 0 OFFCURVE",
"459 61 OFFCURVE",
"459 61 CURVE SMOOTH",
"459 61 OFFCURVE",
"578 0 OFFCURVE",
"749 0 CURVE SMOOTH",
"790 0 LINE SMOOTH",
"856 0 OFFCURVE",
"915 18 OFFCURVE",
"968 53 CURVE",
"1014 20 OFFCURVE",
"1065 0 OFFCURVE",
"1158 0 CURVE SMOOTH",
"1493 0 LINE SMOOTH",
"1496 0 OFFCURVE",
"1501 2 OFFCURVE",
"1501 6 CURVE SMOOTH",
"1501 115 LINE SMOOTH",
"1501 118 OFFCURVE",
"1496 121 OFFCURVE",
"1493 121 CURVE SMOOTH",
"1049 121 LINE",
"1161 240 OFFCURVE",
"1225 430 OFFCURVE",
"1225 617 CURVE SMOOTH",
"1225 929 OFFCURVE",
"1002 1205 OFFCURVE",
"685 1205 CURVE SMOOTH",
"671 1205 OFFCURVE",
"640 1205 OFFCURVE",
"606 1206 CURVE SMOOTH",
"528 1206 OFFCURVE",
"456 1201 OFFCURVE",
"397 1201 CURVE SMOOTH",
"368 1201 OFFCURVE",
"341 1202 OFFCURVE",
"319 1206 CURVE",
"269 1212 OFFCURVE",
"240 1239 OFFCURVE",
"226 1250 CURVE",
"226 1142 OFFCURVE",
"267 1084 OFFCURVE",
"385 1084 CURVE SMOOTH",
"479 1084 LINE SMOOTH",
"710 1084 OFFCURVE",
"1045 1055 OFFCURVE",
"1045 612 CURVE SMOOTH",
"1045 338 OFFCURVE",
"904 85 OFFCURVE",
"657 85 CURVE SMOOTH",
"623 85 OFFCURVE",
"586 89 OFFCURVE",
"548 100 CURVE",
"630 162 OFFCURVE",
"659 336 OFFCURVE",
"659 473 CURVE SMOOTH",
"659 636 OFFCURVE",
"575 850 OFFCURVE",
"436 850 CURVE SMOOTH",
"308 850 OFFCURVE",
"224 692 OFFCURVE",
"224 480 CURVE SMOOTH",
"224 357 OFFCURVE",
"260 174 OFFCURVE",
"368 118 CURVE",
"360 111 OFFCURVE",
"343 109 OFFCURVE",
"323 109 CURVE SMOOTH",
"278 109 OFFCURVE",
"220 121 OFFCURVE",
"220 121 CURVE SMOOTH",
"133 121 LINE",
"133 0 LINE"
);
},
{
closed = 1;
nodes = (
"361 157 OFFCURVE",
"305 323 OFFCURVE",
"305 464 CURVE SMOOTH",
"305 578 OFFCURVE",
"341 779 OFFCURVE",
"420 779 CURVE SMOOTH",
"518 779 OFFCURVE",
"560 569 OFFCURVE",
"560 468 CURVE",
"561 455 OFFCURVE",
"560 157 OFFCURVE",
"441 157 CURVE SMOOTH"
);
}
);
width = 1461;
}
);
unicode = FBAB;
},
{
glyphname = uni06F0;
lastChange = "2015-05-24 03:38:45 +0000";
layers = (
{
layerId = "66C82CE7-ECCF-480D-AAE6-CD3075A06AEF";
name = Regular;
paths = (
{
closed = 1;
nodes = (
"462 389 OFFCURVE",
"536 463 OFFCURVE",
"536 555 CURVE SMOOTH",
"536 646 OFFCURVE",
"462 720 OFFCURVE",
"370 720 CURVE SMOOTH",
"279 720 OFFCURVE",
"205 646 OFFCURVE",
"205 555 CURVE SMOOTH",
"205 463 OFFCURVE",
"279 389 OFFCURVE",
"370 389 CURVE SMOOTH"
);
}
);
width = 741;
}
);
unicode = 06F0;
},
{
glyphname = uni06F1;
lastChange = "2015-05-24 03:38:45 +0000";
layers = (
{
layerId = "66C82CE7-ECCF-480D-AAE6-CD3075A06AEF";
name = Regular;
paths = (
{
closed = 1;
nodes = (
"351 0 OFFCURVE",
"400 37 OFFCURVE",
"400 118 CURVE SMOOTH",
"400 1330 LINE",
"301 1380 LINE",
"298 1380 OFFCURVE",
"187 1326 OFFCURVE",
"146 1305 CURVE",
"157 1286 OFFCURVE",
"167 1263 OFFCURVE",
"175 1237 CURVE SMOOTH",
"188 1196 OFFCURVE",
"194 1147 OFFCURVE",
"194 1080 CURVE SMOOTH",
"194 769 LINE",
"194 117 LINE SMOOTH",
"194 48 OFFCURVE",
"224 0 OFFCURVE",
"296 0 CURVE SMOOTH"
);
}
);
width = 592;
}
);
unicode = 06F1;
},
{
glyphname = uni06F2;
lastChange = "2015-05-24 03:38:45 +0000";
layers = (
{
layerId = "66C82CE7-ECCF-480D-AAE6-CD3075A06AEF";
name = Regular;
paths = (
{
closed = 1;
nodes = (
"297 0 OFFCURVE",
"346 37 OFFCURVE",
"346 118 CURVE SMOOTH",
"346 1198 LINE",
"849 1174 LINE SMOOTH",
"879 1174 OFFCURVE",
"912 1186 OFFCURVE",
"912 1278 CURVE SMOOTH",
"912 1353 OFFCURVE",
"891 1380 OFFCURVE",
"846 1380 CURVE SMOOTH",
"244 1380 LINE",
"241 1379 OFFCURVE",
"134 1327 OFFCURVE",
"92 1305 CURVE",
"104 1286 OFFCURVE",
"114 1264 OFFCURVE",
"122 1237 CURVE SMOOTH",
"135 1197 OFFCURVE",
"139 1173 OFFCURVE",
"139 1106 CURVE SMOOTH",
"139 117 LINE SMOOTH",
"139 48 OFFCURVE",
"171 0 OFFCURVE",
"242 0 CURVE SMOOTH"
);
}
);
width = 984;
}
);
unicode = 06F2;
},
{
glyphname = uni06F3;
lastChange = "2015-05-24 03:38:45 +0000";
layers = (
{
layerId = "66C82CE7-ECCF-480D-AAE6-CD3075A06AEF";
name = Regular;
paths = (
{
closed = 1;
nodes = (
"296 0 OFFCURVE",
"345 37 OFFCURVE",
"345 118 CURVE SMOOTH",
"345 785 LINE",
"371 779 OFFCURVE",
"395 777 OFFCURVE",
"418 777 CURVE SMOOTH",
"491 777 OFFCURVE",
"545 804 OFFCURVE",
"578 827 CURVE",
"599 844 LINE",
"681 794 OFFCURVE",
"752 777 OFFCURVE",
"811 777 CURVE SMOOTH",
"884 777 OFFCURVE",
"938 804 OFFCURVE",
"971 827 CURVE SMOOTH",
"1036 873 OFFCURVE",
"1083 948 OFFCURVE",
"1107 1040 CURVE SMOOTH",
"1117 1081 OFFCURVE",
"1123 1124 OFFCURVE",
"1123 1166 CURVE SMOOTH",
"1123 1210 OFFCURVE",
"1117 1254 OFFCURVE",
"1105 1296 CURVE SMOOTH",
"1096 1330 OFFCURVE",
"1066 1353 OFFCURVE",
"1032 1353 CURVE SMOOTH",
"989 1353 OFFCURVE",
"956 1316 OFFCURVE",
"956 1277 CURVE SMOOTH",
"956 1270 OFFCURVE",
"957 1264 OFFCURVE",
"959 1257 CURVE SMOOTH",
"967 1227 OFFCURVE",
"971 1196 OFFCURVE",
"971 1166 CURVE SMOOTH",
"971 1076 OFFCURVE",
"938 991 OFFCURVE",
"883 951 CURVE SMOOTH",
"866 939 OFFCURVE",
"842 929 OFFCURVE",
"810 929 CURVE SMOOTH",
"778 929 OFFCURVE",
"738 939 OFFCURVE",
"688 967 CURVE",
"698 990 OFFCURVE",
"707 1014 OFFCURVE",
"713 1040 CURVE SMOOTH",
"723 1082 OFFCURVE",
"729 1124 OFFCURVE",
"729 1167 CURVE SMOOTH",
"729 1211 OFFCURVE",
"723 1255 OFFCURVE",
"712 1296 CURVE SMOOTH",
"703 1330 OFFCURVE",
"672 1353 OFFCURVE",
"639 1353 CURVE SMOOTH",
"595 1353 OFFCURVE",
"563 1316 OFFCURVE",
"563 1277 CURVE SMOOTH",
"563 1270 OFFCURVE",
"564 1264 OFFCURVE",
"566 1257 CURVE SMOOTH",
"574 1227 OFFCURVE",
"578 1196 OFFCURVE",
"578 1166 CURVE SMOOTH",
"578 1076 OFFCURVE",
"545 991 OFFCURVE",
"490 951 CURVE SMOOTH",
"472 939 OFFCURVE",
"448 929 OFFCURVE",
"416 929 CURVE SMOOTH",
"396 929 OFFCURVE",
"372 933 OFFCURVE",
"345 943 CURVE",
"345 1333 LINE",
"246 1383 LINE",
"243 1383 OFFCURVE",
"132 1329 OFFCURVE",
"91 1308 CURVE",
"102 1289 OFFCURVE",
"112 1267 OFFCURVE",
"120 1240 CURVE SMOOTH",
"133 1199 OFFCURVE",
"139 1150 OFFCURVE",
"139 1083 CURVE SMOOTH",
"139 772 LINE",
"139 117 LINE SMOOTH",
"139 48 OFFCURVE",
"169 0 OFFCURVE",
"241 0 CURVE SMOOTH"
);
}
);
width = 1215;
}
);
unicode = 06F3;
},
{
glyphname = uni06F9;
lastChange = "2015-05-24 03:38:45 +0000";
layers = (
{
layerId = "66C82CE7-ECCF-480D-AAE6-CD3075A06AEF";
name = Regular;
paths = (
{
closed = 1;
nodes = (
"841 0 OFFCURVE",
"872 48 OFFCURVE",
"872 117 CURVE SMOOTH",
"872 1084 LINE SMOOTH",
"872 1151 OFFCURVE",
"877 1200 OFFCURVE",
"890 1241 CURVE SMOOTH",
"898 1267 OFFCURVE",
"908 1290 OFFCURVE",
"920 1308 CURVE",
"878 1330 OFFCURVE",
"767 1383 OFFCURVE",
"765 1383 CURVE",
"697 1356 LINE SMOOTH",
"697 1356 OFFCURVE",
"600 1401 OFFCURVE",
"463 1401 CURVE SMOOTH",
"160 1401 OFFCURVE",
"61 1226 OFFCURVE",
"61 1024 CURVE SMOOTH",
"61 840 OFFCURVE",
"170 678 OFFCURVE",
"387 678 CURVE SMOOTH",
"511 678 OFFCURVE",
"597 705 OFFCURVE",
"666 728 CURVE",
"666 118 LINE SMOOTH",
"666 37 OFFCURVE",
"714 0 OFFCURVE",
"769 0 CURVE SMOOTH"
);
},
{
closed = 1;
nodes = (
"428 762 OFFCURVE",
"377 781 OFFCURVE",
"340 818 CURVE SMOOTH",
"300 857 OFFCURVE",
"280 965 OFFCURVE",
"280 1028 CURVE SMOOTH",
"280 1077 OFFCURVE",
"290 1143 OFFCURVE",
"307 1185 CURVE SMOOTH",
"335 1252 OFFCURVE",
"389 1290 OFFCURVE",
"459 1293 CURVE",
"460 1293 LINE",
"504 1295 OFFCURVE",
"543 1284 OFFCURVE",
"575 1260 CURVE SMOOTH",
"603 1239 OFFCURVE",
"625 1209 OFFCURVE",
"638 1170 CURVE SMOOTH",
"657 1116 OFFCURVE",
"667 996 OFFCURVE",
"667 899 CURVE SMOOTH",
"667 881 OFFCURVE",
"667 865 OFFCURVE",
"666 849 CURVE SMOOTH",
"665 830 OFFCURVE",
"657 813 OFFCURVE",
"644 800 CURVE SMOOTH",
"642 798 LINE",
"633 790 OFFCURVE",
"622 783 OFFCURVE",
"610 779 CURVE",
"566 768 OFFCURVE",
"526 762 OFFCURVE",
"491 762 CURVE SMOOTH"
);
}
);
width = 1116;
}
);
unicode = 06F9;
},
{
glyphname = uni06F7;
lastChange = "2015-05-24 03:38:45 +0000";
layers = (
{
layerId = "66C82CE7-ECCF-480D-AAE6-CD3075A06AEF";
name = Regular;
paths = (
{
closed = 1;
nodes = (
"887 0 OFFCURVE",
"999 554 OFFCURVE",
"999 935 CURVE SMOOTH",
"999 1075 OFFCURVE",
"984 1192 OFFCURVE",
"961 1249 CURVE SMOOTH",
"931 1325 OFFCURVE",
"871 1379 OFFCURVE",
"807 1379 CURVE SMOOTH",
"792 1379 OFFCURVE",
"777 1376 OFFCURVE",
"762 1370 CURVE",
"805 1260 OFFCURVE",
"825 1112 OFFCURVE",
"825 957 CURVE SMOOTH",
"825 577 OFFCURVE",
"706 155 OFFCURVE",
"521 155 CURVE SMOOTH",
"336 155 OFFCURVE",
"216 578 OFFCURVE",
"216 959 CURVE SMOOTH",
"216 1113 OFFCURVE",
"236 1261 OFFCURVE",
"279 1370 CURVE",
"264 1376 OFFCURVE",
"249 1379 OFFCURVE",
"235 1379 CURVE SMOOTH",
"170 1379 OFFCURVE",
"110 1325 OFFCURVE",
"78 1249 CURVE SMOOTH",
"55 1192 OFFCURVE",
"40 1076 OFFCURVE",
"40 936 CURVE SMOOTH",
"40 555 OFFCURVE",
"152 0 OFFCURVE",
"521 0 CURVE SMOOTH"
);
}
);
width = 1041;
}
);
unicode = 06F7;
},
{
glyphname = uni06F8;
lastChange = "2015-05-24 03:38:45 +0000";
layers = (
{
layerId = "66C82CE7-ECCF-480D-AAE6-CD3075A06AEF";
name = Regular;
paths = (
{
closed = 1;
nodes = (
"251 0 OFFCURVE",
"266 3 OFFCURVE",
"281 9 CURVE",
"237 119 OFFCURVE",
"217 267 OFFCURVE",
"217 422 CURVE SMOOTH",
"217 802 OFFCURVE",
"337 1224 OFFCURVE",
"522 1224 CURVE SMOOTH",
"706 1224 OFFCURVE",
"826 801 OFFCURVE",
"826 420 CURVE SMOOTH",
"826 266 OFFCURVE",
"806 118 OFFCURVE",
"763 9 CURVE",
"778 3 OFFCURVE",
"793 0 OFFCURVE",
"807 0 CURVE SMOOTH",
"872 0 OFFCURVE",
"932 54 OFFCURVE",
"964 130 CURVE SMOOTH",
"987 187 OFFCURVE",
"1002 303 OFFCURVE",
"1002 442 CURVE SMOOTH",
"1002 823 OFFCURVE",
"890 1379 OFFCURVE",
"522 1379 CURVE SMOOTH",
"155 1379 OFFCURVE",
"43 824 OFFCURVE",
"43 443 CURVE SMOOTH",
"43 303 OFFCURVE",
"58 187 OFFCURVE",
"81 130 CURVE SMOOTH",
"111 54 OFFCURVE",
"171 0 OFFCURVE",
"236 0 CURVE SMOOTH"
);
}
);
width = 1042;
}
);
unicode = 06F8;
},
{
glyphname = uni06F4.urdu;
lastChange = "2015-05-24 03:38:45 +0000";
layers = (
{
layerId = "66C82CE7-ECCF-480D-AAE6-CD3075A06AEF";
name = Regular;
paths = (
{
closed = 1;
nodes = (
"290 0 OFFCURVE",
"339 37 OFFCURVE",
"339 119 CURVE SMOOTH",
"339 1156 LINE",
"363 1140 OFFCURVE",
"388 1121 OFFCURVE",
"414 1101 CURVE SMOOTH",
"500 1037 OFFCURVE",
"556 987 OFFCURVE",
"568 975 CURVE",
"581 955 OFFCURVE",
"602 944 OFFCURVE",
"626 942 CURVE",
"628 942 LINE SMOOTH",
"654 942 OFFCURVE",
"677 956 OFFCURVE",
"691 978 CURVE",
"700 994 OFFCURVE",
"745 1049 OFFCURVE",
"812 1114 CURVE SMOOTH",
"866 1166 OFFCURVE",
"948 1238 OFFCURVE",
"1031 1279 CURVE SMOOTH",
"1057 1292 OFFCURVE",
"1072 1317 OFFCURVE",
"1072 1344 CURVE SMOOTH",
"1072 1355 OFFCURVE",
"1069 1366 OFFCURVE",
"1064 1376 CURVE SMOOTH",
"1051 1402 OFFCURVE",
"1025 1417 OFFCURVE",
"998 1417 CURVE SMOOTH",
"987 1417 OFFCURVE",
"976 1414 OFFCURVE",
"966 1409 CURVE SMOOTH",
"867 1360 OFFCURVE",
"772 1278 OFFCURVE",
"710 1218 CURVE SMOOTH",
"676 1185 OFFCURVE",
"645 1151 OFFCURVE",
"621 1123 CURVE",
"590 1149 OFFCURVE",
"244 1381 OFFCURVE",
"240 1383 CURVE",
"237 1383 OFFCURVE",
"126 1329 OFFCURVE",
"84 1308 CURVE",
"96 1290 OFFCURVE",
"106 1267 OFFCURVE",
"114 1241 CURVE SMOOTH",
"127 1200 OFFCURVE",
"133 1151 OFFCURVE",
"133 1084 CURVE SMOOTH",
"133 773 LINE",
"133 118 LINE SMOOTH",
"133 48 OFFCURVE",
"163 0 OFFCURVE",
"235 0 CURVE SMOOTH"
);
}
);
width = 1153;
}
);
},
{
glyphname = uni06F7.urdu;
lastChange = "2015-05-24 03:38:45 +0000";
layers = (
{
layerId = "66C82CE7-ECCF-480D-AAE6-CD3075A06AEF";
name = Regular;
paths = (
{
closed = 1;
nodes = (
"846 0 LINE SMOOTH",
"891 0 OFFCURVE",
"912 27 OFFCURVE",
"912 102 CURVE SMOOTH",
"912 194 OFFCURVE",
"879 206 OFFCURVE",
"849 206 CURVE SMOOTH",
"346 182 LINE",
"346 1262 LINE SMOOTH",
"346 1343 OFFCURVE",
"297 1380 OFFCURVE",
"242 1380 CURVE SMOOTH",
"171 1380 OFFCURVE",
"139 1332 OFFCURVE",
"139 1263 CURVE SMOOTH",
"139 274 LINE SMOOTH",
"139 207 OFFCURVE",
"135 183 OFFCURVE",
"122 143 CURVE SMOOTH",
"114 116 OFFCURVE",
"104 94 OFFCURVE",
"92 75 CURVE",
"134 53 OFFCURVE",
"241 1 OFFCURVE",
"244 0 CURVE"
);
}
);
width = 981;
}
);
},
{
glyphname = dammatan_01;
lastChange = "2015-05-24 03:38:45 +0000";
layers = (
{
layerId = "66C82CE7-ECCF-480D-AAE6-CD3075A06AEF";
name = Regular;
paths = (
{
closed = 1;
nodes = (
"178 1597 OFFCURVE",
"323 1687 OFFCURVE",
"323 1889 CURVE SMOOTH",
"323 1910 LINE SMOOTH",
"323 2010 OFFCURVE",
"241 2092 OFFCURVE",
"141 2092 CURVE SMOOTH",
"41 2092 OFFCURVE",
"-41 2010 OFFCURVE",
"-41 1910 CURVE SMOOTH",
"-41 1812 OFFCURVE",
"35 1733 OFFCURVE",
"130 1727 CURVE",
"93 1708 OFFCURVE",
"54 1705 OFFCURVE",
"35 1705 CURVE SMOOTH",
"-5 1705 OFFCURVE",
"-48 1722 OFFCURVE",
"-88 1754 CURVE SMOOTH",
"-125 1783 OFFCURVE",
"-155 1822 OFFCURVE",
"-170 1861 CURVE SMOOTH",
"-176 1876 OFFCURVE",
"-190 1888 OFFCURVE",
"-206 1893 CURVE",
"-211 1894 OFFCURVE",
"-216 1895 OFFCURVE",
"-220 1895 CURVE SMOOTH",
"-232 1895 OFFCURVE",
"-244 1891 OFFCURVE",
"-254 1883 CURVE SMOOTH",
"-329 1824 LINE SMOOTH",
"-343 1814 OFFCURVE",
"-350 1798 OFFCURVE",
"-350 1782 CURVE SMOOTH",
"-350 1770 OFFCURVE",
"-346 1758 OFFCURVE",
"-338 1748 CURVE SMOOTH",
"-327 1734 OFFCURVE",
"-312 1727 OFFCURVE",
"-296 1727 CURVE SMOOTH",
"-284 1727 OFFCURVE",
"-272 1731 OFFCURVE",
"-262 1739 CURVE SMOOTH",
"-238 1758 LINE",
"-215 1725 OFFCURVE",
"-187 1694 OFFCURVE",
"-155 1669 CURVE SMOOTH",
"-96 1622 OFFCURVE",
"-31 1597 OFFCURVE",
"35 1597 CURVE SMOOTH"
);
},
{
closed = 1;
nodes = (
"100 1836 OFFCURVE",
"67 1869 OFFCURVE",
"67 1910 CURVE SMOOTH",
"67 1950 OFFCURVE",
"100 1983 OFFCURVE",
"141 1983 CURVE SMOOTH",
"182 1983 OFFCURVE",
"215 1950 OFFCURVE",
"215 1910 CURVE SMOOTH",
"215 1869 OFFCURVE",
"182 1836 OFFCURVE",
"141 1836 CURVE SMOOTH"
);
}
);
width = 0;
}
);
unicode = FE72;
},
{
glyphname = damma_01;
lastChange = "2015-05-24 03:38:45 +0000";
layers = (
{
layerId = "66C82CE7-ECCF-480D-AAE6-CD3075A06AEF";
name = Regular;
paths = (
{
closed = 1;
nodes = (
"-14 1597 OFFCURVE",
"106 1618 OFFCURVE",
"177 1667 CURVE SMOOTH",
"255 1719 OFFCURVE",
"266 1795 OFFCURVE",
"267 1869 CURVE SMOOTH",
"267 1875 LINE",
"264 1973 OFFCURVE",
"184 2053 OFFCURVE",
"84 2053 CURVE SMOOTH",
"-16 2053 OFFCURVE",
"-98 1971 OFFCURVE",
"-98 1871 CURVE SMOOTH",
"-98 1806 OFFCURVE",
"-64 1749 OFFCURVE",
"-13 1716 CURVE",
"-66 1709 OFFCURVE",
"-132 1706 OFFCURVE",
"-212 1706 CURVE SMOOTH",
"-242 1706 OFFCURVE",
"-266 1681 OFFCURVE",
"-266 1651 CURVE SMOOTH",
"-266 1621 OFFCURVE",
"-242 1597 OFFCURVE",
"-212 1597 CURVE SMOOTH"
);
},
{
closed = 1;
nodes = (
"43 1797 OFFCURVE",
"11 1830 OFFCURVE",
"11 1871 CURVE SMOOTH",
"11 1911 OFFCURVE",
"43 1945 OFFCURVE",
"84 1945 CURVE SMOOTH",
"125 1945 OFFCURVE",
"158 1911 OFFCURVE",
"158 1871 CURVE SMOOTH",
"158 1870 LINE SMOOTH",
"157 1830 OFFCURVE",
"125 1797 OFFCURVE",
"84 1797 CURVE SMOOTH"
);
}
);
width = 0;
}
);
unicode = FE78;
},
{
glyphname = kasra_01;
lastChange = "2015-05-24 04:35:50 +0000";
layers = (
{
layerId = "66C82CE7-ECCF-480D-AAE6-CD3075A06AEF";
name = Regular;
paths = (
{
closed = 1;
nodes = (
"-199 -561 OFFCURVE",
"-197 -557 OFFCURVE",
"-157 -533 CURVE SMOOTH",
"-138 -522 OFFCURVE",
"-110 -508 OFFCURVE",
"-74 -493 CURVE SMOOTH",
"-2 -462 OFFCURVE",
"101 -429 OFFCURVE",
"229 -417 CURVE SMOOTH",
"258 -414 OFFCURVE",
"278 -390 OFFCURVE",
"278 -364 CURVE SMOOTH",
"278 -329 OFFCURVE",
"252 -306 OFFCURVE",
"219 -309 CURVE SMOOTH",
"148 -316 OFFCURVE",
"84 -328 OFFCURVE",
"27 -344 CURVE SMOOTH",
"-87 -377 OFFCURVE",
"-169 -413 OFFCURVE",
"-213 -440 CURVE SMOOTH",
"-235 -453 OFFCURVE",
"-247 -461 OFFCURVE",
"-249 -462 CURVE",
"-264 -473 OFFCURVE",
"-273 -489 OFFCURVE",
"-273 -507 CURVE SMOOTH",
"-273 -517 OFFCURVE",
"-269 -528 OFFCURVE",
"-263 -537 CURVE SMOOTH",
"-252 -553 OFFCURVE",
"-235 -561 OFFCURVE",
"-218 -561 CURVE SMOOTH"
);
}
);
width = 0;
}
);
unicode = FE7A;
},
{
glyphname = shadda_01;
lastChange = "2015-05-24 03:38:45 +0000";
layers = (
{
layerId = "66C82CE7-ECCF-480D-AAE6-CD3075A06AEF";
name = Regular;
paths = (
{
closed = 1;
nodes = (
"-75 1651 OFFCURVE",
"-65 1653 OFFCURVE",
"-55 1655 CURVE",
"-13 1666 OFFCURVE",
"21 1698 OFFCURVE",
"41 1744 CURVE",
"59 1730 OFFCURVE",
"78 1720 OFFCURVE",
"99 1714 CURVE SMOOTH",
"111 1711 OFFCURVE",
"123 1709 OFFCURVE",
"136 1709 CURVE SMOOTH",
"169 1709 OFFCURVE",
"201 1722 OFFCURVE",
"226 1746 CURVE",
"249 1770 OFFCURVE",
"281 1819 OFFCURVE",
"281 1910 CURVE SMOOTH",
"281 1947 OFFCURVE",
"276 1992 OFFCURVE",
"262 2046 CURVE SMOOTH",
"255 2071 OFFCURVE",
"234 2087 OFFCURVE",
"210 2087 CURVE SMOOTH",
"178 2087 OFFCURVE",
"155 2061 OFFCURVE",
"155 2034 CURVE SMOOTH",
"155 2029 OFFCURVE",
"156 2024 OFFCURVE",
"157 2019 CURVE SMOOTH",
"168 1975 OFFCURVE",
"173 1938 OFFCURVE",
"173 1909 CURVE SMOOTH",
"173 1865 OFFCURVE",
"162 1837 OFFCURVE",
"149 1824 CURVE SMOOTH",
"145 1820 OFFCURVE",
"141 1818 OFFCURVE",
"136 1818 CURVE SMOOTH",
"133 1818 OFFCURVE",
"131 1818 OFFCURVE",
"128 1819 CURVE",
"101 1826 OFFCURVE",
"65 1866 OFFCURVE",
"46 1940 CURVE SMOOTH",
"40 1964 OFFCURVE",
"18 1981 OFFCURVE",
"-6 1981 CURVE SMOOTH",
"-37 1981 OFFCURVE",
"-61 1954 OFFCURVE",
"-61 1926 CURVE SMOOTH",
"-61 1921 OFFCURVE",
"-60 1917 OFFCURVE",
"-59 1912 CURVE SMOOTH",
"-52 1887 OFFCURVE",
"-49 1863 OFFCURVE",
"-49 1842 CURVE SMOOTH",
"-49 1824 OFFCURVE",
"-51 1808 OFFCURVE",
"-56 1794 CURVE SMOOTH",
"-62 1776 OFFCURVE",
"-72 1763 OFFCURVE",
"-82 1760 CURVE",
"-93 1758 OFFCURVE",
"-109 1766 OFFCURVE",
"-125 1782 CURVE SMOOTH",
"-144 1802 OFFCURVE",
"-172 1844 OFFCURVE",
"-194 1929 CURVE SMOOTH",
"-200 1953 OFFCURVE",
"-223 1970 OFFCURVE",
"-247 1970 CURVE SMOOTH",
"-280 1970 OFFCURVE",
"-301 1942 OFFCURVE",
"-301 1913 CURVE SMOOTH",
"-301 1909 OFFCURVE",
"-300 1904 OFFCURVE",
"-299 1900 CURVE SMOOTH",
"-277 1815 OFFCURVE",
"-244 1750 OFFCURVE",
"-202 1706 CURVE SMOOTH",
"-168 1671 OFFCURVE",
"-127 1651 OFFCURVE",
"-86 1651 CURVE SMOOTH"
);
}
);
width = 0;
}
);
unicode = FE7C;
},
{
glyphname = sukun_01;
lastChange = "2015-05-24 03:38:45 +0000";
layers = (
{
layerId = "66C82CE7-ECCF-480D-AAE6-CD3075A06AEF";
name = Regular;
paths = (
{
closed = 1;
nodes = (
"125 1671 OFFCURVE",
"227 1773 OFFCURVE",
"227 1899 CURVE SMOOTH",
"227 2024 OFFCURVE",
"125 2126 OFFCURVE",
"0 2126 CURVE SMOOTH",
"-126 2126 OFFCURVE",
"-228 2024 OFFCURVE",
"-228 1899 CURVE SMOOTH",
"-228 1773 OFFCURVE",
"-126 1671 OFFCURVE",
"0 1671 CURVE SMOOTH"
);
},
{
closed = 1;
nodes = (
"-66 1780 OFFCURVE",
"-119 1833 OFFCURVE",
"-119 1899 CURVE SMOOTH",
"-119 1964 OFFCURVE",
"-66 2017 OFFCURVE",
"0 2017 CURVE SMOOTH",
"65 2017 OFFCURVE",
"118 1964 OFFCURVE",
"118 1899 CURVE SMOOTH",
"118 1833 OFFCURVE",
"65 1780 OFFCURVE",
"0 1780 CURVE SMOOTH"
);
}
);
width = 0;
}
);
unicode = FE7E;
},
{
glyphname = Ghunna_above;
lastChange = "2015-05-24 03:38:45 +0000";
layers = (
{
layerId = "66C82CE7-ECCF-480D-AAE6-CD3075A06AEF";
name = Regular;
paths = (
{
closed = 1;
nodes = (
"55 1194 OFFCURVE",
"118 1218 OFFCURVE",
"161 1265 CURVE SMOOTH",
"214 1323 OFFCURVE",
"225 1404 OFFCURVE",
"225 1473 CURVE SMOOTH",
"225 1506 OFFCURVE",
"223 1536 OFFCURVE",
"221 1559 CURVE SMOOTH",
"220 1573 OFFCURVE",
"219 1585 OFFCURVE",
"219 1592 CURVE SMOOTH",
"219 1613 OFFCURVE",
"202 1629 OFFCURVE",
"181 1629 CURVE SMOOTH",
"161 1629 OFFCURVE",
"144 1613 OFFCURVE",
"144 1592 CURVE SMOOTH",
"144 1582 OFFCURVE",
"145 1569 OFFCURVE",
"146 1552 CURVE SMOOTH",
"148 1529 OFFCURVE",
"151 1500 OFFCURVE",
"151 1469 CURVE SMOOTH",
"151 1456 OFFCURVE",
"150 1443 OFFCURVE",
"149 1429 CURVE SMOOTH",
"144 1379 OFFCURVE",
"129 1341 OFFCURVE",
"106 1316 CURVE SMOOTH",
"77 1285 OFFCURVE",
"34 1269 OFFCURVE",
"-27 1269 CURVE SMOOTH",
"-82 1269 OFFCURVE",
"-119 1283 OFFCURVE",
"-142 1312 CURVE SMOOTH",
"-161 1336 OFFCURVE",
"-170 1375 OFFCURVE",
"-170 1425 CURVE SMOOTH",
"-170 1465 OFFCURVE",
"-163 1512 OFFCURVE",
"-150 1567 CURVE SMOOTH",
"-149 1570 OFFCURVE",
"-149 1573 OFFCURVE",
"-149 1576 CURVE SMOOTH",
"-149 1595 OFFCURVE",
"-165 1613 OFFCURVE",
"-187 1613 CURVE SMOOTH",
"-204 1613 OFFCURVE",
"-219 1602 OFFCURVE",
"-223 1584 CURVE SMOOTH",
"-238 1522 OFFCURVE",
"-246 1468 OFFCURVE",
"-246 1421 CURVE SMOOTH",
"-246 1355 OFFCURVE",
"-231 1304 OFFCURVE",
"-201 1266 CURVE SMOOTH",
"-164 1218 OFFCURVE",
"-105 1194 OFFCURVE",
"-27 1194 CURVE SMOOTH"
);
},
{
closed = 1;
nodes = (
"10 1542 OFFCURVE",
"27 1559 OFFCURVE",
"27 1580 CURVE SMOOTH",
"27 1809 LINE SMOOTH",
"27 1830 OFFCURVE",
"10 1846 OFFCURVE",
"-10 1846 CURVE SMOOTH",
"-31 1846 OFFCURVE",
"-48 1830 OFFCURVE",
"-48 1809 CURVE SMOOTH",
"-48 1580 LINE SMOOTH",
"-48 1559 OFFCURVE",
"-31 1542 OFFCURVE",
"-10 1542 CURVE SMOOTH"
);
}
);
width = 0;
}
);
},
{
glyphname = uni0651064C;
lastChange = "2015-05-24 03:38:45 +0000";
layers = (
{
anchors = (
{
name = _top;
position = "{-89, 1631}";
},
{
name = top;
position = "{-87, 2690}";
}
);
layerId = "66C82CE7-ECCF-480D-AAE6-CD3075A06AEF";
name = Regular;
paths = (
{
closed = 1;
nodes = (
"69 2136 OFFCURVE",
"214 2226 OFFCURVE",
"214 2428 CURVE SMOOTH",
"214 2449 LINE SMOOTH",
"214 2549 OFFCURVE",
"132 2631 OFFCURVE",
"32 2631 CURVE SMOOTH",
"-68 2631 OFFCURVE",
"-150 2549 OFFCURVE",
"-150 2449 CURVE SMOOTH",
"-150 2351 OFFCURVE",
"-74 2272 OFFCURVE",
"21 2266 CURVE",
"-16 2247 OFFCURVE",
"-55 2244 OFFCURVE",
"-74 2244 CURVE SMOOTH",
"-114 2244 OFFCURVE",
"-157 2261 OFFCURVE",
"-197 2293 CURVE SMOOTH",
"-234 2322 OFFCURVE",
"-264 2361 OFFCURVE",
"-279 2400 CURVE SMOOTH",
"-285 2415 OFFCURVE",
"-299 2427 OFFCURVE",
"-315 2432 CURVE",
"-320 2433 OFFCURVE",
"-325 2434 OFFCURVE",
"-329 2434 CURVE SMOOTH",
"-341 2434 OFFCURVE",
"-353 2430 OFFCURVE",
"-363 2422 CURVE SMOOTH",
"-438 2363 LINE SMOOTH",
"-452 2353 OFFCURVE",
"-459 2337 OFFCURVE",
"-459 2321 CURVE SMOOTH",
"-459 2309 OFFCURVE",
"-455 2297 OFFCURVE",
"-447 2287 CURVE SMOOTH",
"-436 2273 OFFCURVE",
"-421 2266 OFFCURVE",
"-405 2266 CURVE SMOOTH",
"-393 2266 OFFCURVE",
"-381 2270 OFFCURVE",
"-371 2278 CURVE SMOOTH",
"-347 2297 LINE",
"-324 2264 OFFCURVE",
"-296 2233 OFFCURVE",
"-264 2208 CURVE SMOOTH",
"-205 2161 OFFCURVE",
"-140 2136 OFFCURVE",
"-74 2136 CURVE SMOOTH"
);
},
{
closed = 1;
nodes = (
"-75 1651 OFFCURVE",
"-66 1652 OFFCURVE",
"-55 1655 CURVE SMOOTH",
"-12 1666 OFFCURVE",
"21 1697 OFFCURVE",
"41 1744 CURVE",
"59 1730 OFFCURVE",
"78 1720 OFFCURVE",
"99 1714 CURVE",
"112 1711 OFFCURVE",
"125 1709 OFFCURVE",
"136 1709 CURVE SMOOTH",
"170 1709 OFFCURVE",
"200 1721 OFFCURVE",
"226 1746 CURVE",
"242 1763 OFFCURVE",
"263 1792 OFFCURVE",
"274 1840 CURVE SMOOTH",
"279 1860 OFFCURVE",
"281 1883 OFFCURVE",
"281 1910 CURVE SMOOTH",
"281 1948 OFFCURVE",
"276 1992 OFFCURVE",
"262 2045 CURVE SMOOTH",
"255 2071 OFFCURVE",
"235 2086 OFFCURVE",
"211 2086 CURVE SMOOTH",
"178 2086 OFFCURVE",
"155 2061 OFFCURVE",
"155 2032 CURVE SMOOTH",
"155 2028 OFFCURVE",
"156 2023 OFFCURVE",
"157 2018 CURVE SMOOTH",
"168 1975 OFFCURVE",
"173 1939 OFFCURVE",
"173 1911 CURVE SMOOTH",
"173 1902 OFFCURVE",
"173 1895 OFFCURVE",
"172 1888 CURVE SMOOTH",
"168 1856 OFFCURVE",
"160 1835 OFFCURVE",
"149 1824 CURVE SMOOTH",
"145 1820 OFFCURVE",
"140 1818 OFFCURVE",
"135 1818 CURVE SMOOTH",
"133 1818 OFFCURVE",
"130 1818 OFFCURVE",
"128 1819 CURVE",
"101 1826 OFFCURVE",
"65 1866 OFFCURVE",
"46 1939 CURVE SMOOTH",
"40 1963 OFFCURVE",
"18 1980 OFFCURVE",
"-6 1980 CURVE SMOOTH",
"-38 1980 OFFCURVE",
"-61 1953 OFFCURVE",
"-61 1925 CURVE SMOOTH",
"-61 1921 OFFCURVE",
"-60 1916 OFFCURVE",
"-59 1912 CURVE SMOOTH",
"-52 1887 OFFCURVE",
"-48 1863 OFFCURVE",
"-48 1842 CURVE SMOOTH",
"-48 1824 OFFCURVE",
"-51 1808 OFFCURVE",
"-56 1794 CURVE SMOOTH",
"-63 1775 OFFCURVE",
"-71 1763 OFFCURVE",
"-82 1760 CURVE",
"-106 1756 OFFCURVE",
"-133 1786 OFFCURVE",
"-158 1831 CURVE SMOOTH",
"-171 1854 OFFCURVE",
"-183 1886 OFFCURVE",
"-194 1928 CURVE SMOOTH",
"-200 1952 OFFCURVE",
"-223 1969 OFFCURVE",
"-247 1969 CURVE SMOOTH",
"-279 1969 OFFCURVE",
"-301 1942 OFFCURVE",
"-301 1913 CURVE SMOOTH",
"-301 1909 OFFCURVE",
"-300 1904 OFFCURVE",
"-299 1900 CURVE SMOOTH",
"-277 1815 OFFCURVE",
"-245 1751 OFFCURVE",
"-202 1706 CURVE SMOOTH",
"-167 1671 OFFCURVE",
"-127 1651 OFFCURVE",
"-86 1651 CURVE SMOOTH"
);
},
{
closed = 1;
nodes = (
"-9 2375 OFFCURVE",
"-42 2408 OFFCURVE",
"-42 2449 CURVE SMOOTH",
"-42 2489 OFFCURVE",
"-9 2522 OFFCURVE",
"32 2522 CURVE SMOOTH",
"73 2522 OFFCURVE",
"106 2489 OFFCURVE",
"106 2449 CURVE SMOOTH",
"106 2408 OFFCURVE",
"73 2375 OFFCURVE",
"32 2375 CURVE SMOOTH"
);
}
);
width = 0;
}
);
unicode = FC5E;
},
{
glyphname = uni0651064D;
lastChange = "2015-05-24 03:38:45 +0000";
layers = (
{
anchors = (
{
name = _top;
position = "{60, 1133}";
},
{
name = top;
position = "{-64, 2088}";
}
);
layerId = "66C82CE7-ECCF-480D-AAE6-CD3075A06AEF";
name = Regular;
paths = (
{
closed = 1;
nodes = (
"-75 1651 OFFCURVE",
"-65 1653 OFFCURVE",
"-55 1655 CURVE",
"-13 1666 OFFCURVE",
"21 1698 OFFCURVE",
"41 1744 CURVE",
"59 1730 OFFCURVE",
"78 1720 OFFCURVE",
"99 1714 CURVE SMOOTH",
"111 1711 OFFCURVE",
"123 1709 OFFCURVE",
"136 1709 CURVE SMOOTH",
"169 1709 OFFCURVE",
"201 1722 OFFCURVE",
"226 1746 CURVE",
"249 1770 OFFCURVE",
"281 1819 OFFCURVE",
"281 1910 CURVE SMOOTH",
"281 1947 OFFCURVE",
"276 1992 OFFCURVE",
"262 2046 CURVE SMOOTH",
"255 2071 OFFCURVE",
"234 2087 OFFCURVE",
"210 2087 CURVE SMOOTH",
"178 2087 OFFCURVE",
"155 2061 OFFCURVE",
"155 2034 CURVE SMOOTH",
"155 2029 OFFCURVE",
"156 2024 OFFCURVE",
"157 2019 CURVE SMOOTH",
"168 1975 OFFCURVE",
"173 1938 OFFCURVE",
"173 1909 CURVE SMOOTH",
"173 1865 OFFCURVE",
"162 1837 OFFCURVE",
"149 1824 CURVE SMOOTH",
"145 1820 OFFCURVE",
"141 1818 OFFCURVE",
"136 1818 CURVE SMOOTH",
"133 1818 OFFCURVE",
"131 1818 OFFCURVE",
"128 1819 CURVE",
"101 1826 OFFCURVE",
"65 1866 OFFCURVE",
"46 1940 CURVE SMOOTH",
"40 1964 OFFCURVE",
"18 1981 OFFCURVE",
"-6 1981 CURVE SMOOTH",
"-37 1981 OFFCURVE",
"-61 1954 OFFCURVE",
"-61 1926 CURVE SMOOTH",
"-61 1921 OFFCURVE",
"-60 1917 OFFCURVE",
"-59 1912 CURVE SMOOTH",
"-52 1887 OFFCURVE",
"-49 1863 OFFCURVE",
"-49 1842 CURVE SMOOTH",
"-49 1824 OFFCURVE",
"-51 1808 OFFCURVE",
"-56 1794 CURVE SMOOTH",
"-62 1776 OFFCURVE",
"-72 1763 OFFCURVE",
"-82 1760 CURVE",
"-93 1758 OFFCURVE",
"-109 1766 OFFCURVE",
"-125 1782 CURVE SMOOTH",
"-144 1802 OFFCURVE",
"-172 1844 OFFCURVE",
"-194 1929 CURVE SMOOTH",
"-200 1953 OFFCURVE",
"-223 1970 OFFCURVE",
"-247 1970 CURVE SMOOTH",
"-280 1970 OFFCURVE",
"-301 1942 OFFCURVE",
"-301 1913 CURVE SMOOTH",
"-301 1909 OFFCURVE",
"-300 1904 OFFCURVE",
"-299 1900 CURVE SMOOTH",
"-277 1815 OFFCURVE",
"-244 1750 OFFCURVE",
"-202 1706 CURVE SMOOTH",
"-168 1671 OFFCURVE",
"-127 1651 OFFCURVE",
"-86 1651 CURVE SMOOTH"
);
},
{
closed = 1;
nodes = (
"-65 1153 OFFCURVE",
"-54 1157 OFFCURVE",
"-44 1163 CURVE",
"-43 1164 OFFCURVE",
"117 1272 OFFCURVE",
"372 1297 CURVE SMOOTH",
"400 1300 OFFCURVE",
"421 1324 OFFCURVE",
"421 1351 CURVE SMOOTH",
"421 1383 OFFCURVE",
"393 1408 OFFCURVE",
"362 1405 CURVE SMOOTH",
"76 1377 OFFCURVE",
"-99 1257 OFFCURVE",
"-106 1252 CURVE SMOOTH",
"-121 1241 OFFCURVE",
"-130 1225 OFFCURVE",
"-130 1207 CURVE SMOOTH",
"-130 1197 OFFCURVE",
"-126 1186 OFFCURVE",
"-120 1177 CURVE SMOOTH",
"-109 1161 OFFCURVE",
"-93 1153 OFFCURVE",
"-76 1153 CURVE SMOOTH"
);
},
{
closed = 1;
nodes = (
"-126 1385 OFFCURVE",
"-116 1389 OFFCURVE",
"-106 1395 CURVE",
"-104 1396 OFFCURVE",
"55 1505 OFFCURVE",
"310 1529 CURVE SMOOTH",
"341 1532 OFFCURVE",
"362 1559 OFFCURVE",
"360 1589 CURVE",
"356 1618 OFFCURVE",
"330 1640 OFFCURVE",
"300 1637 CURVE SMOOTH",
"15 1610 OFFCURVE",
"-161 1489 OFFCURVE",
"-168 1485 CURVE",
"-183 1474 OFFCURVE",
"-191 1457 OFFCURVE",
"-191 1439 CURVE SMOOTH",
"-191 1429 OFFCURVE",
"-188 1418 OFFCURVE",
"-182 1409 CURVE",
"-171 1394 OFFCURVE",
"-154 1385 OFFCURVE",
"-137 1385 CURVE SMOOTH"
);
}
);
width = 0;
}
);
unicode = FC5F;
},
{
glyphname = uni0651064B;
lastChange = "2015-05-24 03:38:45 +0000";
layers = (
{
anchors = (
{
name = _top;
position = "{-69, 1631}";
},
{
name = top;
position = "{-237, 2586}";
}
);
layerId = "66C82CE7-ECCF-480D-AAE6-CD3075A06AEF";
name = Regular;
paths = (
{
closed = 1;
nodes = (
"-75 1651 OFFCURVE",
"-65 1653 OFFCURVE",
"-55 1655 CURVE",
"-13 1666 OFFCURVE",
"21 1698 OFFCURVE",
"41 1744 CURVE",
"59 1730 OFFCURVE",
"78 1720 OFFCURVE",
"99 1714 CURVE SMOOTH",
"111 1711 OFFCURVE",
"123 1709 OFFCURVE",
"136 1709 CURVE SMOOTH",
"169 1709 OFFCURVE",
"201 1722 OFFCURVE",
"226 1746 CURVE",
"249 1770 OFFCURVE",
"281 1819 OFFCURVE",
"281 1910 CURVE SMOOTH",
"281 1947 OFFCURVE",
"276 1992 OFFCURVE",
"262 2046 CURVE SMOOTH",
"255 2071 OFFCURVE",
"234 2087 OFFCURVE",
"210 2087 CURVE SMOOTH",
"178 2087 OFFCURVE",
"155 2061 OFFCURVE",
"155 2034 CURVE SMOOTH",
"155 2029 OFFCURVE",
"156 2024 OFFCURVE",
"157 2019 CURVE SMOOTH",
"168 1975 OFFCURVE",
"173 1938 OFFCURVE",
"173 1909 CURVE SMOOTH",
"173 1865 OFFCURVE",
"162 1837 OFFCURVE",
"149 1824 CURVE SMOOTH",
"145 1820 OFFCURVE",
"141 1818 OFFCURVE",
"136 1818 CURVE SMOOTH",
"133 1818 OFFCURVE",
"131 1818 OFFCURVE",
"128 1819 CURVE",
"101 1826 OFFCURVE",
"65 1866 OFFCURVE",
"46 1940 CURVE SMOOTH",
"40 1964 OFFCURVE",
"18 1981 OFFCURVE",
"-6 1981 CURVE SMOOTH",
"-37 1981 OFFCURVE",
"-61 1954 OFFCURVE",
"-61 1926 CURVE SMOOTH",
"-61 1921 OFFCURVE",
"-60 1917 OFFCURVE",
"-59 1912 CURVE SMOOTH",
"-52 1887 OFFCURVE",
"-49 1863 OFFCURVE",
"-49 1842 CURVE SMOOTH",
"-49 1824 OFFCURVE",
"-51 1808 OFFCURVE",
"-56 1794 CURVE SMOOTH",
"-62 1776 OFFCURVE",
"-72 1763 OFFCURVE",
"-82 1760 CURVE",
"-93 1758 OFFCURVE",
"-109 1766 OFFCURVE",
"-125 1782 CURVE SMOOTH",
"-144 1802 OFFCURVE",
"-172 1844 OFFCURVE",
"-194 1929 CURVE SMOOTH",
"-200 1953 OFFCURVE",
"-223 1970 OFFCURVE",
"-247 1970 CURVE SMOOTH",
"-280 1970 OFFCURVE",
"-301 1942 OFFCURVE",
"-301 1913 CURVE SMOOTH",
"-301 1909 OFFCURVE",
"-300 1904 OFFCURVE",
"-299 1900 CURVE SMOOTH",
"-277 1815 OFFCURVE",
"-244 1750 OFFCURVE",
"-202 1706 CURVE SMOOTH",
"-168 1671 OFFCURVE",
"-127 1651 OFFCURVE",
"-86 1651 CURVE SMOOTH"
);
},
{
closed = 1;
nodes = (
"-292 2055 OFFCURVE",
"-281 2059 OFFCURVE",
"-271 2065 CURVE",
"-270 2066 OFFCURVE",
"-110 2174 OFFCURVE",
"145 2199 CURVE SMOOTH",
"173 2202 OFFCURVE",
"194 2226 OFFCURVE",
"194 2253 CURVE SMOOTH",
"194 2285 OFFCURVE",
"166 2310 OFFCURVE",
"135 2307 CURVE SMOOTH",
"-151 2279 OFFCURVE",
"-326 2159 OFFCURVE",
"-333 2154 CURVE SMOOTH",
"-348 2143 OFFCURVE",
"-357 2127 OFFCURVE",
"-357 2109 CURVE SMOOTH",
"-357 2099 OFFCURVE",
"-353 2088 OFFCURVE",
"-347 2079 CURVE SMOOTH",
"-336 2063 OFFCURVE",
"-320 2055 OFFCURVE",
"-303 2055 CURVE SMOOTH"
);
},
{
closed = 1;
nodes = (
"-353 2287 OFFCURVE",
"-343 2291 OFFCURVE",
"-333 2297 CURVE",
"-331 2298 OFFCURVE",
"-172 2407 OFFCURVE",
"83 2431 CURVE SMOOTH",
"114 2434 OFFCURVE",
"135 2461 OFFCURVE",
"133 2491 CURVE",
"129 2520 OFFCURVE",
"103 2542 OFFCURVE",
"73 2539 CURVE SMOOTH",
"-212 2512 OFFCURVE",
"-388 2391 OFFCURVE",
"-395 2387 CURVE",
"-410 2376 OFFCURVE",
"-418 2359 OFFCURVE",
"-418 2341 CURVE SMOOTH",
"-418 2331 OFFCURVE",
"-415 2320 OFFCURVE",
"-409 2311 CURVE",
"-398 2296 OFFCURVE",
"-381 2287 OFFCURVE",
"-364 2287 CURVE SMOOTH"
);
}
);
width = 0;
}
);
},
{
glyphname = uni0651064E;
lastChange = "2015-05-24 03:38:45 +0000";
layers = (
{
anchors = (
{
name = _top;
position = "{-41, 1631}";
},
{
name = top;
position = "{-191, 2351}";
}
);
layerId = "66C82CE7-ECCF-480D-AAE6-CD3075A06AEF";
name = Regular;
paths = (
{
closed = 1;
nodes = (
"-75 1651 OFFCURVE",
"-65 1653 OFFCURVE",
"-55 1655 CURVE",
"-13 1666 OFFCURVE",
"21 1698 OFFCURVE",
"41 1744 CURVE",
"59 1730 OFFCURVE",
"78 1720 OFFCURVE",
"99 1714 CURVE SMOOTH",
"111 1711 OFFCURVE",
"123 1709 OFFCURVE",
"136 1709 CURVE SMOOTH",
"169 1709 OFFCURVE",
"201 1722 OFFCURVE",
"226 1746 CURVE",
"249 1770 OFFCURVE",
"281 1819 OFFCURVE",
"281 1910 CURVE SMOOTH",
"281 1947 OFFCURVE",
"276 1992 OFFCURVE",
"262 2046 CURVE SMOOTH",
"255 2071 OFFCURVE",
"234 2087 OFFCURVE",
"210 2087 CURVE SMOOTH",
"178 2087 OFFCURVE",
"155 2061 OFFCURVE",
"155 2034 CURVE SMOOTH",
"155 2029 OFFCURVE",
"156 2024 OFFCURVE",
"157 2019 CURVE SMOOTH",
"168 1975 OFFCURVE",
"173 1938 OFFCURVE",
"173 1909 CURVE SMOOTH",
"173 1865 OFFCURVE",
"162 1837 OFFCURVE",
"149 1824 CURVE SMOOTH",
"145 1820 OFFCURVE",
"141 1818 OFFCURVE",
"136 1818 CURVE SMOOTH",
"133 1818 OFFCURVE",
"131 1818 OFFCURVE",
"128 1819 CURVE",
"101 1826 OFFCURVE",
"65 1866 OFFCURVE",
"46 1940 CURVE SMOOTH",
"40 1964 OFFCURVE",
"18 1981 OFFCURVE",
"-6 1981 CURVE SMOOTH",
"-37 1981 OFFCURVE",
"-61 1954 OFFCURVE",
"-61 1926 CURVE SMOOTH",
"-61 1921 OFFCURVE",
"-60 1917 OFFCURVE",
"-59 1912 CURVE SMOOTH",
"-52 1887 OFFCURVE",
"-49 1863 OFFCURVE",
"-49 1842 CURVE SMOOTH",
"-49 1824 OFFCURVE",
"-51 1808 OFFCURVE",
"-56 1794 CURVE SMOOTH",
"-62 1776 OFFCURVE",
"-72 1763 OFFCURVE",
"-82 1760 CURVE",
"-93 1758 OFFCURVE",
"-109 1766 OFFCURVE",
"-125 1782 CURVE SMOOTH",
"-144 1802 OFFCURVE",
"-172 1844 OFFCURVE",
"-194 1929 CURVE SMOOTH",
"-200 1953 OFFCURVE",
"-223 1970 OFFCURVE",
"-247 1970 CURVE SMOOTH",
"-280 1970 OFFCURVE",
"-301 1942 OFFCURVE",
"-301 1913 CURVE SMOOTH",
"-301 1909 OFFCURVE",
"-300 1904 OFFCURVE",
"-299 1900 CURVE SMOOTH",
"-277 1815 OFFCURVE",
"-244 1750 OFFCURVE",
"-202 1706 CURVE SMOOTH",
"-168 1671 OFFCURVE",
"-127 1651 OFFCURVE",
"-86 1651 CURVE SMOOTH"
);
},
{
closed = 1;
nodes = (
"-294 2064 OFFCURVE",
"-283 2068 OFFCURVE",
"-273 2074 CURVE",
"-272 2075 OFFCURVE",
"-112 2183 OFFCURVE",
"143 2208 CURVE SMOOTH",
"171 2211 OFFCURVE",
"192 2235 OFFCURVE",
"192 2262 CURVE SMOOTH",
"192 2294 OFFCURVE",
"164 2319 OFFCURVE",
"133 2316 CURVE SMOOTH",
"-153 2288 OFFCURVE",
"-328 2168 OFFCURVE",
"-335 2163 CURVE SMOOTH",
"-350 2152 OFFCURVE",
"-359 2136 OFFCURVE",
"-359 2118 CURVE SMOOTH",
"-359 2108 OFFCURVE",
"-355 2097 OFFCURVE",
"-349 2088 CURVE SMOOTH",
"-338 2072 OFFCURVE",
"-322 2064 OFFCURVE",
"-305 2064 CURVE SMOOTH"
);
}
);
width = 0;
}
);
unicode = FC60;
},
